<?xml version="1.0" encoding="UTF-8" standalone="no"?>
<svg
   xmlns:dc="http://purl.org/dc/elements/1.1/"
   xmlns:cc="http://creativecommons.org/ns#"
   xmlns:rdf="http://www.w3.org/1999/02/22-rdf-syntax-ns#"
   xmlns:svg="http://www.w3.org/2000/svg"
   xmlns="http://www.w3.org/2000/svg"
   xmlns:sodipodi="http://sodipodi.sourceforge.net/DTD/sodipodi-0.dtd"
   xmlns:inkscape="http://www.inkscape.org/namespaces/inkscape"
   version="1.1"
   x="0px"
   y="0px"
   width="33.65715"
   height="40"
   viewBox="0 0 373.96833 444.44444"
   enable-background="new 0 0 500 500"
   xml:space="preserve"
   id="svg2"
   inkscape:version="0.48.3.1 r9886"
   sodipodi:docname="meatspace.svg"><metadata
   id="metadata360"><rdf:RDF><cc:Work
       rdf:about=""><dc:format>image/svg+xml</dc:format><dc:type
         rdf:resource="http://purl.org/dc/dcmitype/StillImage" /></cc:Work></rdf:RDF></metadata><defs
   id="defs358" /><sodipodi:namedview
   pagecolor="#ffffff"
   bordercolor="#666666"
   borderopacity="1"
   objecttolerance="10"
   gridtolerance="10"
   guidetolerance="10"
   inkscape:pageopacity="0"
   inkscape:pageshadow="2"
   inkscape:window-width="897"
   inkscape:window-height="480"
   id="namedview356"
   showgrid="false"
   fit-margin-top="0"
   fit-margin-left="0"
   fit-margin-right="0"
   fit-margin-bottom="0"
   inkscape:zoom="3.7083822"
   inkscape:cx="8.2857563"
   inkscape:cy="31.320366"
   inkscape:window-x="0"
   inkscape:window-y="60"
   inkscape:window-maximized="0"
   inkscape:current-layer="svg2" />
<g
   id="g4"
   transform="matrix(0.99126097,0,0,0.99126097,-63.986929,-16.530814)">
    <g
   id="g6">
        <path
   clip-rule="evenodd"
   d="m 252.7,48.185 c 1.705,-0.499 5.495,-0.499 7.2,0 -2.4,0 -4.8,0 -7.2,0 z"
   id="path8"
   inkscape:connector-curvature="0"
   style="fill:#f8bed5;fill-rule:evenodd" />
        <path
   clip-rule="evenodd"
   d="m 260.5,73.085 c 0.301,-10e-4 0.357,0.243 0.6,0.3 0,0.1 0,0.2 0,0.3 -0.898,4.001 0.299,10.099 -0.6,14.1 0,-4.9 0,-9.8 0,-14.7 z"
   id="path10"
   inkscape:connector-curvature="0"
   style="fill:#f8bed5;fill-rule:evenodd" />
        <path
   clip-rule="evenodd"
   d="m 224.5,98.585 c 0.42,-0.497 2.88,-0.497 3.3,0 -1.1,0 -2.2,0 -3.3,0 z"
   id="path12"
   inkscape:connector-curvature="0"
   style="fill:#eb7fa7;fill-rule:evenodd" />
        <path
   clip-rule="evenodd"
   d="m 64.9,128.585 c -0.195,1.505 0.393,3.793 -0.3,4.8 0.195,-1.505 -0.393,-3.793 0.3,-4.8 z"
   id="path14"
   inkscape:connector-curvature="0"
   style="fill:#fadde8;fill-rule:evenodd" />
        <path
   clip-rule="evenodd"
   d="m 320.2,130.685 c 1,0 2,0 3,0 -0.323,0.497 -2.677,0.497 -3,0 z"
   id="path16"
   inkscape:connector-curvature="0"
   style="fill:#eb7fa7;fill-rule:evenodd" />
        <path
   clip-rule="evenodd"
   d="m 64.6,133.985 c 0.691,0.809 0.106,2.894 0.3,4.2 -0.692,-0.809 -0.107,-2.893 -0.3,-4.2 z"
   id="path18"
   inkscape:connector-curvature="0"
   style="fill:#fadde8;fill-rule:evenodd" />
        <path
   clip-rule="evenodd"
   d="m 369.7,139.985 c 3.001,-0.698 7.299,-0.101 10.8,-0.3 -3.001,0.699 -7.299,0.101 -10.8,0.3 z"
   id="path20"
   inkscape:connector-curvature="0"
   style="fill:#eb7fa7;fill-rule:evenodd" />
        <path
   clip-rule="evenodd"
   d="m 277.3,142.385 c 0.514,0.687 2.29,0.11 3.3,0.3 0,0.1 0,0.2 0,0.3 -1.063,-0.118 -4.988,0.388 -3.3,-0.6 z"
   id="path22"
   inkscape:connector-curvature="0"
   style="fill:#eb7fa7;fill-rule:evenodd" />
        <path
   clip-rule="evenodd"
   d="m 65.2,150.485 c 0.692,0.908 0.105,3.094 0.3,4.5 -0.692,-0.907 -0.105,-3.094 -0.3,-4.5 z"
   id="path24"
   inkscape:connector-curvature="0"
   style="fill:#fadde8;fill-rule:evenodd" />
        <path
   clip-rule="evenodd"
   d="m 441.7,156.185 c -0.19,1.01 0.387,2.787 -0.3,3.3 0.19,-1.01 -0.386,-2.786 0.3,-3.3 z"
   id="path26"
   inkscape:connector-curvature="0"
   style="fill:#f8bed5;fill-rule:evenodd" />
        <path
   clip-rule="evenodd"
   d="m 65.5,158.885 c 0.692,0.908 0.106,3.094 0.3,4.5 -0.692,-0.907 -0.106,-3.094 -0.3,-4.5 z"
   id="path28"
   inkscape:connector-curvature="0"
   style="fill:#fadde8;fill-rule:evenodd" />
        <path
   clip-rule="evenodd"
   d="m 65.8,167.285 c 0.692,0.908 0.106,3.094 0.3,4.5 -0.692,-0.908 -0.106,-3.094 -0.3,-4.5 z"
   id="path30"
   inkscape:connector-curvature="0"
   style="fill:#fadde8;fill-rule:evenodd" />
        <path
   clip-rule="evenodd"
   d="m 244.3,173.585 c 1.109,-0.499 4.292,-0.499 5.4,0 -1.8,0 -3.6,0 -5.4,0 z"
   id="path32"
   inkscape:connector-curvature="0"
   style="fill:#eb7fa7;fill-rule:evenodd" />
        <path
   clip-rule="evenodd"
   d="m 66.1,175.685 c 0.693,1.007 0.105,3.295 0.3,4.8 -0.693,-1.006 -0.105,-3.295 -0.3,-4.8 z"
   id="path34"
   inkscape:connector-curvature="0"
   style="fill:#fadde8;fill-rule:evenodd" />
        <path
   clip-rule="evenodd"
   d="m 440.8,186.485 c 0.191,-1.108 -0.389,-2.988 0.3,-3.6 -0.192,1.109 0.388,2.989 -0.3,3.6 z"
   id="path36"
   inkscape:connector-curvature="0"
   style="fill:#fadde8;fill-rule:evenodd" />
        <path
   clip-rule="evenodd"
   d="m 66.4,184.385 c 0.692,0.908 0.106,3.094 0.3,4.5 -0.692,-0.907 -0.106,-3.094 -0.3,-4.5 z"
   id="path38"
   inkscape:connector-curvature="0"
   style="fill:#fadde8;fill-rule:evenodd" />
        <path
   clip-rule="evenodd"
   d="m 214.9,185.285 c 0,1.4 0,2.8 0,4.2 -0.498,-0.714 -0.498,-3.486 0,-4.2 z"
   id="path40"
   inkscape:connector-curvature="0"
   style="fill:#f8bed5;fill-rule:evenodd" />
        <path
   clip-rule="evenodd"
   d="m 66.7,192.785 c 0.692,0.908 0.105,3.094 0.3,4.5 -0.692,-0.908 -0.105,-3.094 -0.3,-4.5 z"
   id="path42"
   inkscape:connector-curvature="0"
   style="fill:#fadde8;fill-rule:evenodd" />
        <path
   clip-rule="evenodd"
   d="m 67,201.185 c 0.692,0.908 0.106,3.094 0.3,4.5 -0.692,-0.908 -0.106,-3.094 -0.3,-4.5 z"
   id="path44"
   inkscape:connector-curvature="0"
   style="fill:#fadde8;fill-rule:evenodd" />
        <path
   clip-rule="evenodd"
   d="m 255.4,209.585 c 0.416,-0.684 2.088,-0.112 3,-0.3 0,0.1 0,0.2 0,0.3 -1,0 -2,0 -3,0 z"
   id="path46"
   inkscape:connector-curvature="0"
   style="fill:#eb7fa7;fill-rule:evenodd" />
        <path
   clip-rule="evenodd"
   d="m 67.3,209.585 c 0.692,0.908 0.106,3.094 0.3,4.5 -0.692,-0.908 -0.106,-3.094 -0.3,-4.5 z"
   id="path48"
   inkscape:connector-curvature="0"
   style="fill:#fadde8;fill-rule:evenodd" />
        <path
   clip-rule="evenodd"
   d="m 247.6,209.885 c 0.416,-0.684 2.088,-0.112 3,-0.3 0,0.1 0,0.2 0,0.3 -1,0 -2,0 -3,0 z"
   id="path50"
   inkscape:connector-curvature="0"
   style="fill:#eb7fa7;fill-rule:evenodd" />
        <path
   clip-rule="evenodd"
   d="m 67.6,217.985 c 0.692,0.908 0.105,3.095 0.3,4.5 -0.692,-0.907 -0.106,-3.094 -0.3,-4.5 z"
   id="path52"
   inkscape:connector-curvature="0"
   style="fill:#fadde8;fill-rule:evenodd" />
        <path
   clip-rule="evenodd"
   d="m 67.9,226.385 c 0.692,0.908 0.106,3.094 0.3,4.5 -0.692,-0.907 -0.106,-3.094 -0.3,-4.5 z"
   id="path54"
   inkscape:connector-curvature="0"
   style="fill:#fadde8;fill-rule:evenodd" />
        <path
   clip-rule="evenodd"
   d="m 172.3,227.585 c -1.705,0.5 -5.495,0.5 -7.2,0 2.4,0 4.8,0 7.2,0 z"
   id="path56"
   inkscape:connector-curvature="0"
   style="fill:#eb7fa7;fill-rule:evenodd" />
        <path
   clip-rule="evenodd"
   d="m 439.6,230.885 c 0.188,-0.912 -0.384,-2.583 0.301,-3 -0.189,0.912 0.383,2.584 -0.301,3 z"
   id="path58"
   inkscape:connector-curvature="0"
   style="fill:#fadde8;fill-rule:evenodd" />
        <path
   clip-rule="evenodd"
   d="m 68.2,234.785 c 0.692,0.908 0.105,3.094 0.3,4.5 -0.692,-0.908 -0.105,-3.094 -0.3,-4.5 z"
   id="path60"
   inkscape:connector-curvature="0"
   style="fill:#fadde8;fill-rule:evenodd" />
        <path
   clip-rule="evenodd"
   d="m 360.7,247.085 c -0.5,-2.603 -0.5,-7.297 0,-9.899 0,3.298 0,6.599 0,9.899 z"
   id="path62"
   inkscape:connector-curvature="0"
   style="fill:#eb7fa7;fill-rule:evenodd" />
        <path
   clip-rule="evenodd"
   d="m 439.3,241.984 c 0.188,-0.911 -0.384,-2.584 0.3,-3 -0.188,0.912 0.384,2.585 -0.3,3 z"
   id="path64"
   inkscape:connector-curvature="0"
   style="fill:#fadde8;fill-rule:evenodd" />
        <path
   clip-rule="evenodd"
   d="m 68.5,243.186 c 0.692,0.907 0.106,3.094 0.3,4.5 -0.692,-0.909 -0.106,-3.095 -0.3,-4.5 z"
   id="path66"
   inkscape:connector-curvature="0"
   style="fill:#fadde8;fill-rule:evenodd" />
        <path
   clip-rule="evenodd"
   d="m 439,253.085 c 0.188,-0.911 -0.384,-2.584 0.3,-3 -0.188,0.912 0.384,2.584 -0.3,3 z"
   id="path68"
   inkscape:connector-curvature="0"
   style="fill:#fadde8;fill-rule:evenodd" />
        <path
   clip-rule="evenodd"
   d="m 110.2,250.385 c 0.684,0.416 0.112,2.088 0.3,3 -0.684,-0.416 -0.112,-2.088 -0.3,-3 z"
   id="path70"
   inkscape:connector-curvature="0"
   style="fill:#eb7fa7;fill-rule:evenodd" />
        <path
   clip-rule="evenodd"
   d="m 68.8,251.585 c 0.692,0.907 0.106,3.095 0.3,4.5 -0.692,-0.907 -0.106,-3.095 -0.3,-4.5 z"
   id="path72"
   inkscape:connector-curvature="0"
   style="fill:#fadde8;fill-rule:evenodd" />
        <path
   clip-rule="evenodd"
   d="m 153.4,284.885 c 0,-8.9 0,-17.8 0,-26.699 0.588,0.412 0.162,1.838 0.6,2.399 -0.899,7.4 0.299,16.899 -0.6,24.3 z"
   id="path74"
   inkscape:connector-curvature="0"
   style="fill:#eb7fa7;fill-rule:evenodd" />
        <path
   clip-rule="evenodd"
   d="m 69.1,259.984 c 0.692,0.908 0.105,3.096 0.3,4.5 -0.692,-0.906 -0.106,-3.093 -0.3,-4.5 z"
   id="path76"
   inkscape:connector-curvature="0"
   style="fill:#fadde8;fill-rule:evenodd" />
        <path
   clip-rule="evenodd"
   d="m 69.4,268.686 c 0.692,0.907 0.106,3.094 0.3,4.5 -0.692,-0.909 -0.106,-3.095 -0.3,-4.5 z"
   id="path78"
   inkscape:connector-curvature="0"
   style="fill:#fadde8;fill-rule:evenodd" />
        <path
   clip-rule="evenodd"
   d="m 69.7,277.085 c 0.692,0.907 0.105,3.095 0.3,4.5 -0.692,-0.907 -0.105,-3.095 -0.3,-4.5 z"
   id="path80"
   inkscape:connector-curvature="0"
   style="fill:#fadde8;fill-rule:evenodd" />
        <path
   clip-rule="evenodd"
   d="m 70,285.484 c 0.692,0.908 0.106,3.096 0.3,4.5 -0.692,-0.906 -0.106,-3.093 -0.3,-4.5 z"
   id="path82"
   inkscape:connector-curvature="0"
   style="fill:#fadde8;fill-rule:evenodd" />
        <path
   clip-rule="evenodd"
   d="m 70.3,293.885 c 0.692,0.908 0.106,3.094 0.3,4.5 -0.692,-0.908 -0.106,-3.094 -0.3,-4.5 z"
   id="path84"
   inkscape:connector-curvature="0"
   style="fill:#fadde8;fill-rule:evenodd" />
        <path
   clip-rule="evenodd"
   d="m 70.6,302.285 c 0.692,0.908 0.105,3.094 0.3,4.5 -0.692,-0.908 -0.106,-3.094 -0.3,-4.5 z"
   id="path86"
   inkscape:connector-curvature="0"
   style="fill:#fadde8;fill-rule:evenodd" />
        <path
   clip-rule="evenodd"
   d="m 199.6,317.285 c 0.199,-4.102 -0.399,-8.998 0.3,-12.6 -0.199,4.1 0.399,8.999 -0.3,12.6 z"
   id="path88"
   inkscape:connector-curvature="0"
   style="fill:#ef5694;fill-rule:evenodd" />
        <path
   clip-rule="evenodd"
   d="m 70.9,310.686 c 0.692,0.906 0.106,3.094 0.3,4.5 -0.692,-0.909 -0.106,-3.096 -0.3,-4.5 z"
   id="path90"
   inkscape:connector-curvature="0"
   style="fill:#fadde8;fill-rule:evenodd" />
        <path
   clip-rule="evenodd"
   d="m 115,316.984 c 0.695,1.305 0.104,3.896 0.3,5.701 -0.695,-1.304 -0.104,-3.896 -0.3,-5.701 z"
   id="path92"
   inkscape:connector-curvature="0"
   style="fill:#eb7fa7;fill-rule:evenodd" />
        <path
   clip-rule="evenodd"
   d="m 71.2,319.086 c 0.692,0.906 0.105,3.094 0.3,4.5 -0.692,-0.908 -0.105,-3.096 -0.3,-4.5 z"
   id="path94"
   inkscape:connector-curvature="0"
   style="fill:#fadde8;fill-rule:evenodd" />
        <path
   clip-rule="evenodd"
   d="m 138.7,335.586 c 0.307,-2.449 -1.424,-10.484 -0.3,-12.602 -0.029,0.057 0.689,0.67 0.6,0.9 -0.699,3.302 -0.101,7.899 -0.3,11.702 z"
   id="path96"
   inkscape:connector-curvature="0"
   style="fill:#eb7fa7;fill-rule:evenodd" />
        <path
   clip-rule="evenodd"
   d="m 71.5,327.484 c 0.692,0.908 0.106,3.096 0.3,4.5 -0.692,-0.906 -0.106,-3.093 -0.3,-4.5 z"
   id="path98"
   inkscape:connector-curvature="0"
   style="fill:#fadde8;fill-rule:evenodd" />
        <path
   clip-rule="evenodd"
   d="m 71.8,338.586 c 0.69,0.709 0.107,2.691 0.3,3.898 -0.69,-0.709 -0.107,-2.691 -0.3,-3.898 z"
   id="path100"
   inkscape:connector-curvature="0"
   style="fill:#fadde8;fill-rule:evenodd" />
        <path
   clip-rule="evenodd"
   d="m 115,351.785 c 2.302,0.197 5.397,-0.396 7.2,0.301 -2.303,-0.199 -5.397,0.396 -7.2,-0.301 z"
   id="path102"
   inkscape:connector-curvature="0"
   style="fill:#eb7fa7;fill-rule:evenodd" />
        <path
   clip-rule="evenodd"
   d="m 301.9,377.885 c -0.497,-0.42 -0.497,-2.879 0,-3.299 0,1.1 0,2.199 0,3.299 z"
   id="path104"
   inkscape:connector-curvature="0"
   style="fill:#eb7fa7;fill-rule:evenodd" />
        <path
   clip-rule="evenodd"
   d="m 270.1,420.785 c 1.2,0 2.4,0 3.601,0 -0.518,0.498 -3.084,0.498 -3.601,0 z"
   id="path106"
   inkscape:connector-curvature="0"
   style="fill:#ef5694;fill-rule:evenodd" />
        <path
   clip-rule="evenodd"
   d="m 219.7,426.785 c 1,0 2,0 3,0 -0.324,0.496 -2.677,0.496 -3,0 z"
   id="path108"
   inkscape:connector-curvature="0"
   style="fill:#eb7fa7;fill-rule:evenodd" />
        <path
   clip-rule="evenodd"
   d="m 243.1,464.586 c 1,0 2,0 3,0 0.183,0.016 0.355,0.045 0.3,0.299 -1.01,-0.19 -2.787,0.386 -3.3,-0.299 z"
   id="path110"
   inkscape:connector-curvature="0"
   style="fill:#fadde8;fill-rule:evenodd" />
        <path
   clip-rule="evenodd"
   d="m 73,347.885 c 4.098,5.158 14.204,10.924 20.1,15 47.081,32.551 95.473,65.121 141.6,97.801 -49.603,-33.697 -99.837,-69.65 -150.6,-103.5 -4.406,-2.94 -9.054,-5.219 -11.1,-9.301 z"
   id="path112"
   inkscape:connector-curvature="0"
   style="fill:#fadde8;fill-rule:evenodd" />
        <path
   clip-rule="evenodd"
   d="m 122.8,121.385 c -0.625,-1.624 3.152,-3.776 4.5,-5.4 -1.423,1.877 -3.376,3.224 -4.8,5.1 0.255,-0.055 0.283,0.117 0.3,0.3 z"
   id="path114"
   inkscape:connector-curvature="0"
   style="fill:#eb7fa7;fill-rule:evenodd" />
        <path
   clip-rule="evenodd"
   d="m 439.3,135.785 c 0.056,0.255 -0.117,0.283 -0.3,0.3 -54.853,31.04 -109.76,64.078 -165,95.101 -7.878,4.424 -16.287,8.358 -23.7,13.199 -1.914,1.25 -3.582,2.656 -4.5,5.4 -60.305,-41.295 -119.866,-83.334 -179.7,-125.1 6.39,-6.28 14.683,-10.31 22.5,-14.7 51.095,-28.694 101.736,-58.384 153.3,-87.3 3.607,-2.023 9.286,-5.842 12.3,-6 3.914,-0.205 8.45,3.361 12.899,6.3 49.489,32.681 99.328,64.94 149.101,96.9 3.388,2.175 7.592,4.628 11.7,7.2 4.617,2.891 9.598,4.89 11.4,8.7 z m -316.5,-14.4 c 2.295,1.469 4.988,0.773 7.8,1.5 3.022,0.78 6.094,3.253 9.3,4.2 3.593,1.061 7.465,0.312 9.3,3 -5.316,0.439 -8.812,-1.166 -12.3,-2.1 -2.078,-0.556 -4.263,-0.599 -6,-1.2 -3.667,-1.269 -6.66,-4.562 -11.1,-3.6 -0.148,3.626 -1.695,7.154 -1.2,10.2 0.543,3.345 3.933,5.478 4.5,8.4 7.172,4.108 12.676,11.759 20.1,16.8 4.125,2.801 10.088,4.286 15.3,6.3 3.251,1.256 6.028,4.43 10.2,3.9 1.305,0.695 3.896,0.104 5.7,0.3 7.683,-0.686 15.909,0.136 20.7,-1.8 1.59,-0.643 3.239,-1.867 4.8,-2.7 5.345,-2.852 10.03,-5.659 13.8,-9.9 2.345,-2.639 4.754,-7.588 9.3,-7.5 1.8,0 3.6,0 5.4,0 4.558,1.427 6.401,8.495 4.5,12.9 -1.124,2.604 -4.554,3.481 -6.9,5.4 -6.017,4.92 -10.677,12.084 -11.1,19.8 -0.498,0.713 -0.498,3.486 0,4.2 3.893,11.807 16.304,15.096 26.7,20.4 0.812,0.498 3.688,0.498 4.5,0 0.5,0 1,0 1.5,0 1,0 2,0 3,0 1.011,-0.19 2.787,0.386 3.301,-0.3 0.5,0 1,0 1.5,0 1,0 2,0 3,0 1.01,-0.19 2.786,0.387 3.3,-0.3 4.416,0.348 6.526,-1.29 9.6,-2.4 2.181,-0.788 4.344,-1.694 6.3,-2.4 4.459,-1.608 9.307,-2.434 12.9,-4.2 2.978,-1.463 5.779,-3.869 8.7,-5.7 9.033,-5.664 18.049,-11.689 26.7,-17.1 2.351,-4.949 5.149,-9.45 7.8,-14.1 4.024,-3.775 7.925,-7.675 11.7,-11.7 8.16,-3.839 16.162,-7.837 24.3,-11.7 3.501,-0.199 7.799,0.399 10.8,-0.3 2.523,-3.077 7.713,-3.487 7.2,-9.6 -1.375,-1.625 -2.875,-3.125 -4.5,-4.5 -7.549,-1.093 -15.698,-2.628 -22.8,-3.6 -7.635,-1.044 -15.074,-2.207 -20.7,-5.1 -5.185,-2.666 -8.834,-8.604 -12,-13.5 -1.427,-2.206 -3.235,-4.086 -3.9,-6 -1.127,-3.248 -0.338,-6.642 -1.8,-10.5 -0.784,-2.072 -5.077,-8.012 -6.6,-9.3 -2.176,-1.84 -6.115,-3.611 -9.301,-5.4 -9.497,-5.334 -20.299,-9.648 -29.399,-15 -5.869,-3.452 -9.541,-8.142 -16.8,-9 -1.705,-0.499 -5.495,-0.499 -7.2,0 -4.716,1.458 -8.194,1.292 -11.4,2.7 -2.463,1.082 -7.559,5.065 -9.3,6.9 -4.659,4.908 -6.684,12.33 -13.2,14.7 -3.049,1.109 -6.549,0.637 -10.5,1.5 -4.601,0.2 -9.999,-0.399 -14.1,0.3 -3.094,1.695 -6.033,1.621 -8.7,3.3 -5.768,3.632 -8.748,11.806 -14.7,15 -8.449,4.535 -20.101,3.306 -27.3,7.8 -6.434,4.017 -11.378,10.305 -16.2,15.6 -1.349,1.624 -5.126,3.776 -4.501,5.4 z"
   id="path116"
   inkscape:connector-curvature="0"
   style="fill:#fadde8;fill-rule:evenodd" />
        <path
   clip-rule="evenodd"
   d="m 333.7,163.385 c 3.774,-4.025 7.675,-7.925 11.7,-11.7 -3.775,4.025 -7.675,7.925 -11.7,11.7 z"
   id="path118"
   inkscape:connector-curvature="0"
   style="fill:#f8bed5;fill-rule:evenodd" />
        <path
   clip-rule="evenodd"
   d="m 387.7,130.085 c 0.513,6.113 -4.677,6.523 -7.2,9.6 -3.501,0.199 -7.799,-0.398 -10.8,0.3 -8.138,3.863 -16.14,7.861 -24.3,11.7 -4.025,3.775 -7.926,7.675 -11.7,11.7 -2.65,4.65 -5.449,9.15 -7.8,14.1 -8.651,5.411 -17.667,11.437 -26.7,17.1 -2.921,1.832 -5.723,4.237 -8.7,5.7 -3.594,1.766 -8.441,2.592 -12.9,4.2 -1.956,0.706 -4.119,1.612 -6.3,2.4 -3.073,1.11 -5.184,2.748 -9.6,2.4 -1.101,0 -2.2,0 -3.3,0 -0.912,0.188 -2.584,-0.384 -3,0.3 -0.5,0 -1,0 -1.5,0 -1.101,0 -2.2,0 -3.301,0 -0.912,0.188 -2.583,-0.384 -3,0.3 -0.5,0 -1,0 -1.5,0 -1.5,0 -3,0 -4.5,0 -10.396,-5.304 -22.807,-8.593 -26.7,-20.4 0,-1.4 0,-2.8 0,-4.2 0.423,-7.716 5.083,-14.88 11.1,-19.8 2.346,-1.918 5.776,-2.795 6.9,-5.4 1.901,-4.405 0.058,-11.473 -4.5,-12.9 -1.108,-0.499 -4.292,-0.499 -5.4,0 -4.546,-0.088 -6.955,4.861 -9.3,7.5 -3.77,4.241 -8.455,7.048 -13.8,9.9 -1.561,0.833 -3.21,2.058 -4.8,2.7 -4.792,1.936 -13.017,1.114 -20.7,1.8 -1.305,-0.695 -3.896,-0.104 -5.7,-0.3 -4.172,0.53 -6.949,-2.644 -10.2,-3.9 -5.211,-2.014 -11.174,-3.499 -15.3,-6.3 -7.424,-5.041 -12.928,-12.691 -20.1,-16.8 -0.567,-2.922 -3.957,-5.055 -4.5,-8.4 -0.495,-3.046 1.052,-6.574 1.2,-10.2 4.44,-0.962 7.434,2.332 11.1,3.6 1.737,0.601 3.922,0.644 6,1.2 3.488,0.934 6.984,2.539 12.3,2.1 -1.835,-2.688 -5.708,-1.939 -9.3,-3 -3.206,-0.946 -6.277,-3.419 -9.3,-4.2 -2.812,-0.727 -5.505,-0.031 -7.8,-1.5 -0.017,-0.183 -0.044,-0.355 -0.3,-0.3 1.423,-1.876 3.376,-3.223 4.8,-5.1 4.822,-5.294 9.766,-11.583 16.2,-15.6 7.199,-4.494 18.851,-3.266 27.3,-7.8 5.952,-3.194 8.933,-11.368 14.7,-15 2.667,-1.679 5.606,-1.604 8.7,-3.3 4.601,-0.199 9.999,0.399 14.1,-0.3 3.951,-0.863 7.451,-0.391 10.5,-1.5 6.517,-2.37 8.541,-9.792 13.2,-14.7 1.741,-1.834 6.837,-5.818 9.3,-6.9 3.207,-1.408 6.685,-1.242 11.4,-2.7 2.399,0 4.8,0 7.2,0 7.259,0.858 10.931,5.548 16.8,9 9.101,5.352 19.902,9.666 29.399,15 3.186,1.789 7.125,3.56 9.301,5.4 1.522,1.288 5.815,7.229 6.6,9.3 1.462,3.858 0.673,7.252 1.8,10.5 0.665,1.914 2.474,3.794 3.9,6 3.166,4.896 6.815,10.834 12,13.5 5.626,2.893 13.065,4.056 20.7,5.1 7.102,0.972 15.251,2.507 22.8,3.6 1.376,1.625 2.876,3.125 4.501,4.5 z m -132.6,-67.5 c 0.771,0.05 1.9,1.273 2.4,0.6 -0.476,-0.345 -1.605,-1.568 -2.4,-0.6 z m 5.4,6.3 c -0.428,-2.273 -1.583,-3.817 -3,-5.1 0.439,3.46 1.089,6.711 3,8.7 0,0.2 0,0.4 0,0.6 0,4.9 0,9.8 0,14.7 0.054,1.364 -1.069,3.117 -0.3,4.2 1.295,-2.305 2.612,-4.587 3,-7.8 0.498,-0.812 0.498,-3.688 0,-4.5 0.267,-2.967 -0.865,-4.535 -2.101,-6 0,-0.1 0,-0.2 0,-0.3 -0.817,-0.882 0.239,-3.637 -0.599,-4.5 z m 28.2,7.5 c 3.788,2.812 6.849,6.351 12,7.8 -4.661,-3.939 -6.551,-13.25 -17.101,-12.3 -1.539,1.192 -6.37,2.187 -5.1,4.2 0.2,0 0.4,0 0.6,0 2.603,0.698 6.5,0.102 9.601,0.3 z m -69.3,3.3 c -0.882,7.183 6.346,7.853 11.1,8.4 -2.584,-3.916 -7.218,-5.782 -11.1,-8.4 z m 11.7,9.3 c 1.827,1.076 3.985,3.412 7.2,2.1 -2.761,-0.142 -4.652,-2.744 -7.2,-2.1 z m -6.6,9.6 c -6.91,-0.71 -10.769,1.631 -11.7,6.9 -0.499,1.109 -0.499,4.292 0,5.4 -0.066,2.466 0.543,4.256 1.2,6 8.842,0.758 13.331,5.869 15.9,12.9 -0.715,-0.137 -2.182,-2.207 -2.4,-0.9 0.434,1.84 -1.045,4.876 0.6,6.6 1.975,1.368 6.425,1.146 8.1,-0.3 0.087,-2.412 0.419,-4.581 1.2,-6.3 2.868,-2.833 10.354,-1.047 13.2,-3.9 2.618,-7.939 -3.539,-11.972 -7.8,-15 -0.874,-1.125 -1.874,-2.125 -3,-3 -3.32,-3.479 -6.647,-6.952 -12,-8.4 -0.42,-0.497 -2.88,-0.497 -3.3,0 z m 47.4,14.4 c 4.833,-5.267 12.917,-7.282 16.8,-13.5 -10.377,-0.476 -13.222,8.177 -16.8,13.5 z m -1.2,0.9 c -0.12,0.78 -0.896,0.905 -0.9,1.8 0.878,0.154 1.592,-1.377 0.9,-1.8 z m -105.3,-14.1 c -0.066,-0.234 -0.251,-0.349 -0.6,-0.3 0.084,1.022 2.218,2.578 3.3,3.6 1.625,-0.025 2.494,0.706 4.2,0.6 3.741,7.959 9.487,15.513 18.9,16.8 -4.057,-1.237 -4.992,-5.493 -7.5,-8.1 -1.039,-1.08 -2.68,-1.556 -3.9,-2.7 -4.472,-4.194 -7.18,-9.087 -14.4,-9.9 z m 111.9,42.6 c 5.298,-2.64 7.186,-8.898 11.4,-12.6 2.382,-2.092 5.618,-3.545 7.8,-6 1.367,-1.538 2.112,-3.585 3.3,-5.4 -4.275,1.681 -5.256,5.907 -8.399,8.4 -4.585,3.634 -10.731,5.542 -13.801,10.8 -0.445,1.854 -1.46,3.14 -2.699,4.2 -2.367,0.033 -3.068,1.732 -5.4,1.8 -6.4,0 -12.8,0 -19.2,0 -0.527,0.173 -1.762,-0.362 -1.8,0.3 1.205,0.611 2.873,0.914 2.1,2.7 3.233,1.368 8.977,0.224 13.2,0.6 0.561,0.939 0.915,2.085 1.5,3 0.052,-0.449 -0.106,-1.107 0.3,-1.2 5.971,1.914 8.815,5.779 13.5,9.6 6.289,5.128 11.887,7.23 14.4,15 1.421,-0.121 2.064,0.536 3.6,0.3 -1.137,-3.658 -3.461,-6.248 -5.399,-8.7 -0.759,-0.959 -1.347,-2.229 -2.101,-3 -2.329,-2.386 -5.39,-2.91 -8.399,-4.5 -5.185,-2.738 -8.735,-7.439 -13.2,-10.2 5.801,-0.899 13.699,0.299 19.5,-0.6 5.705,0.104 11.16,-0.04 13.5,-3.3 -0.081,-1.019 0.232,-2.432 -0.3,-3 -4.518,-0.898 -7.616,2.169 -12.3,2.1 -2.601,0 -5.2,0 -7.801,0 -1.011,-0.19 -2.788,0.387 -3.301,-0.3 z m 27.9,-20.7 c 3.763,2.038 9.285,3.914 12.3,5.7 -2.222,-2.879 -4.014,-6.186 -9.3,-6 -0.37,-0.575 -4.883,-0.493 -3,0.3 z m 18,9 c -1.939,-0.761 -4.167,-1.233 -5.4,-2.7 0.57,1.13 1.062,2.337 2.4,2.7 0.323,0.497 2.677,0.497 3,0 z m -150.9,7.5 c 0.705,-3.996 1.553,-9.446 2.7,-12 -4.398,3.901 -5.566,11.034 -13.2,11.7 -1.306,0.193 -3.391,-0.392 -4.2,0.3 4.395,0.306 10.363,0.635 14.7,0 z m 152.7,-6.9 c 1.871,0.753 3.375,-0.069 4.5,-0.9 -1.041,-0.241 -1.153,0.447 -2.1,0.3 -1.109,0.191 -2.989,-0.389 -3.601,0.3 0.407,0.095 0.574,0.427 1.201,0.3 z m -136.5,26.4 c 4.123,-5.678 3.55,-16.05 10.5,-18.9 0.299,-1.477 0.613,-4.283 0,-5.7 -5.875,1.925 -9.66,5.94 -10.8,12.6 -0.897,2.803 0.297,7.697 -0.6,10.5 -0.25,-1.45 -0.837,-2.562 -1.5,-3.6 0.199,3.401 -0.398,7.599 0.3,10.5 0.301,-1.798 1.788,-2.412 1.5,-4.8 0.337,-0.063 0.467,-0.333 0.6,-0.6 z m -7.5,-14.1 c 2.413,1.487 4.336,3.464 4.8,6.9 0.514,3.297 0.313,-5.592 0,-6.3 -2.199,-2 -3.796,-4.603 -6.3,-6.3 -0.319,2.719 1.349,3.451 1.5,5.7 z m 138.9,3.9 c -2.93,0.271 -3.379,3.021 -5.4,4.2 -1.95,0.35 -4.117,0.483 -5.7,1.2 4.873,3.111 11.044,-0.03 11.1,-5.4 z m -75.3,25.2 c -2.361,-0.061 -3.872,0.728 -5.4,1.5 -3.603,4.798 2.075,6.978 2.1,11.7 -0.611,-0.088 -0.588,-0.812 -1.2,-0.9 0.294,1.306 0.346,2.854 0.9,3.9 0.462,-0.938 -0.017,-2.817 1.2,-3 1.053,-0.555 0.702,-4.088 0.3,-5.1 0.078,-2.849 -0.798,-6.295 1.8,-7.2 1.8,0 3.6,0 5.4,0 7.795,-1.095 8.186,5.214 11.399,8.7 1.942,-6.403 -3.263,-10.692 -10.5,-9.9 -1.902,0.197 -4.595,-0.395 -5.999,0.3 z"
   id="path120"
   inkscape:connector-curvature="0"
   style="fill:#ef5694;fill-rule:evenodd" />
        <path
   clip-rule="evenodd"
   d="m 383.2,125.585 c 1.625,1.375 3.125,2.875 4.5,4.5 -1.625,-1.375 -3.125,-2.875 -4.5,-4.5 z"
   id="path122"
   inkscape:connector-curvature="0"
   style="fill:#eb7fa7;fill-rule:evenodd" />
        <path
   clip-rule="evenodd"
   d="m 260.5,68.885 c 0.838,0.862 -0.218,3.618 0.6,4.5 -0.242,-0.057 -0.299,-0.301 -0.6,-0.3 0,-0.2 0,-0.4 0,-0.6 0,-1.2 0,-2.4 0,-3.6 z"
   id="path124"
   inkscape:connector-curvature="0"
   style="fill:#eb7fa7;fill-rule:evenodd" />
        <path
   clip-rule="evenodd"
   d="m 260.5,72.485 c -1.911,-1.989 -2.561,-5.239 -3,-8.7 1.417,1.283 2.572,2.827 3,5.1 0,1.2 0,2.4 0,3.6 z"
   id="path126"
   inkscape:connector-curvature="0"
   style="fill:#fadde8;fill-rule:evenodd" />
        <path
   clip-rule="evenodd"
   d="m 279.1,76.085 c -0.199,0 -0.399,0 -0.6,0 -1.271,-2.013 3.561,-3.008 5.1,-4.2 10.55,-0.95 12.439,8.36 17.101,12.3 -5.151,-1.449 -8.212,-4.988 -12,-7.8 -2.603,-0.698 -6.5,-0.101 -9.601,-0.3 z"
   id="path128"
   inkscape:connector-curvature="0"
   style="fill:#fadde8;fill-rule:evenodd" />
        <path
   clip-rule="evenodd"
   d="m 230.5,88.085 c -4.754,-0.547 -11.982,-1.217 -11.1,-8.4 3.882,2.618 8.516,4.484 11.1,8.4 z"
   id="path130"
   inkscape:connector-curvature="0"
   style="fill:#fadde8;fill-rule:evenodd" />
        <path
   clip-rule="evenodd"
   d="m 242.8,109.985 c 4.261,3.028 10.418,7.061 7.8,15 -2.846,2.854 -10.332,1.068 -13.2,3.9 -0.78,1.719 -1.112,3.888 -1.2,6.3 -1.675,1.445 -6.125,1.667 -8.1,0.3 -1.646,-1.724 -0.166,-4.759 -0.6,-6.6 0.218,-1.307 1.685,0.763 2.4,0.9 -2.569,-7.031 -7.058,-12.142 -15.9,-12.9 -0.657,-1.744 -1.266,-3.534 -1.2,-6 0,-1.8 0,-3.6 0,-5.4 0.932,-5.269 4.79,-7.61 11.7,-6.9 1.1,0 2.2,0 3.3,0 5.353,1.448 8.68,4.92 12,8.4 0.874,1.126 1.874,2.126 3,3 z"
   id="path132"
   inkscape:connector-curvature="0"
   style="fill:#fadde8;fill-rule:evenodd" />
        <path
   clip-rule="evenodd"
   d="m 239.8,106.985 c 1.126,0.875 2.126,1.875 3,3 -1.126,-0.874 -2.126,-1.874 -3,-3 z"
   id="path134"
   inkscape:connector-curvature="0"
   style="fill:#f8bed5;fill-rule:evenodd" />
        <path
   clip-rule="evenodd"
   d="m 288.7,99.485 c -3.883,6.218 -11.967,8.233 -16.8,13.5 3.578,-5.323 6.423,-13.976 16.8,-13.5 z"
   id="path136"
   inkscape:connector-curvature="0"
   style="fill:#fadde8;fill-rule:evenodd" />
        <path
   clip-rule="evenodd"
   d="m 168.1,103.085 c -1.083,-1.022 -3.216,-2.578 -3.3,-3.6 0.349,-0.049 0.534,0.066 0.6,0.3 -0.166,0.975 2.12,2.074 2.7,3.3 z"
   id="path138"
   inkscape:connector-curvature="0"
   style="fill:#eb7fa7;fill-rule:evenodd" />
        <path
   clip-rule="evenodd"
   d="m 165.4,99.785 c 7.22,0.812 9.928,5.706 14.4,9.9 1.221,1.145 2.861,1.62 3.9,2.7 2.508,2.607 3.443,6.862 7.5,8.1 -9.414,-1.287 -15.159,-8.84 -18.9,-16.8 -1.706,0.105 -2.575,-0.625 -4.2,-0.6 -0.58,-1.226 -2.866,-2.325 -2.7,-3.3 z"
   id="path140"
   inkscape:connector-curvature="0"
   style="fill:#fadde8;fill-rule:evenodd" />
        <path
   clip-rule="evenodd"
   d="m 269.8,115.685 c 0.005,-0.895 0.78,-1.02 0.9,-1.8 0.692,0.423 -0.022,1.954 -0.9,1.8 z"
   id="path142"
   inkscape:connector-curvature="0"
   style="fill:#de9eb9;fill-rule:evenodd" />
        <path
   clip-rule="evenodd"
   d="m 250.6,146.585 c 3.713,0.888 9.491,-0.291 13.2,0.6 -4.224,-0.376 -9.967,0.768 -13.2,-0.6 z"
   id="path144"
   inkscape:connector-curvature="0"
   style="fill:#eb7fa7;fill-rule:evenodd" />
        <path
   clip-rule="evenodd"
   d="m 269.5,143.585 c 2.332,-0.068 3.033,-1.767 5.4,-1.8 1.239,-1.06 2.254,-2.346 2.699,-4.2 3.069,-5.258 9.216,-7.166 13.801,-10.8 3.144,-2.493 4.124,-6.719 8.399,-8.4 -1.188,1.814 -1.933,3.862 -3.3,5.4 -2.182,2.455 -5.418,3.908 -7.8,6 -4.215,3.702 -6.103,9.96 -11.4,12.6 -1.688,0.988 2.237,0.481 3.3,0.6 2.503,-0.198 5.798,0.397 7.801,-0.3 4.684,0.069 7.782,-2.998 12.3,-2.1 0.532,0.568 0.219,1.981 0.3,3 -2.34,3.261 -7.795,3.405 -13.5,3.3 -6.8,0 -13.6,0 -20.4,0 0.221,0.28 0.546,0.454 0.9,0.6 4.465,2.761 8.016,7.462 13.2,10.2 3.01,1.59 6.07,2.114 8.399,4.5 0.754,0.771 1.342,2.041 2.101,3 1.938,2.453 4.263,5.042 5.399,8.7 -1.535,0.235 -2.179,-0.421 -3.6,-0.3 -2.514,-7.77 -8.111,-9.872 -14.4,-15 -4.685,-3.821 -7.529,-7.687 -13.5,-9.6 -0.406,0.093 -0.248,0.751 -0.3,1.2 -0.585,-0.915 -0.939,-2.061 -1.5,-3 -3.709,-0.891 -9.487,0.288 -13.2,-0.6 0.773,-1.786 -0.895,-2.088 -2.1,-2.7 0.038,-0.663 1.272,-0.127 1.8,-0.3 5.702,0.5 13.5,0.5 19.201,0 z"
   id="path146"
   inkscape:connector-curvature="0"
   style="fill:#fadde8;fill-rule:evenodd" />
        <path
   clip-rule="evenodd"
   d="m 305.2,121.685 c 0.416,-0.684 2.088,-0.112 3,-0.3 5.286,-0.186 7.078,3.121 9.3,6 -3.015,-1.786 -8.537,-3.662 -12.3,-5.7 z"
   id="path148"
   inkscape:connector-curvature="0"
   style="fill:#fadde8;fill-rule:evenodd" />
        <path
   clip-rule="evenodd"
   d="m 161.8,137.885 c 7.634,-0.667 8.802,-7.799 13.2,-11.7 -1.147,2.554 -1.995,8.004 -2.7,12 -3.401,-0.199 -7.598,0.398 -10.5,-0.3 z"
   id="path150"
   inkscape:connector-curvature="0"
   style="fill:#fadde8;fill-rule:evenodd" />
        <path
   clip-rule="evenodd"
   d="m 320.2,130.685 c -1.338,-0.363 -1.83,-1.57 -2.4,-2.7 1.233,1.467 3.461,1.939 5.4,2.7 -1,0 -2,0 -3,0 z"
   id="path152"
   inkscape:connector-curvature="0"
   style="fill:#fadde8;fill-rule:evenodd" />
        <path
   clip-rule="evenodd"
   d="m 188.2,145.685 c 1.14,-6.66 4.925,-10.675 10.8,-12.6 0.613,1.417 0.299,4.223 0,5.7 -6.95,2.85 -6.377,13.222 -10.5,18.9 -0.699,-3.401 -0.101,-8.099 -0.3,-12 z"
   id="path154"
   inkscape:connector-curvature="0"
   style="fill:#fadde8;fill-rule:evenodd" />
        <path
   clip-rule="evenodd"
   d="m 179.5,137.885 c 2.503,1.697 4.101,4.299 6.3,6.3 0.313,0.708 0.514,9.597 0,6.3 -0.464,-3.436 -2.387,-5.413 -4.8,-6.9 -0.151,-2.249 -1.819,-2.981 -1.5,-5.7 z"
   id="path156"
   inkscape:connector-curvature="0"
   style="fill:#fadde8;fill-rule:evenodd" />
        <path
   clip-rule="evenodd"
   d="m 308.8,152.885 c 1.583,-0.717 3.75,-0.851 5.7,-1.2 2.021,-1.179 2.471,-3.929 5.4,-4.2 -0.056,5.37 -6.227,8.511 -11.1,5.4 z"
   id="path158"
   inkscape:connector-curvature="0"
   style="fill:#fadde8;fill-rule:evenodd" />
        <path
   clip-rule="evenodd"
   d="m 207.1,415.385 c -5.928,-2.213 -11.704,-6.611 -17.7,-10.199 -5.703,-3.412 -11.99,-6.303 -17.1,-9.9 -2.746,-1.934 -5.417,-4.512 -8.1,-6.6 -2.82,-2.197 -6.197,-4.17 -8.4,-6.301 -1.873,-1.811 -3.4,-4.43 -5.1,-6.6 -3.38,-4.316 -6.253,-8.029 -10.5,-12.6 -1.386,-1.492 -5.462,-4.666 -5.7,-5.701 -0.533,-2.312 3.231,-10.93 4.2,-13.5 1.849,-4.906 3.395,-8.84 4.8,-12.6 1.5,-4.012 3.235,-8.607 4.5,-12.9 1.461,-4.957 1.263,-9.961 2.4,-15 0.979,-4.334 4.777,-7.225 6,-11.4 0.357,-1.217 -0.037,-2.754 0.3,-4.199 0.34,-1.461 1.339,-2.475 1.5,-3.6 1.288,-9.012 -4.675,-14.534 -4.2,-23.7 -0.438,-0.562 -0.012,-1.987 -0.6,-2.399 0,8.899 0,17.799 0,26.699 -1.946,5.453 -6.223,8.576 -7.8,14.4 -0.697,1.803 -0.103,4.896 -0.3,7.199 -0.92,11.902 -1.434,27.602 -7.5,35.4 -1.504,1.934 -3.536,3.404 -6,5.701 -2.904,2.705 -5.038,6.24 -9.6,4.5 -1.803,-0.697 -4.898,-0.104 -7.2,-0.301 -3.853,-0.84 -8.021,-3.701 -11.4,-7.199 -4.473,-4.631 -6.436,-9.941 -9,-17.102 -2.506,-6.996 -5.105,-13.17 -4.2,-23.1 0,-1 0,-2 0,-3 2.431,-16.936 6.566,-30.656 5.1,-47.699 -0.566,-6.58 -2.588,-13.646 -4.2,-20.101 -2.502,-10.017 -6,-18.755 -4.8,-31.8 0.507,-5.516 3.188,-10.461 3.6,-16.2 0.61,-8.503 -5.371,-19.732 0.9,-26.1 10.671,4.986 19.252,12.831 28.2,19.8 6.538,5.092 13.268,10.646 19.8,16.2 2.171,1.846 4.914,3.479 6.6,5.4 1.306,1.487 2.56,4.062 3.9,6 1.334,1.93 2.905,3.854 3.9,5.7 3.204,5.943 4.564,12.583 11.7,15 1.705,0.5 5.495,0.5 7.2,0 7.884,-5.491 15.595,-0.353 21.9,3.601 2.086,1.308 4.829,2.6 6.3,3.899 2.642,2.336 4.879,6.491 6.9,9.601 3.595,5.527 5.577,11.32 12,13.5 0.438,2.499 2.305,4.01 2.7,6 1.968,9.903 -2.763,19.41 -1.8,30.6 0.346,4.02 1.265,8.311 2.4,12 1.006,3.27 3.317,6.385 4.2,10.199 1.118,4.832 1.497,11.326 1.8,16.801 0.493,8.904 -0.051,17.48 -1.8,24.6 -0.537,2.184 -2.049,4.361 -2.4,6.6 -1.538,9.826 1.206,19.311 1.8,27.602 0.607,8.467 -0.043,17.016 1.8,25.199 -1.57,3.23 -1.498,8.102 -5.4,9 -1,0 -2,0 -3,0 -1.452,-0.949 -2.868,-1.932 -4.2,-3 -2.675,-2.926 -5.475,-5.724 -8.4,-8.4 z m -102,-203.1 c -0.449,0.051 -1.107,-0.107 -1.2,0.3 2.554,3.917 10.573,4.546 13.5,1.2 4.016,-4.591 2.913,-14.263 2.1,-20.7 -6.103,-1.667 -4.354,10.561 -6.3,14.4 0.7,-0.517 4.953,-1.264 5.1,1.2 -1.501,2.398 -4.271,3.528 -8.4,3.3 -1.505,0.195 -3.793,-0.393 -4.8,0.3 z m -3,-0.3 c 0.353,-0.047 0.852,0.052 0.9,-0.3 -0.871,-0.229 -0.778,-1.422 -2.1,-1.2 0.051,-0.75 -0.461,-0.939 -0.9,-1.2 -0.415,-0.502 -1.385,-1.992 -1.8,-1.5 0.722,0.578 0.996,1.604 1.8,2.1 0.574,0.826 1.274,1.527 2.1,2.1 z m -9.3,-15 c 1.613,2.687 1.859,6.741 4.2,8.7 -1.361,-2.939 -1.75,-6.85 -4.2,-8.7 z m 36.9,39.6 c 1.214,-7.542 4.422,-14.159 3.6,-22.8 -1.999,1.201 -3.376,3.024 -3.9,5.7 -0.699,5.201 -0.1,11.7 -0.3,17.4 0.085,1.285 -1.557,3.707 0,4.5 -0.232,-1.832 0.393,-2.807 0.3,-4.5 0.183,-0.017 0.355,-0.045 0.3,-0.3 z m -28.5,-4.8 c -0.523,-0.022 -0.933,0.066 -1.2,0.3 0.161,1.239 0.439,2.36 0.6,3.601 3.981,3.019 6.443,7.557 9.6,11.399 -1.088,-7.013 -4.473,-11.728 -9,-15.3 z m 11.1,21.6 c -0.703,-1.996 -0.892,-4.508 -2.1,-6 0,1 0,2 0,3 0.188,0.912 -0.384,2.584 0.3,3 -0.171,2.217 0.439,3.75 1.8,5.1 0,-0.299 0,-0.6 0,-0.899 0.498,-0.715 0.498,-3.487 0,-4.201 z m 56.7,4.2 c 1.707,-2.866 3.361,-8.048 1.8,-12.3 -0.594,1.405 -1.652,2.348 -1.8,4.199 -0.698,2.303 -0.102,5.898 -0.3,8.701 -0.839,3.48 -0.203,3.625 0.3,0 0,-0.201 0,-0.4 0,-0.6 z m -16.5,-5.399 c -0.142,-2.258 -0.824,-3.977 -1.8,-5.4 0.513,1.886 0.961,3.839 1.8,5.4 z m 24.6,45.298 c -0.072,0.428 -0.494,0.506 -0.6,0.9 1.054,-0.998 2.488,-2.508 3,-3.9 1.673,-4.551 1.431,-10.418 3.3,-15 0.612,-1.5 1.92,-4 3,-5.1 2.606,-2.651 7.498,-3.251 10.5,-5.699 2.474,-2.018 4.276,-4.373 5.1,-7.801 -6.746,4.954 -15.277,8.123 -21,14.1 -1.417,4.684 -2.555,9.645 -3.3,15 -0.499,1.805 -0.499,5.696 0,7.5 z m -5.1,3.6 c 2.293,0.295 3.008,-0.99 3.9,-2.1 -1.445,0.555 -2.954,1.047 -3.9,2.1 z m -47.7,-25.799 c -0.114,-2.003 -1.23,-6.414 -0.9,-2.4 0.076,0.917 0.625,2.111 0.6,3 0.708,0.492 0.337,2.062 0.9,2.7 2.094,16.606 10.092,27.308 13.2,42.899 -0.016,0.518 0.231,0.77 0.6,0.9 -0.199,-3.102 0.398,-6.998 -0.3,-9.6 -0.436,-15.564 -10.61,-21.391 -13.2,-34.801 -0.577,-0.622 -0.347,-2.05 -0.9,-2.698 z m -9,47.401 c 0.153,0.746 -0.01,1.809 0.9,1.799 1.138,-14.938 -2.222,-25.377 -11.4,-30 0.958,9.943 10.726,11.074 10.2,22.5 0.196,1.804 -0.395,4.396 0.3,5.701 z m 84.6,-18 c -0.699,3.602 -0.101,8.498 -0.3,12.6 0.482,5.494 -4.893,6.689 -3.9,11.699 7.352,0.275 5.499,-11.436 6,-18.898 -1.253,-0.737 -1.488,-6.841 -1.8,-5.401 z M 139,323.885 c 0.089,-0.23 -0.629,-0.844 -0.6,-0.9 -1.124,2.117 0.607,10.152 0.3,12.602 0.025,0.975 0.154,1.844 0.6,2.398 -0.155,-5.505 1.858,-9.723 -0.3,-14.1 z m 34.8,8.099 c -1.147,0.254 -2.408,0.393 -3.9,0.301 0,-0.801 0,-1.6 0,-2.4 -2.156,1.645 -5.421,2.18 -7.8,3.6 4.502,-0.303 6.319,2.082 9.9,2.701 0.42,0.496 2.88,0.496 3.3,0 4.761,-0.039 8,-1.6 10.5,-3.9 0.078,0.035 0.228,-0.045 0.3,0 -2.034,-1.259 -9.237,-0.538 -12.3,-0.302 z m 8.1,27.602 c -2.472,-2.83 -7.631,-4.568 -10.8,-5.701 6.906,5.994 14.36,11.441 17.7,21 -0.044,0.744 -0.056,1.457 0.6,1.5 -0.19,-1.01 0.387,-2.787 -0.3,-3.299 -0.343,-5.26 -4.438,-8.361 -5.7,-11.701 10.598,0.113 17.823,7.684 27.9,5.4 -0.238,-2.963 -1.997,-4.402 -3.3,-6.301 -0.1,0 -0.2,0 -0.3,0 -7,-0.699 -15.3,-0.1 -22.8,-0.299 -1.25,0.049 -2.504,0.104 -3,-0.599 z m -33,-2.102 c 0.569,1.23 1.307,2.293 2.1,3.301 -0.028,-1.771 -1.062,-2.539 -2.1,-3.301 z m 2.1,3.301 c 1.379,3.721 3.543,6.656 6.3,9 -1.692,-3.408 -4.352,-5.847 -6.3,-9 z m 10.5,12.901 c -0.577,-0.725 -1.409,-1.191 -2.1,-1.801 0.292,1.209 1.311,1.689 2.1,2.4 0.643,0.658 0.934,1.666 1.8,2.1 -0.394,-1.106 -0.997,-2.002 -1.8,-2.699 z m 36,11.099 c -1.007,-0.693 -3.295,-0.105 -4.8,-0.301 -0.537,0.752 3.14,-0.15 3.6,0.602 2.292,2.809 4.796,7.002 7.2,8.699 -1.435,-3.564 -3.051,-6.949 -6,-9 z m 7.8,15.6 c -0.041,-1.357 -0.459,-2.34 -0.9,-3.299 -0.372,2.271 0.519,3.281 0.6,5.1 0,0.199 0,0.4 0,0.6 1.028,0.304 0.714,-2.255 0.3,-2.401 z"
   id="path160"
   inkscape:connector-curvature="0"
   style="fill:#ee366d;fill-rule:evenodd" />
        <path
   clip-rule="evenodd"
   d="m 207.1,415.385 c 2.925,2.676 5.725,5.475 8.4,8.4 -2.925,-2.676 -5.725,-5.474 -8.4,-8.4 z"
   id="path162"
   inkscape:connector-curvature="0"
   style="fill:#e94679;fill-rule:evenodd" />
        <path
   clip-rule="evenodd"
   d="m 242.5,180.785 c 0.402,1.012 0.753,4.545 -0.3,5.1 0.631,-1.169 0.15,-3.45 0.3,-5.1 z"
   id="path164"
   inkscape:connector-curvature="0"
   style="fill:#de9eb9;fill-rule:evenodd" />
        <path
   clip-rule="evenodd"
   d="m 439.3,135.785 c 3.712,4.529 2.143,12.775 2.4,20.4 -0.687,0.514 -0.11,2.29 -0.3,3.3 0.154,8.055 -0.531,15.27 -0.301,23.4 -0.688,0.611 -0.108,2.491 -0.3,3.6 -0.09,14.01 -0.913,27.287 -0.899,41.4 -0.685,0.416 -0.112,2.087 -0.301,3 0,2.7 0,5.4 0,8.1 -0.684,0.416 -0.111,2.089 -0.3,3 0,2.701 0,5.4 0,8.101 -0.684,0.416 -0.111,2.089 -0.3,3 -0.595,24.745 -1.212,51.409 -2.1,77.101 -0.277,8.018 1.388,19.27 -1.2,25.199 -1.031,2.361 -7.323,5.768 -10.8,7.801 -54.949,32.131 -108.727,64.822 -163.5,96.9 -5.34,3.125 -7.477,5.604 -15,4.799 0.055,-0.254 -0.117,-0.283 -0.3,-0.299 -5.445,-5.512 -4.141,-15.039 -3.9,-23.701 1.269,-45.619 2.1,-92.236 2.1,-138 0,-18.418 0.001,-36.545 1.5,-53.1 0.918,-2.744 2.586,-4.15 4.5,-5.4 7.413,-4.841 15.822,-8.775 23.7,-13.199 55.24,-31.022 110.147,-64.061 165,-95.101 0.184,-0.018 0.356,-0.046 0.301,-0.301 z m -22.2,173.1 c -0.791,-16.986 4.451,-32.57 3,-49.199 -0.768,-8.803 -4.036,-17.432 -4.199,-26.101 -0.08,-4.234 0.16,-8.802 0.6,-12.9 1.343,-12.51 6.898,-26.157 4.2,-38.1 -4.429,-1.379 -9.53,-3.251 -14.4,-2.7 -6.46,0.731 -12.068,7 -16.2,10.2 -0.988,0.766 -2.704,1.542 -2.399,2.7 8.611,-1.095 13.924,2.653 13.2,9.9 -3.552,-0.165 -5.622,-1.599 -8.7,-3.3 -1.85,-1.022 -5.724,-4.351 -7.8,-4.2 -1.169,0.085 -5.014,3.671 -6.301,4.8 -2.293,2.012 -3.993,3.908 -5.699,5.4 -12.314,10.771 -27.417,19.306 -40.801,26.7 4.729,1.271 7.262,6.339 10.5,8.101 -5.288,-1.712 -10.414,-3.586 -14.1,-6.9 -12.23,5.57 -22.81,12.791 -38.1,15.3 -6.592,4.083 -9.188,9.823 -12.301,18 -1.6,4.202 -4.138,8.823 -5.1,12.899 -1.441,6.113 -0.343,12.719 -2.7,18.6 5.297,0.49 7.647,3.107 11.101,5.4 5.767,3.83 13.01,8.814 21,9.602 3.082,0.303 5.191,1.393 7.5,1.199 2.907,-0.244 7.4,-4.871 9.6,-7.5 5.934,-7.092 10.055,-12.846 15.3,-19.5 4.401,-5.582 6.77,-11.717 13.5,-14.1 -0.95,8.248 -4.943,13.457 -8.7,18.898 -8.62,5.025 -14.822,14.326 -21.899,20.701 -0.97,0.873 -3.037,1.977 -2.4,2.699 7.47,-0.068 14.88,-0.078 21,1.201 -3.867,3.031 -10.424,3.375 -17.7,3 -0.513,-0.688 -2.289,-0.111 -3.3,-0.301 -2.775,-0.35 -4.428,-0.418 -5.7,1.201 -3.991,-3.711 -11.228,-5.771 -15.899,-7.801 3.43,5.77 11.042,7.357 12.3,15.301 -1.177,-0.725 -1.7,-2.102 -2.7,-3 0,-0.102 0,-0.201 0,-0.301 -2.375,-2.625 -4.875,-5.125 -7.5,-7.5 -0.649,-1.25 -1.309,-2.49 -2.1,-3.6 -0.975,-1.227 -2.074,-2.326 -3.3,-3.301 -3.305,-1.795 -5.885,-4.316 -10.801,-4.5 -3.002,-0.5 -8.098,-0.5 -11.1,0 -3.228,20.174 -4.93,44.393 -3.3,67.5 0.518,0.182 -0.023,1.424 0.6,1.5 2.953,12.848 3.457,28.143 3,44.4 0.79,0.311 1.011,1.189 1.8,1.5 0.518,0.498 3.083,0.498 3.601,0 5.135,-1.449 9.48,-3.74 13.5,-6.301 2.005,-1.275 4.424,-2.531 5.7,-3.6 1.811,-1.518 5.237,-4.895 3.6,-7.799 0,0.299 0,0.6 0,0.898 -0.696,-1.703 -0.103,-4.697 -0.3,-6.898 1.184,-9.018 1.942,-18.459 5.7,-24.9 0,0.799 0,1.6 0,2.4 -0.497,0.42 -0.497,2.879 0,3.299 0.125,10.227 -5.044,15.156 -3.9,26.4 8.876,-8.025 18.534,-17.865 35.7,-18.6 2.502,-0.199 5.797,0.396 7.8,-0.301 3.267,-0.232 5.891,-1.109 9,-1.5 2.173,-6.727 5.838,-11.963 8.1,-18.6 -0.563,5.736 -2.021,10.58 -3.899,15 0.859,0.203 2.211,-0.982 3.3,-1.801 8.129,-6.102 19.355,-9.5 29.1,-14.398 8.393,-4.221 15.297,-10.283 23.4,-13.801 5.02,-7.432 8.133,-16.797 7.2,-29.4 -0.191,-1.107 0.389,-2.988 -0.3,-3.6 0,-1.6 0,-3.199 0,-4.801 -0.195,-1.103 0.384,-2.984 -0.304,-3.595 z"
   id="path166"
   inkscape:connector-curvature="0"
   style="fill:#de9eb9;fill-rule:evenodd" />
        <path
   clip-rule="evenodd"
   d="m 289.9,310.385 c 1.226,0.975 2.325,2.074 3.3,3.301 -1.225,-0.975 -2.326,-2.075 -3.3,-3.301 z"
   id="path168"
   inkscape:connector-curvature="0"
   style="fill:#ee366d;fill-rule:evenodd" />
        <path
   clip-rule="evenodd"
   d="m 417.1,326.586 c -5.237,-5.363 -11.854,-11.945 -17.1,-18.301 6.572,5.229 12.049,11.551 17.1,18.301 z"
   id="path170"
   inkscape:connector-curvature="0"
   style="fill:#de9eb9;fill-rule:evenodd" />
        <path
   clip-rule="evenodd"
   d="m 318.1,319.686 c 7.276,0.375 13.833,0.031 17.7,-3 -6.12,-1.279 -13.53,-1.27 -21,-1.201 -0.637,-0.723 1.431,-1.826 2.4,-2.699 7.077,-6.375 13.279,-15.676 21.899,-20.701 3.757,-5.441 7.75,-10.65 8.7,-18.898 -6.73,2.383 -9.099,8.518 -13.5,14.1 -5.245,6.654 -9.366,12.408 -15.3,19.5 -2.199,2.629 -6.692,7.256 -9.6,7.5 -2.309,0.193 -4.418,-0.896 -7.5,-1.199 -7.99,-0.787 -15.233,-5.771 -21,-9.602 -3.453,-2.293 -5.804,-4.91 -11.101,-5.4 2.357,-5.881 1.259,-12.486 2.7,-18.6 0.962,-4.076 3.5,-8.697 5.1,-12.899 3.113,-8.177 5.709,-13.917 12.301,-18 15.29,-2.509 25.869,-9.729 38.1,-15.3 3.686,3.314 8.812,5.188 14.1,6.9 -3.238,-1.762 -5.771,-6.829 -10.5,-8.101 13.384,-7.394 28.486,-15.929 40.801,-26.7 1.706,-1.493 3.406,-3.389 5.699,-5.4 1.287,-1.128 5.132,-4.715 6.301,-4.8 2.076,-0.151 5.95,3.178 7.8,4.2 3.078,1.701 5.148,3.135 8.7,3.3 0.724,-7.247 -4.589,-10.995 -13.2,-9.9 -0.305,-1.159 1.411,-1.934 2.399,-2.7 4.132,-3.2 9.74,-9.468 16.2,-10.2 4.87,-0.552 9.972,1.32 14.4,2.7 2.698,11.943 -2.857,25.59 -4.2,38.1 -0.439,4.098 -0.68,8.666 -0.6,12.9 0.163,8.669 3.432,17.298 4.199,26.101 1.451,16.629 -3.791,32.213 -3,49.199 0.191,1.109 -0.388,2.988 0.301,3.6 0,1.602 0,3.201 0,4.801 0.191,1.109 -0.389,2.988 0.3,3.6 0.933,12.604 -2.181,21.969 -7.2,29.4 -8.104,3.518 -15.008,9.58 -23.4,13.801 -9.744,4.898 -20.971,8.297 -29.1,14.398 -1.089,0.818 -2.44,2.004 -3.3,1.801 1.879,-4.42 3.336,-9.264 3.899,-15 -2.262,6.637 -5.927,11.873 -8.1,18.6 -3.109,0.391 -5.733,1.268 -9,1.5 -2.502,0.199 -5.797,-0.396 -7.8,0.301 -17.166,0.734 -26.824,10.574 -35.7,18.6 -1.144,-11.244 4.025,-16.174 3.9,-26.4 0,-1.1 0,-2.199 0,-3.299 0,-0.801 0,-1.602 0,-2.4 -3.758,6.441 -4.517,15.883 -5.7,24.9 -0.698,2.301 -0.102,5.898 -0.3,8.699 0.674,-0.127 0.008,-1.592 0.6,-1.801 0,-0.299 0,-0.6 0,-0.898 1.638,2.904 -1.789,6.281 -3.6,7.799 -1.276,1.068 -3.695,2.324 -5.7,3.6 -4.02,2.561 -8.365,4.852 -13.5,6.301 -1.2,0 -2.4,0 -3.601,0 -0.789,-0.311 -1.01,-1.189 -1.8,-1.5 0.457,-16.258 -0.047,-31.553 -3,-44.4 -0.127,-0.627 0.206,-0.795 0.3,-1.199 2.786,-7.814 7.059,-14.143 8.7,-23.1 -3.038,5.861 -7.17,10.629 -9,17.699 -0.891,1.01 0.291,4.09 -0.6,5.1 -1.63,-23.107 0.072,-47.326 3.3,-67.5 3.7,0 7.4,0 11.1,0 4.916,0.184 7.496,2.705 10.801,4.5 0.974,1.227 2.074,2.326 3.3,3.301 0.791,1.109 1.45,2.35 2.1,3.6 0,0.1 0,0.199 0,0.301 2.375,2.625 4.875,5.125 7.5,7.5 1,0.898 1.523,2.275 2.7,3 -1.258,-7.943 -8.87,-9.531 -12.3,-15.301 4.672,2.029 11.908,4.09 15.899,7.801 1.272,-1.619 2.925,-1.551 5.7,-1.201 0.516,0.682 2.293,0.104 3.303,0.296 z M 400,308.285 c 5.245,6.355 11.862,12.938 17.1,18.301 -5.051,-6.75 -10.528,-13.072 -17.1,-18.301 z m -92.7,22.5 c 1.163,1.338 2.094,2.906 3.601,3.9 -0.854,-1.451 -2.458,-3.738 -3.601,-3.9 z m 26.1,21.6 c -5.883,-3.219 -10.658,-8.785 -15.301,-13.199 -2.134,-0.766 -3.57,-2.23 -5.399,-3.301 -0.999,0.574 0.409,0.977 0.6,1.201 3.511,4.133 6.618,7.232 10.8,10.5 6.775,5.289 12.265,12.432 20.4,15.898 -1.023,-6.062 -6.685,-8.683 -11.1,-11.099 z m 3.6,-36.6 c -1.856,0.828 2.88,0.852 3.3,0.301 5.081,0.08 8.922,-1.078 12.3,-2.701 -6.091,-0.092 -11.636,0.363 -15.6,2.4 z m 19.8,-81.599 c -0.182,0.918 -0.637,1.562 -0.899,2.399 1.567,-0.532 2.968,-1.231 4.199,-2.101 -1.052,-0.146 -1.953,-0.447 -3.3,-0.298 z m 3.9,3 c -0.5,2.603 -0.5,7.297 0,9.899 1.195,4.36 11.673,6.893 17.1,7.5 5.676,0.636 7.606,-0.88 11.101,-3.601 4.121,-3.209 8.287,-6.188 9.6,-10.5 -5.461,6.04 -10.545,12.455 -23.1,11.4 -5.672,-3.328 -8.598,-9.402 -10.5,-16.5 -1.345,-0.355 -2.334,-1.066 -4.2,-0.9 -0.001,0.901 -0.001,1.801 -0.001,2.702 z m 16.5,39.599 c 4.143,-1.768 8.214,-4.135 12.899,-4.5 5.424,-0.422 12.889,0.445 13.801,-3.301 -0.666,-1.233 0.184,-3.983 -1.5,-4.199 -7.186,2.161 -14.53,7.457 -22.5,9.3 -4.271,0.987 -8.503,0.169 -12.301,3 0.794,1.647 -0.072,4.293 -0.3,4.8 2.497,-3.239 5.525,-3.233 9.901,-5.1 z m -63.6,-6.9 c -1.852,8.549 -10.604,11.796 -10.5,21.301 2.677,-5.725 4.697,-12.104 9.9,-15.301 3.48,-2.527 11.242,-3.607 9.6,-9.3 -4.604,-0.634 -8.545,1.399 -12,0 0.922,0.078 1.35,0.651 2.101,0.899 0.05,0.35 0.475,0.326 0.899,0.301 0,0.699 0,1.401 0,2.1 z m 57.3,35.701 c 4.31,0.49 10.56,0.373 14.1,-0.9 -4.693,-0.844 -10.301,-0.139 -14.1,0.9 z m -0.6,39.6 c 5.314,-1.686 8.099,-5.902 12.3,-8.701 0.404,-3.217 2.716,-6.053 2.7,-8.699 -3.784,-0.57 -3.89,3.574 -6,5.4 -2.113,1.828 -5.489,2.096 -7.8,3.9 -3.173,2.477 -4.214,5.717 -7.2,8.1 -0.6,0 -1.2,0 -1.8,0 -2.29,-0.09 -4.623,-0.223 -5.1,1.5 2.437,0.234 3.991,0.131 6,-0.6 1.204,-1.397 5.254,0.053 6.9,-0.9 z m -81,14.099 c -0.319,-0.014 -0.762,0.141 -0.3,0.301 2.248,4.506 7.301,5.033 12,7.199 3.039,1.4 5.564,3.996 9,3.6 -4.404,-6.196 -13.074,-8.125 -20.7,-11.1 z"
   id="path172"
   inkscape:connector-curvature="0"
   style="fill:#e22661;fill-rule:evenodd" />
        <path
   clip-rule="evenodd"
   d="m 295.3,317.586 c 2.676,2.223 4.824,4.975 7.5,7.199 0,0.1 0,0.199 0,0.301 -2.625,-2.375 -5.125,-4.875 -7.5,-7.5 z"
   id="path174"
   inkscape:connector-curvature="0"
   style="fill:#ee366d;fill-rule:evenodd" />
        <path
   clip-rule="evenodd"
   d="m 344.5,363.484 c -8.136,-3.467 -13.625,-10.609 -20.4,-15.898 -4.182,-3.268 -7.289,-6.367 -10.8,-10.5 -0.19,-0.225 -1.599,-0.627 -0.6,-1.201 1.829,1.07 3.266,2.535 5.399,3.301 4.643,4.414 9.418,9.98 15.301,13.199 4.415,2.416 10.077,5.037 11.1,11.099 z"
   id="path176"
   inkscape:connector-curvature="0"
   style="fill:#de9eb9;fill-rule:evenodd" />
        <path
   clip-rule="evenodd"
   d="m 310.9,334.686 c -1.507,-0.994 -2.438,-2.562 -3.601,-3.9 1.144,0.161 2.748,2.448 3.601,3.9 z"
   id="path178"
   inkscape:connector-curvature="0"
   style="fill:#eb7fa7;fill-rule:evenodd" />
        <path
   clip-rule="evenodd"
   d="m 100.9,210.485 c 1.322,-0.222 1.229,0.971 2.1,1.2 -0.048,0.352 -0.547,0.253 -0.9,0.3 -0.203,-0.697 -0.997,-0.803 -1.2,-1.5 z"
   id="path180"
   inkscape:connector-curvature="0"
   style="fill:#f8bed5;fill-rule:evenodd" />
        <path
   clip-rule="evenodd"
   d="m 100,209.885 c -0.804,-0.496 -1.078,-1.522 -1.8,-2.1 0.415,-0.492 1.385,0.998 1.8,1.5 -0.03,0.337 0.436,0.467 0,0.6 z"
   id="path182"
   inkscape:connector-curvature="0"
   style="fill:#ef5694;fill-rule:evenodd" />
        <path
   clip-rule="evenodd"
   d="m 100,209.885 c 0.436,-0.133 -0.03,-0.264 0,-0.6 0.439,0.261 0.951,0.449 0.9,1.2 0.203,0.697 0.997,0.803 1.2,1.5 -0.826,-0.573 -1.526,-1.274 -2.1,-2.1 z"
   id="path184"
   inkscape:connector-curvature="0"
   style="fill:#e94679;fill-rule:evenodd" />
        <path
   clip-rule="evenodd"
   d="m 109.9,211.985 c 4.128,0.229 6.898,-0.901 8.4,-3.3 -0.146,-2.464 -4.399,-1.717 -5.1,-1.2 1.945,-3.839 0.197,-16.067 6.3,-14.4 0.812,6.438 1.916,16.109 -2.1,20.7 -2.927,3.346 -10.946,2.717 -13.5,-1.2 0.093,-0.407 0.751,-0.249 1.2,-0.3 1.505,-0.195 3.793,0.393 4.8,-0.3 z"
   id="path186"
   inkscape:connector-curvature="0"
   style="fill:#f8bed5;fill-rule:evenodd" />
        <path
   clip-rule="evenodd"
   d="m 97,205.685 c -2.341,-1.959 -2.587,-6.013 -4.2,-8.7 2.45,1.85 2.839,5.761 4.2,8.7 z"
   id="path188"
   inkscape:connector-curvature="0"
   style="fill:#f8bed5;fill-rule:evenodd" />
        <path
   clip-rule="evenodd"
   d="m 360.7,237.186 c 0,-0.9 0,-1.801 0,-2.701 1.866,-0.166 2.855,0.545 4.2,0.9 1.902,7.098 4.828,13.172 10.5,16.5 12.555,1.055 17.639,-5.36 23.1,-11.4 -1.312,4.312 -5.479,7.291 -9.6,10.5 -3.494,2.721 -5.425,4.236 -11.101,3.601 -5.427,-0.607 -15.904,-3.14 -17.1,-7.5 10e-4,-3.301 10e-4,-6.602 10e-4,-9.9 z"
   id="path190"
   inkscape:connector-curvature="0"
   style="fill:#de9eb9;fill-rule:evenodd" />
        <path
   clip-rule="evenodd"
   d="m 129.4,236.885 c 0.093,1.693 -0.532,2.668 -0.3,4.5 -1.557,-0.793 0.085,-3.215 0,-4.5 0.1,0 0.2,0 0.3,0 z"
   id="path192"
   inkscape:connector-curvature="0"
   style="fill:#f8bed5;fill-rule:evenodd" />
        <path
   clip-rule="evenodd"
   d="m 169,258.186 c -0.503,3.625 -1.139,3.48 -0.3,0 0.1,0 0.2,0 0.3,0 z"
   id="path194"
   inkscape:connector-curvature="0"
   style="fill:#e94679;fill-rule:evenodd" />
        <path
   clip-rule="evenodd"
   d="m 177.1,289.984 c 0.745,-5.355 1.882,-10.316 3.3,-15 5.723,-5.977 14.254,-9.146 21,-14.1 -0.824,3.428 -2.626,5.783 -5.1,7.801 -3.002,2.448 -7.894,3.048 -10.5,5.699 -1.08,1.1 -2.388,3.6 -3,5.1 -1.869,4.582 -1.627,10.449 -3.3,15 -0.512,1.393 -1.946,2.902 -3,3.9 0.106,-0.395 0.528,-0.473 0.6,-0.9 0,-2.5 0,-5 0,-7.5 z"
   id="path196"
   inkscape:connector-curvature="0"
   style="fill:#f8bed5;fill-rule:evenodd" />
        <path
   clip-rule="evenodd"
   d="m 312.7,267.484 c 0.399,0 0.8,0 1.2,0 -0.183,0.719 0.376,2.178 -0.301,2.4 0,-0.699 0,-1.4 0,-2.1 -0.424,0.027 -0.849,0.05 -0.899,-0.3 z"
   id="path198"
   inkscape:connector-curvature="0"
   style="fill:#ef5694;fill-rule:evenodd" />
        <path
   clip-rule="evenodd"
   d="m 124,275.885 c 0.025,-0.889 -0.524,-2.083 -0.6,-3 -0.33,-4.014 0.786,0.397 0.9,2.4 0.049,0.349 -0.066,0.533 -0.3,0.6 z"
   id="path200"
   inkscape:connector-curvature="0"
   style="fill:#f8bed5;fill-rule:evenodd" />
        <path
   clip-rule="evenodd"
   d="m 115,316.984 c 0.526,-11.426 -9.243,-12.557 -10.2,-22.5 9.178,4.623 12.538,15.062 11.4,30 -0.91,0.01 -0.748,-1.053 -0.9,-1.799 -0.196,-1.804 0.395,-4.396 -0.3,-5.701 z"
   id="path202"
   inkscape:connector-curvature="0"
   style="fill:#f8bed5;fill-rule:evenodd" />
        <path
   clip-rule="evenodd"
   d="m 175.9,298.984 c -0.892,1.109 -1.606,2.395 -3.9,2.1 0.946,-1.053 2.455,-1.545 3.9,-2.1 z"
   id="path204"
   inkscape:connector-curvature="0"
   style="fill:#f8bed5;fill-rule:evenodd" />
        <path
   clip-rule="evenodd"
   d="m 302.8,324.785 c -2.676,-2.225 -4.824,-4.977 -7.5,-7.199 0,-0.102 0,-0.201 0,-0.301 2.625,2.375 5.125,4.875 7.5,7.5 z"
   id="path206"
   inkscape:connector-curvature="0"
   style="fill:#eb7fa7;fill-rule:evenodd" />
        <path
   clip-rule="evenodd"
   d="m 364.3,345.186 c 2.986,-2.383 4.027,-5.623 7.2,-8.1 2.311,-1.805 5.687,-2.072 7.8,-3.9 2.11,-1.826 2.216,-5.971 6,-5.4 0.016,2.646 -2.296,5.482 -2.7,8.699 -4.201,2.799 -6.985,7.016 -12.3,8.701 -2,0 -4,0 -6,0 z"
   id="path208"
   inkscape:connector-curvature="0"
   style="fill:#de9eb9;fill-rule:evenodd" />
        <path
   clip-rule="evenodd"
   d="m 363.4,346.086 c -0.056,-0.256 0.116,-0.283 0.3,-0.301 0.215,-0.814 -1.415,0.215 -1.2,-0.6 0.6,0 1.2,0 1.8,0 2,0 4,0 6,0 -1.646,0.954 -5.696,-0.496 -6.9,0.901 z"
   id="path210"
   inkscape:connector-curvature="0"
   style="fill:#ef5694;fill-rule:evenodd" />
        <path
   clip-rule="evenodd"
   d="m 181.9,359.586 c 0.496,0.703 1.75,0.648 3,0.6 0,0.1 0,0.199 0,0.299 -1.25,0.051 -2.504,0.104 -3,-0.6 0,-0.1 0,-0.199 0,-0.299 z"
   id="path212"
   inkscape:connector-curvature="0"
   style="fill:#eb7fa7;fill-rule:evenodd" />
        <path
   clip-rule="evenodd"
   d="m 161.5,374.285 c -0.789,-0.711 -1.809,-1.191 -2.1,-2.4 0.691,0.609 1.523,1.076 2.1,1.801 -0.436,0.132 0.03,0.263 0,0.599 z"
   id="path214"
   inkscape:connector-curvature="0"
   style="fill:#de9eb9;fill-rule:evenodd" />
        <path
   clip-rule="evenodd"
   d="m 151,360.785 c -0.793,-1.008 -1.531,-2.07 -2.1,-3.301 1.038,0.762 2.072,1.53 2.1,3.301 z"
   id="path216"
   inkscape:connector-curvature="0"
   style="fill:#de9eb9;fill-rule:evenodd" />
        <path
   clip-rule="evenodd"
   d="m 157.3,369.785 c -2.757,-2.344 -4.921,-5.279 -6.3,-9 1.948,3.153 4.608,5.592 6.3,9 z"
   id="path218"
   inkscape:connector-curvature="0"
   style="fill:#f8bed5;fill-rule:evenodd" />
        <path
   clip-rule="evenodd"
   d="m 161.5,374.285 c 0.03,-0.336 -0.436,-0.467 0,-0.6 0.803,0.697 1.406,1.594 1.8,2.699 -0.866,-0.433 -1.157,-1.441 -1.8,-2.099 z"
   id="path220"
   inkscape:connector-curvature="0"
   style="fill:#f8bed5;fill-rule:evenodd" />
        <path
   clip-rule="evenodd"
   d="m 189.1,373.086 c 0.687,0.512 0.11,2.289 0.3,3.299 -0.656,-0.043 -0.644,-0.756 -0.6,-1.5 0.662,-0.037 0.127,-1.272 0.3,-1.799 z"
   id="path222"
   inkscape:connector-curvature="0"
   style="fill:#ef5694;fill-rule:evenodd" />
        <path
   clip-rule="evenodd"
   d="m 196.3,385.086 c -0.459,-0.752 -4.136,0.15 -3.6,-0.602 1.505,0.195 3.793,-0.393 4.8,0.301 -0.475,0.026 -1.144,-0.144 -1.2,0.301 z"
   id="path224"
   inkscape:connector-curvature="0"
   style="fill:#e94679;fill-rule:evenodd" />
        <path
   clip-rule="evenodd"
   d="m 205,402.186 c -0.082,-1.818 -0.972,-2.828 -0.6,-5.1 0.44,0.959 0.859,1.941 0.9,3.299 0,0.6 0,1.201 0,1.801 -0.1,0 -0.2,0 -0.3,0 z"
   id="path226"
   inkscape:connector-curvature="0"
   style="fill:#f8bed5;fill-rule:evenodd" />
        <path
   clip-rule="evenodd"
   d="m 257.5,63.185 c -0.5,0.673 -1.63,-0.55 -2.4,-0.6 0.795,-0.968 1.924,0.255 2.4,0.6 z"
   id="path228"
   inkscape:connector-curvature="0"
   style="fill:#f8bed5;fill-rule:evenodd" />
        <path
   clip-rule="evenodd"
   d="m 194.2,74.285 c 4.101,-0.699 9.499,-0.101 14.1,-0.3 -4.101,0.699 -9.499,0.101 -14.1,0.3 z"
   id="path230"
   inkscape:connector-curvature="0"
   style="fill:#f8bed5;fill-rule:evenodd" />
        <path
   clip-rule="evenodd"
   d="m 261.1,73.685 c 1.235,1.465 2.367,3.033 2.101,6 0,1.5 0,3 0,4.5 -0.388,3.213 -1.705,5.495 -3,7.8 -0.77,-1.083 0.354,-2.836 0.3,-4.2 0.897,-4.001 -0.3,-10.098 0.599,-14.1 z"
   id="path232"
   inkscape:connector-curvature="0"
   style="fill:#fadde8;fill-rule:evenodd" />
        <path
   clip-rule="evenodd"
   d="m 263.2,79.685 c 0.498,0.812 0.498,3.688 0,4.5 0,-1.5 0,-3 0,-4.5 z"
   id="path234"
   inkscape:connector-curvature="0"
   style="fill:#eb7fa7;fill-rule:evenodd" />
        <path
   clip-rule="evenodd"
   d="m 238.3,91.085 c -3.215,1.312 -5.373,-1.024 -7.2,-2.1 2.548,-0.644 4.439,1.958 7.2,2.1 z"
   id="path236"
   inkscape:connector-curvature="0"
   style="fill:#fadde8;fill-rule:evenodd" />
        <path
   clip-rule="evenodd"
   d="m 212.8,105.485 c 0,1.8 0,3.6 0,5.4 -0.499,-1.109 -0.499,-4.291 0,-5.4 z"
   id="path238"
   inkscape:connector-curvature="0"
   style="fill:#de9eb9;fill-rule:evenodd" />
        <path
   clip-rule="evenodd"
   d="m 305.2,121.685 c -1.883,-0.793 2.63,-0.875 3,-0.3 -0.912,0.188 -2.584,-0.384 -3,0.3 z"
   id="path240"
   inkscape:connector-curvature="0"
   style="fill:#eb7fa7;fill-rule:evenodd" />
        <path
   clip-rule="evenodd"
   d="m 325,131.285 c -0.627,0.127 -0.794,-0.206 -1.2,-0.3 0.611,-0.688 2.491,-0.108 3.601,-0.3 -0.134,0.867 -2.267,-0.267 -2.401,0.6 z"
   id="path242"
   inkscape:connector-curvature="0"
   style="fill:#f8bed5;fill-rule:evenodd" />
        <path
   clip-rule="evenodd"
   d="m 327.4,130.685 c 0.946,0.147 1.059,-0.541 2.1,-0.3 -1.125,0.831 -2.629,1.653 -4.5,0.9 0.134,-0.867 2.267,0.267 2.4,-0.6 z"
   id="path244"
   inkscape:connector-curvature="0"
   style="fill:#fadde8;fill-rule:evenodd" />
        <path
   clip-rule="evenodd"
   d="m 172.3,138.185 c -4.336,0.635 -10.305,0.306 -14.7,0 0.809,-0.691 2.894,-0.106 4.2,-0.3 2.902,0.698 7.099,0.101 10.5,0.3 z"
   id="path246"
   inkscape:connector-curvature="0"
   style="fill:#de9eb9;fill-rule:evenodd" />
        <path
   clip-rule="evenodd"
   d="m 280.6,142.685 c 2.601,0 5.2,0 7.801,0 -2.003,0.697 -5.298,0.102 -7.801,0.3 0,-0.1 0,-0.2 0,-0.3 z"
   id="path248"
   inkscape:connector-curvature="0"
   style="fill:#de9eb9;fill-rule:evenodd" />
        <path
   clip-rule="evenodd"
   d="m 223,147.185 c 1.108,-0.499 4.292,-0.499 5.4,0 -1.8,0 -3.6,0 -5.4,0 z"
   id="path250"
   inkscape:connector-curvature="0"
   style="fill:#eb7fa7;fill-rule:evenodd" />
        <path
   clip-rule="evenodd"
   d="m 187.9,158.285 c 0.288,2.388 -1.199,3.001 -1.5,4.8 -0.698,-2.901 -0.101,-7.099 -0.3,-10.5 0.663,1.038 1.25,2.15 1.5,3.6 -0.147,0.947 0.541,1.06 0.3,2.1 z"
   id="path252"
   inkscape:connector-curvature="0"
   style="fill:#fadde8;fill-rule:evenodd" />
        <path
   clip-rule="evenodd"
   d="m 64.9,128.585 c 0.161,-1.539 0.304,-3.096 1.2,-3.9 59.834,41.766 119.395,83.805 179.7,125.1 -1.499,16.555 -1.5,34.682 -1.5,53.1 0,45.764 -0.831,92.381 -2.1,138 -0.241,8.662 -1.545,18.189 3.9,23.701 -1,0 -2,0 -3,0 -3.087,-1.014 -5.575,-2.625 -8.4,-3.9 -46.127,-32.68 -94.52,-65.25 -141.6,-97.801 -5.896,-4.076 -16.002,-9.842 -20.1,-15 -0.295,-1.805 -0.968,-3.232 -0.9,-5.4 -0.193,-1.207 0.39,-3.189 -0.3,-3.898 0,-2.201 0,-4.4 0,-6.602 -0.194,-1.404 0.393,-3.592 -0.3,-4.5 0,-1.299 0,-2.6 0,-3.898 -0.194,-1.406 0.393,-3.594 -0.3,-4.5 0,-1.301 0,-2.602 0,-3.9 -0.194,-1.406 0.392,-3.594 -0.3,-4.5 0,-1.301 0,-2.6 0,-3.9 -0.194,-1.406 0.393,-3.592 -0.3,-4.5 0,-1.301 0,-2.6 0,-3.9 -0.194,-1.406 0.392,-3.592 -0.3,-4.5 0,-1.301 0,-2.6 0,-3.9 -0.194,-1.404 0.393,-3.592 -0.3,-4.5 0,-1.299 0,-2.6 0,-3.899 -0.194,-1.405 0.393,-3.593 -0.3,-4.5 0,-1.3 0,-2.601 0,-3.899 -0.194,-1.406 0.392,-3.593 -0.3,-4.5 0,-1.4 0,-2.801 0,-4.201 -0.194,-1.404 0.393,-3.592 -0.3,-4.5 0,-1.299 0,-2.6 0,-3.899 -0.194,-1.405 0.392,-3.593 -0.3,-4.5 0,-1.3 0,-2.601 0,-3.899 -0.194,-1.406 0.393,-3.593 -0.3,-4.5 0,-1.301 0,-2.601 0,-3.9 -0.194,-1.406 0.393,-3.592 -0.3,-4.5 0,-1.301 0,-2.6 0,-3.9 -0.194,-1.405 0.392,-3.592 -0.3,-4.5 0,-1.3 0,-2.6 0,-3.9 -0.194,-1.405 0.393,-3.592 -0.3,-4.5 0,-1.3 0,-2.6 0,-3.9 -0.194,-1.406 0.392,-3.592 -0.3,-4.5 0,-1.3 0,-2.6 0,-3.9 -0.194,-1.406 0.393,-3.592 -0.3,-4.5 0,-1.3 0,-2.6 0,-3.9 -0.194,-1.406 0.393,-3.592 -0.3,-4.5 0,-1.3 0,-2.6 0,-3.9 -0.194,-1.406 0.392,-3.592 -0.3,-4.5 0,-1.3 0,-2.6 0,-3.9 -0.195,-1.505 0.393,-3.793 -0.3,-4.8 0,-1.3 0,-2.6 0,-3.9 -0.194,-1.406 0.392,-3.592 -0.3,-4.5 0,-1.3 0,-2.6 0,-3.9 -0.194,-1.406 0.393,-3.592 -0.3,-4.5 0,-1.3 0,-2.6 0,-3.9 -0.194,-1.406 0.393,-3.592 -0.3,-4.5 0.178,-4.378 -0.222,-8.178 -0.3,-12.3 -0.193,-1.307 0.392,-3.391 -0.3,-4.2 0,-0.2 0,-0.4 0,-0.6 0.693,-1.012 0.105,-3.3 0.3,-4.805 z m 100.2,99 c -7.136,-2.417 -8.496,-9.057 -11.7,-15 -0.995,-1.846 -2.565,-3.77 -3.9,-5.7 -1.34,-1.938 -2.594,-4.513 -3.9,-6 -1.687,-1.921 -4.429,-3.554 -6.6,-5.4 -6.532,-5.554 -13.262,-11.108 -19.8,-16.2 -8.948,-6.969 -17.529,-14.814 -28.2,-19.8 -6.271,6.368 -0.29,17.597 -0.9,26.1 -0.412,5.739 -3.093,10.685 -3.6,16.2 -1.2,13.044 2.298,21.783 4.8,31.8 1.612,6.454 3.634,13.521 4.2,20.101 1.466,17.043 -2.669,30.764 -5.1,47.699 -0.497,0.324 -0.497,2.676 0,3 -0.905,9.93 1.694,16.104 4.2,23.1 2.564,7.16 4.527,12.471 9,17.102 3.379,3.498 7.547,6.359 11.4,7.199 1.803,0.697 4.897,0.102 7.2,0.301 4.562,1.74 6.696,-1.795 9.6,-4.5 2.464,-2.297 4.496,-3.768 6,-5.701 6.066,-7.799 6.58,-23.498 7.5,-35.4 0.697,-1.803 0.103,-4.896 0.3,-7.199 1.577,-5.824 5.854,-8.947 7.8,-14.4 0.899,-7.4 -0.299,-16.899 0.6,-24.3 -0.475,9.166 5.488,14.688 4.2,23.7 -0.161,1.125 -1.16,2.139 -1.5,3.6 -0.337,1.445 0.057,2.982 -0.3,4.199 -1.223,4.176 -5.021,7.066 -6,11.4 -1.137,5.039 -0.939,10.043 -2.4,15 -1.265,4.293 -3,8.889 -4.5,12.9 -1.405,3.76 -2.951,7.693 -4.8,12.6 -0.969,2.57 -4.733,11.188 -4.2,13.5 0.238,1.035 4.314,4.209 5.7,5.701 4.247,4.57 7.12,8.283 10.5,12.6 1.7,2.17 3.227,4.789 5.1,6.6 2.203,2.131 5.581,4.104 8.4,6.301 2.682,2.088 5.354,4.666 8.1,6.6 5.11,3.598 11.397,6.488 17.1,9.9 5.997,3.588 11.772,7.986 17.7,10.199 2.675,2.926 5.475,5.725 8.4,8.4 1.333,1.068 2.749,2.051 4.2,3 0.323,0.496 2.676,0.496 3,0 3.902,-0.898 3.83,-5.77 5.4,-9 -1.843,-8.184 -1.193,-16.732 -1.8,-25.199 -0.594,-8.291 -3.338,-17.775 -1.8,-27.602 0.351,-2.238 1.863,-4.416 2.4,-6.6 1.749,-7.119 2.293,-15.695 1.8,-24.6 -0.303,-5.475 -0.683,-11.969 -1.8,-16.801 -0.882,-3.814 -3.194,-6.93 -4.2,-10.199 -1.135,-3.689 -2.054,-7.98 -2.4,-12 -0.962,-11.189 3.769,-20.696 1.8,-30.6 -0.396,-1.99 -2.262,-3.501 -2.7,-6 -6.423,-2.18 -8.405,-7.973 -12,-13.5 -2.021,-3.109 -4.258,-7.265 -6.9,-9.601 -1.471,-1.3 -4.213,-2.592 -6.3,-3.899 -6.306,-3.954 -14.017,-9.092 -21.9,-3.601 -2.4,0 -4.8,0 -7.2,0 z"
   id="path254"
   inkscape:connector-curvature="0"
   style="fill:#f8bed5;fill-rule:evenodd" />
        <path
   clip-rule="evenodd"
   d="m 168.7,168.785 c 1.804,0.196 4.395,-0.395 5.7,0.3 -1.804,-0.196 -4.395,0.395 -5.7,-0.3 z"
   id="path256"
   inkscape:connector-curvature="0"
   style="fill:#de9eb9;fill-rule:evenodd" />
        <path
   clip-rule="evenodd"
   d="m 250.6,172.385 c 7.237,-0.792 12.442,3.497 10.5,9.9 -3.214,-3.486 -3.604,-9.795 -11.399,-8.7 -1.109,-0.499 -4.292,-0.499 -5.4,0 -2.598,0.905 -1.722,4.351 -1.8,7.2 -0.15,1.65 0.331,3.931 -0.3,5.1 -1.217,0.183 -0.738,2.062 -1.2,3 -0.554,-1.046 -0.605,-2.595 -0.9,-3.9 0.612,0.088 0.588,0.812 1.2,0.9 -0.024,-4.722 -5.702,-6.902 -2.1,-11.7 1.528,-0.772 3.039,-1.561 5.4,-1.5 1.902,-0.197 4.594,0.396 5.999,-0.3 z"
   id="path258"
   inkscape:connector-curvature="0"
   style="fill:#fadde8;fill-rule:evenodd" />
        <path
   clip-rule="evenodd"
   d="m 258.4,209.285 c 1.1,0 2.199,0 3.3,0 -0.514,0.687 -2.29,0.11 -3.3,0.3 0,-0.1 0,-0.2 0,-0.3 z"
   id="path260"
   inkscape:connector-curvature="0"
   style="fill:#f8bed5;fill-rule:evenodd" />
        <path
   clip-rule="evenodd"
   d="m 250.6,209.585 c 1.101,0 2.2,0 3.301,0 -0.514,0.687 -2.29,0.11 -3.301,0.3 0,-0.1 0,-0.2 0,-0.3 z"
   id="path262"
   inkscape:connector-curvature="0"
   style="fill:#f8bed5;fill-rule:evenodd" />
        <path
   clip-rule="evenodd"
   d="m 241.6,209.885 c 1.5,0 3,0 4.5,0 -0.812,0.498 -3.688,0.498 -4.5,0 z"
   id="path264"
   inkscape:connector-curvature="0"
   style="fill:#de9eb9;fill-rule:evenodd" />
        <path
   clip-rule="evenodd"
   d="m 105.1,212.285 c 1.007,-0.693 3.295,-0.105 4.8,-0.3 -1.007,0.693 -3.295,0.105 -4.8,0.3 z"
   id="path266"
   inkscape:connector-curvature="0"
   style="fill:#e94679;fill-rule:evenodd" />
        <path
   clip-rule="evenodd"
   d="m 129.4,219.485 c 0.524,-2.676 1.901,-4.499 3.9,-5.7 0.823,8.641 -2.386,15.258 -3.6,22.8 -0.7,-5.101 -0.1,-11.5 -0.3,-17.1 z"
   id="path268"
   inkscape:connector-curvature="0"
   style="fill:#f8bed5;fill-rule:evenodd" />
        <path
   clip-rule="evenodd"
   d="m 110.2,247.085 c -3.157,-3.843 -5.619,-8.381 -9.6,-11.399 -0.161,-1.24 -0.439,-2.361 -0.6,-3.601 0.267,-0.233 0.677,-0.322 1.2,-0.3 4.527,3.572 7.912,8.287 9,15.3 z"
   id="path270"
   inkscape:connector-curvature="0"
   style="fill:#f8bed5;fill-rule:evenodd" />
        <path
   clip-rule="evenodd"
   d="m 129.1,236.885 c 0.2,-5.7 -0.399,-12.199 0.3,-17.4 0.2,5.601 -0.399,12 0.3,17.1 0.055,0.255 -0.117,0.283 -0.3,0.3 -0.1,0 -0.2,0 -0.3,0 z"
   id="path272"
   inkscape:connector-curvature="0"
   style="fill:#e94679;fill-rule:evenodd" />
        <path
   clip-rule="evenodd"
   d="m 169,249.484 c 0.147,-1.852 1.206,-2.794 1.8,-4.199 1.562,4.252 -0.093,9.434 -1.8,12.3 0,-2.7 0,-5.399 0,-8.101 z"
   id="path274"
   inkscape:connector-curvature="0"
   style="fill:#f8bed5;fill-rule:evenodd" />
        <path
   clip-rule="evenodd"
   d="m 150.7,246.785 c 0.976,1.424 1.658,3.143 1.8,5.4 -0.839,-1.56 -1.287,-3.513 -1.8,-5.4 z"
   id="path276"
   inkscape:connector-curvature="0"
   style="fill:#eb7fa7;fill-rule:evenodd" />
        <path
   clip-rule="evenodd"
   d="m 110.2,250.385 c 0,-1 0,-2 0,-3 1.208,1.492 1.396,4.004 2.1,6 0,1.4 0,2.801 0,4.2 0,0.3 0,0.601 0,0.899 -1.36,-1.35 -1.971,-2.883 -1.8,-5.1 -0.188,-0.911 0.384,-2.583 -0.3,-2.999 z"
   id="path278"
   inkscape:connector-curvature="0"
   style="fill:#f8bed5;fill-rule:evenodd" />
        <path
   clip-rule="evenodd"
   d="m 112.3,253.385 c 0.498,0.714 0.498,3.486 0,4.2 0,-1.399 0,-2.8 0,-4.2 z"
   id="path280"
   inkscape:connector-curvature="0"
   style="fill:#ef5694;fill-rule:evenodd" />
        <path
   clip-rule="evenodd"
   d="m 124.9,278.585 c -0.562,-0.638 -0.191,-2.208 -0.9,-2.7 0.234,-0.066 0.349,-0.251 0.3,-0.6 0.553,0.647 0.323,2.076 0.9,2.699 -0.292,0.009 -0.233,0.369 -0.3,0.601 z"
   id="path282"
   inkscape:connector-curvature="0"
   style="fill:#eb7fa7;fill-rule:evenodd" />
        <path
   clip-rule="evenodd"
   d="m 124.9,278.585 c 0.067,-0.232 0.008,-0.592 0.3,-0.601 2.59,13.41 12.764,19.236 13.2,34.801 -0.198,2.801 0.398,6.398 -0.3,8.699 -3.108,-15.591 -11.106,-26.293 -13.2,-42.899 z"
   id="path284"
   inkscape:connector-curvature="0"
   style="fill:#f8bed5;fill-rule:evenodd" />
        <path
   clip-rule="evenodd"
   d="m 90.4,301.385 c 0,1 0,2 0,3 -0.497,-0.324 -0.497,-2.676 0,-3 z"
   id="path286"
   inkscape:connector-curvature="0"
   style="fill:#ef5694;fill-rule:evenodd" />
        <path
   clip-rule="evenodd"
   d="m 268,305.885 c 3.002,-0.5 8.098,-0.5 11.1,0 -3.7,0 -7.4,0 -11.1,0 z"
   id="path288"
   inkscape:connector-curvature="0"
   style="fill:#ee366d;fill-rule:evenodd" />
        <path
   clip-rule="evenodd"
   d="m 417.1,308.885 c 0.688,0.611 0.109,2.492 0.301,3.6 -0.689,-0.612 -0.11,-2.491 -0.301,-3.6 z"
   id="path290"
   inkscape:connector-curvature="0"
   style="fill:#ef5694;fill-rule:evenodd" />
        <path
   clip-rule="evenodd"
   d="m 337,315.785 c 0.514,0.686 2.29,0.109 3.3,0.301 -0.42,0.551 -5.156,0.527 -3.3,-0.301 z"
   id="path292"
   inkscape:connector-curvature="0"
   style="fill:#ef5694;fill-rule:evenodd" />
        <path
   clip-rule="evenodd"
   d="m 417.4,317.285 c 0.688,0.611 0.108,2.492 0.3,3.6 -0.688,-0.612 -0.108,-2.49 -0.3,-3.6 z"
   id="path294"
   inkscape:connector-curvature="0"
   style="fill:#ef5694;fill-rule:evenodd" />
        <path
   clip-rule="evenodd"
   d="m 139,323.885 c 2.158,4.377 0.145,8.596 0.3,14.1 -0.445,-0.555 -0.574,-1.424 -0.6,-2.398 0.199,-3.804 -0.399,-8.401 0.3,-11.702 z"
   id="path296"
   inkscape:connector-curvature="0"
   style="fill:#f8bed5;fill-rule:evenodd" />
        <path
   clip-rule="evenodd"
   d="m 185.8,332.285 c -3.401,-0.699 -8.099,-0.102 -12,-0.301 3.063,-0.236 10.267,-0.957 12.3,0.301 -0.072,-0.045 -0.222,0.035 -0.3,0 z"
   id="path298"
   inkscape:connector-curvature="0"
   style="fill:#e94679;fill-rule:evenodd" />
        <path
   clip-rule="evenodd"
   d="m 172,336.186 c -3.581,-0.619 -5.397,-3.004 -9.9,-2.701 2.378,-1.42 5.644,-1.955 7.8,-3.6 0,0.801 0,1.6 0,2.4 1.492,0.092 2.752,-0.047 3.9,-0.301 3.901,0.199 8.599,-0.398 12,0.301 -2.5,2.301 -5.739,3.861 -10.5,3.9 -1.1,10e-4 -2.2,10e-4 -3.3,10e-4 z"
   id="path300"
   inkscape:connector-curvature="0"
   style="fill:#f8bed5;fill-rule:evenodd" />
        <path
   clip-rule="evenodd"
   d="m 172,336.186 c 1.1,0 2.2,0 3.3,0 -0.42,0.496 -2.88,0.496 -3.3,0 z"
   id="path302"
   inkscape:connector-curvature="0"
   style="fill:#e94679;fill-rule:evenodd" />
        <path
   clip-rule="evenodd"
   d="m 363.4,346.086 c -2.009,0.73 -3.563,0.834 -6,0.6 0.477,-1.723 2.81,-1.59 5.1,-1.5 -0.215,0.814 1.415,-0.215 1.2,0.6 -0.183,0.017 -0.355,0.044 -0.3,0.3 z"
   id="path304"
   inkscape:connector-curvature="0"
   style="fill:#de9eb9;fill-rule:evenodd" />
        <path
   clip-rule="evenodd"
   d="m 265.3,368.285 c 1.83,-7.07 5.962,-11.838 9,-17.699 -1.642,8.957 -5.914,15.285 -8.7,23.1 -0.695,-1.206 -0.104,-3.698 -0.3,-5.401 z"
   id="path306"
   inkscape:connector-curvature="0"
   style="fill:#de9eb9;fill-rule:evenodd" />
        <path
   clip-rule="evenodd"
   d="m 188.8,374.885 c -3.34,-9.559 -10.794,-15.006 -17.7,-21 3.168,1.133 8.328,2.871 10.8,5.701 0,0.1 0,0.199 0,0.299 0.496,0.703 1.75,0.65 3,0.6 7.6,0 15.2,0 22.8,0 0.1,0 0.2,0 0.3,0 1.303,1.898 3.062,3.338 3.3,6.301 -10.077,2.283 -17.302,-5.287 -27.9,-5.4 1.262,3.34 5.357,6.441 5.7,11.701 -0.173,0.526 0.362,1.761 -0.3,1.798 z"
   id="path308"
   inkscape:connector-curvature="0"
   style="fill:#f8bed5;fill-rule:evenodd" />
        <path
   clip-rule="evenodd"
   d="m 184.9,360.186 c 7.5,0.199 15.8,-0.4 22.8,0.299 -7.6,0 -15.2,0 -22.8,0 0,-0.1 0,-0.2 0,-0.299 z"
   id="path310"
   inkscape:connector-curvature="0"
   style="fill:#ef5694;fill-rule:evenodd" />
        <path
   clip-rule="evenodd"
   d="m 265.3,368.285 c 0.196,1.703 -0.395,4.195 0.3,5.4 -0.094,0.404 -0.427,0.572 -0.3,1.199 -0.623,-0.076 -0.082,-1.318 -0.6,-1.5 0.891,-1.009 -0.291,-4.089 0.6,-5.099 z"
   id="path312"
   inkscape:connector-curvature="0"
   style="fill:#eb7fa7;fill-rule:evenodd" />
        <path
   clip-rule="evenodd"
   d="m 197.5,384.785 c 2.949,2.051 4.565,5.436 6,9 -2.404,-1.697 -4.908,-5.891 -7.2,-8.699 0.056,-0.445 0.725,-0.275 1.2,-0.301 z"
   id="path314"
   inkscape:connector-curvature="0"
   style="fill:#f8bed5;fill-rule:evenodd" />
        <path
   clip-rule="evenodd"
   d="m 205.3,400.385 c 0.415,0.146 0.729,2.705 -0.3,2.4 0,-0.199 0,-0.4 0,-0.6 0.1,0 0.2,0 0.3,0 0,-0.599 0,-1.201 0,-1.8 z"
   id="path316"
   inkscape:connector-curvature="0"
   style="fill:#ef5694;fill-rule:evenodd" />
        <path
   clip-rule="evenodd"
   d="m 296.5,403.984 c -0.592,0.209 0.074,1.674 -0.6,1.801 0.198,-2.801 -0.398,-6.398 0.3,-8.699 0.197,2.201 -0.396,5.195 0.3,6.898 z"
   id="path318"
   inkscape:connector-curvature="0"
   style="fill:#eb7fa7;fill-rule:evenodd" />
        <path
   clip-rule="evenodd"
   d="m 279.1,76.085 c 3.102,0.199 6.998,-0.398 9.601,0.3 -3.102,-0.198 -6.999,0.398 -9.601,-0.3 z"
   id="path320"
   inkscape:connector-curvature="0"
   style="fill:#f8bed5;fill-rule:evenodd" />
        <path
   clip-rule="evenodd"
   d="m 250.3,143.585 c 6.4,0 12.8,0 19.2,0 -5.701,0.5 -13.499,0.5 -19.2,0 z"
   id="path322"
   inkscape:connector-curvature="0"
   style="fill:#de9eb9;fill-rule:evenodd" />
        <path
   clip-rule="evenodd"
   d="m 188.2,145.685 c 0.199,3.901 -0.399,8.599 0.3,12 -0.133,0.267 -0.263,0.537 -0.6,0.6 0.241,-1.041 -0.447,-1.153 -0.3,-2.1 0.898,-2.803 -0.297,-7.697 0.6,-10.5 z"
   id="path324"
   inkscape:connector-curvature="0"
   style="fill:#f8bed5;fill-rule:evenodd" />
        <path
   clip-rule="evenodd"
   d="m 244.6,172.685 c 1.404,-0.695 4.097,-0.104 6,-0.3 -1.405,0.696 -4.097,0.103 -6,0.3 z"
   id="path326"
   inkscape:connector-curvature="0"
   style="fill:#f8bed5;fill-rule:evenodd" />
        <path
   clip-rule="evenodd"
   d="m 199.9,304.686 c 0.312,-1.439 0.547,4.664 1.8,5.4 -0.501,7.463 1.352,19.174 -6,18.898 -0.993,-5.01 4.382,-6.205 3.9,-11.699 0.699,-3.601 0.101,-8.5 0.3,-12.599 z"
   id="path328"
   inkscape:connector-curvature="0"
   style="fill:#f8bed5;fill-rule:evenodd" />
        <path
   clip-rule="evenodd"
   d="m 177.1,289.984 c 0,2.5 0,5 0,7.5 -0.499,-1.804 -0.499,-5.695 0,-7.5 z"
   id="path330"
   inkscape:connector-curvature="0"
   style="fill:#ef5694;fill-rule:evenodd" />
        <path
   clip-rule="evenodd"
   d="m 138.4,312.785 c 0.698,2.602 0.102,6.498 0.3,9.6 -0.369,-0.131 -0.616,-0.383 -0.6,-0.9 0.698,-2.301 0.102,-5.899 0.3,-8.7 z"
   id="path332"
   inkscape:connector-curvature="0"
   style="fill:#ef5694;fill-rule:evenodd" />
        <path
   clip-rule="evenodd"
   d="m 314.8,319.385 c 1.011,0.189 2.787,-0.387 3.3,0.301 -1.01,-0.192 -2.787,0.386 -3.3,-0.301 z"
   id="path334"
   inkscape:connector-curvature="0"
   style="fill:#ef5694;fill-rule:evenodd" />
        <path
   clip-rule="evenodd"
   d="m 333.7,385.686 c 2.003,-0.697 5.298,-0.102 7.8,-0.301 -2.003,0.697 -5.298,0.101 -7.8,0.301 z"
   id="path336"
   inkscape:connector-curvature="0"
   style="fill:#ef5694;fill-rule:evenodd" />
        <path
   clip-rule="evenodd"
   d="m 268,147.485 c -0.354,-0.146 -0.68,-0.32 -0.9,-0.6 6.801,0 13.601,0 20.4,0 -5.801,0.899 -13.699,-0.299 -19.5,0.6 z"
   id="path338"
   inkscape:connector-curvature="0"
   style="fill:#eb7fa7;fill-rule:evenodd" />
        <path
   clip-rule="evenodd"
   d="m 360.1,234.484 c -1.231,0.869 -2.632,1.568 -4.199,2.101 0.263,-0.837 0.718,-1.481 0.899,-2.399 1.347,-0.149 2.248,0.152 3.3,0.298 z"
   id="path340"
   inkscape:connector-curvature="0"
   style="fill:#de9eb9;fill-rule:evenodd" />
        <path
   clip-rule="evenodd"
   d="m 169,249.484 c 0,2.701 0,5.4 0,8.101 0,0.2 0,0.399 0,0.601 -0.1,0 -0.2,0 -0.3,0 0.198,-2.803 -0.398,-6.399 0.3,-8.702 z"
   id="path342"
   inkscape:connector-curvature="0"
   style="fill:#de9eb9;fill-rule:evenodd" />
        <path
   clip-rule="evenodd"
   d="m 367.3,281.885 c 0.228,-0.507 1.094,-3.152 0.3,-4.8 3.798,-2.831 8.029,-2.013 12.301,-3 7.97,-1.843 15.314,-7.139 22.5,-9.3 1.684,0.216 0.834,2.966 1.5,4.199 -0.912,3.746 -8.377,2.879 -13.801,3.301 -4.686,0.365 -8.757,2.732 -12.899,4.5 -4.377,1.867 -7.405,1.861 -9.901,5.1 z"
   id="path344"
   inkscape:connector-curvature="0"
   style="fill:#de9eb9;fill-rule:evenodd" />
        <path
   clip-rule="evenodd"
   d="m 312.7,267.484 c -0.751,-0.248 -1.179,-0.821 -2.101,-0.899 3.455,1.399 7.396,-0.634 12,0 1.643,5.692 -6.119,6.772 -9.6,9.3 -5.203,3.197 -7.224,9.576 -9.9,15.301 -0.104,-9.505 8.648,-12.752 10.5,-21.301 0.677,-0.223 0.118,-1.682 0.301,-2.4 -0.4,-0.001 -0.8,-0.001 -1.2,-0.001 z"
   id="path346"
   inkscape:connector-curvature="0"
   style="fill:#de9eb9;fill-rule:evenodd" />
        <path
   clip-rule="evenodd"
   d="m 145.6,299.285 c -0.198,2.303 0.397,5.396 -0.3,7.199 0.198,-2.302 -0.397,-5.396 0.3,-7.199 z"
   id="path348"
   inkscape:connector-curvature="0"
   style="fill:#de9eb9;fill-rule:evenodd" />
        <path
   clip-rule="evenodd"
   d="m 385,304.686 c -3.54,1.273 -9.79,1.391 -14.1,0.9 3.799,-1.039 9.407,-1.744 14.1,-0.9 z"
   id="path350"
   inkscape:connector-curvature="0"
   style="fill:#de9eb9;fill-rule:evenodd" />
        <path
   clip-rule="evenodd"
   d="m 337,315.785 c 3.964,-2.037 9.509,-2.492 15.6,-2.4 -3.378,1.623 -7.219,2.781 -12.3,2.701 -1.01,-0.191 -2.786,0.385 -3.3,-0.301 z"
   id="path352"
   inkscape:connector-curvature="0"
   style="fill:#de9eb9;fill-rule:evenodd" />
        <path
   clip-rule="evenodd"
   d="m 310,370.385 c -3.436,0.396 -5.961,-2.199 -9,-3.6 -4.699,-2.166 -9.752,-2.693 -12,-7.199 -0.462,-0.16 -0.02,-0.314 0.3,-0.301 7.626,2.975 16.296,4.904 20.7,11.1 z"
   id="path354"
   inkscape:connector-curvature="0"
   style="fill:#de9eb9;fill-rule:evenodd" />
    </g>
</g>
</svg>