<?xml version="1.0" encoding="utf-8"?>
<!DOCTYPE svg PUBLIC "-//W3C//DTD SVG 1.1//EN" "http://www.w3.org/Graphics/SVG/1.1/DTD/svg11.dtd">
<svg version="1.1" xmlns="http://www.w3.org/2000/svg" xmlns:xlink="http://www.w3.org/1999/xlink" x="0px" y="0px"
     width="40px" height="40px" viewBox="0 0 500 500" enable-background="new 0 0 500 500" xml:space="preserve">
<g>
    <g>
        <path fill-rule="evenodd" clip-rule="evenodd" fill="#F8BED5" d="M252.7,48.185c1.705-0.499,5.495-0.499,7.2,0
            C257.5,48.185,255.1,48.185,252.7,48.185z"/>
        <path fill-rule="evenodd" clip-rule="evenodd" fill="#F8BED5" d="M260.5,73.085c0.301-0.001,0.357,0.243,0.6,0.3
            c0,0.1,0,0.2,0,0.3c-0.898,4.001,0.299,10.099-0.6,14.1C260.5,82.885,260.5,77.985,260.5,73.085z"/>
        <path fill-rule="evenodd" clip-rule="evenodd" fill="#EB7FA7" d="M224.5,98.585c0.42-0.497,2.88-0.497,3.3,0
            C226.7,98.585,225.6,98.585,224.5,98.585z"/>
        <path fill-rule="evenodd" clip-rule="evenodd" fill="#FADDE8" d="M64.9,128.585c-0.195,1.505,0.393,3.793-0.3,4.8
            C64.795,131.88,64.207,129.592,64.9,128.585z"/>
        <path fill-rule="evenodd" clip-rule="evenodd" fill="#EB7FA7" d="M320.2,130.685c1,0,2,0,3,0
            C322.877,131.182,320.523,131.182,320.2,130.685z"/>
        <path fill-rule="evenodd" clip-rule="evenodd" fill="#FADDE8" d="M64.6,133.985c0.691,0.809,0.106,2.894,0.3,4.2
            C64.208,137.376,64.793,135.292,64.6,133.985z"/>
        <path fill-rule="evenodd" clip-rule="evenodd" fill="#EB7FA7" d="M369.7,139.985c3.001-0.698,7.299-0.101,10.8-0.3
            C377.499,140.384,373.201,139.786,369.7,139.985z"/>
        <path fill-rule="evenodd" clip-rule="evenodd" fill="#EB7FA7" d="M277.3,142.385c0.514,0.687,2.29,0.11,3.3,0.3c0,0.1,0,0.2,0,0.3
            C279.537,142.867,275.612,143.373,277.3,142.385z"/>
        <path fill-rule="evenodd" clip-rule="evenodd" fill="#FADDE8" d="M65.2,150.485c0.692,0.908,0.105,3.094,0.3,4.5
            C64.808,154.078,65.395,151.891,65.2,150.485z"/>
        <path fill-rule="evenodd" clip-rule="evenodd" fill="#F8BED5" d="M441.7,156.185c-0.19,1.01,0.387,2.787-0.3,3.3
            C441.59,158.475,441.014,156.699,441.7,156.185z"/>
        <path fill-rule="evenodd" clip-rule="evenodd" fill="#FADDE8" d="M65.5,158.885c0.692,0.908,0.106,3.094,0.3,4.5
            C65.108,162.478,65.694,160.291,65.5,158.885z"/>
        <path fill-rule="evenodd" clip-rule="evenodd" fill="#FADDE8" d="M65.8,167.285c0.692,0.908,0.106,3.094,0.3,4.5
            C65.408,170.877,65.994,168.691,65.8,167.285z"/>
        <path fill-rule="evenodd" clip-rule="evenodd" fill="#EB7FA7" d="M244.3,173.585c1.109-0.499,4.292-0.499,5.4,0
            C247.9,173.585,246.1,173.585,244.3,173.585z"/>
        <path fill-rule="evenodd" clip-rule="evenodd" fill="#FADDE8" d="M66.1,175.685c0.693,1.007,0.105,3.295,0.3,4.8
            C65.707,179.479,66.295,177.19,66.1,175.685z"/>
        <path fill-rule="evenodd" clip-rule="evenodd" fill="#FADDE8" d="M440.8,186.485c0.191-1.108-0.389-2.988,0.3-3.6
            C440.908,183.994,441.488,185.874,440.8,186.485z"/>
        <path fill-rule="evenodd" clip-rule="evenodd" fill="#FADDE8" d="M66.4,184.385c0.692,0.908,0.106,3.094,0.3,4.5
            C66.008,187.978,66.594,185.791,66.4,184.385z"/>
        <path fill-rule="evenodd" clip-rule="evenodd" fill="#F8BED5" d="M214.9,185.285c0,1.4,0,2.8,0,4.2
            C214.402,188.771,214.402,185.999,214.9,185.285z"/>
        <path fill-rule="evenodd" clip-rule="evenodd" fill="#FADDE8" d="M66.7,192.785c0.692,0.908,0.105,3.094,0.3,4.5
            C66.308,196.377,66.895,194.191,66.7,192.785z"/>
        <path fill-rule="evenodd" clip-rule="evenodd" fill="#FADDE8" d="M67,201.185c0.692,0.908,0.106,3.094,0.3,4.5
            C66.608,204.777,67.194,202.591,67,201.185z"/>
        <path fill-rule="evenodd" clip-rule="evenodd" fill="#EB7FA7" d="M255.4,209.585c0.416-0.684,2.088-0.112,3-0.3c0,0.1,0,0.2,0,0.3
            C257.4,209.585,256.4,209.585,255.4,209.585z"/>
        <path fill-rule="evenodd" clip-rule="evenodd" fill="#FADDE8" d="M67.3,209.585c0.692,0.908,0.106,3.094,0.3,4.5
            C66.908,213.177,67.494,210.991,67.3,209.585z"/>
        <path fill-rule="evenodd" clip-rule="evenodd" fill="#EB7FA7" d="M247.6,209.885c0.416-0.684,2.088-0.112,3-0.3c0,0.1,0,0.2,0,0.3
            C249.6,209.885,248.6,209.885,247.6,209.885z"/>
        <path fill-rule="evenodd" clip-rule="evenodd" fill="#FADDE8" d="M67.6,217.985c0.692,0.908,0.105,3.095,0.3,4.5
            C67.208,221.578,67.794,219.391,67.6,217.985z"/>
        <path fill-rule="evenodd" clip-rule="evenodd" fill="#FADDE8" d="M67.9,226.385c0.692,0.908,0.106,3.094,0.3,4.5
            C67.508,229.978,68.094,227.791,67.9,226.385z"/>
        <path fill-rule="evenodd" clip-rule="evenodd" fill="#EB7FA7" d="M172.3,227.585c-1.705,0.5-5.495,0.5-7.2,0
            C167.5,227.585,169.9,227.585,172.3,227.585z"/>
        <path fill-rule="evenodd" clip-rule="evenodd" fill="#FADDE8" d="M439.6,230.885c0.188-0.912-0.384-2.583,0.301-3
            C439.712,228.797,440.284,230.469,439.6,230.885z"/>
        <path fill-rule="evenodd" clip-rule="evenodd" fill="#FADDE8" d="M68.2,234.785c0.692,0.908,0.105,3.094,0.3,4.5
            C67.808,238.377,68.395,236.191,68.2,234.785z"/>
        <path fill-rule="evenodd" clip-rule="evenodd" fill="#EB7FA7" d="M360.7,247.085c-0.5-2.603-0.5-7.297,0-9.899
            C360.7,240.484,360.7,243.785,360.7,247.085z"/>
        <path fill-rule="evenodd" clip-rule="evenodd" fill="#FADDE8" d="M439.3,241.984c0.188-0.911-0.384-2.584,0.3-3
            C439.412,239.896,439.984,241.569,439.3,241.984z"/>
        <path fill-rule="evenodd" clip-rule="evenodd" fill="#FADDE8" d="M68.5,243.186c0.692,0.907,0.106,3.094,0.3,4.5
            C68.108,246.777,68.694,244.591,68.5,243.186z"/>
        <path fill-rule="evenodd" clip-rule="evenodd" fill="#FADDE8" d="M439,253.085c0.188-0.911-0.384-2.584,0.3-3
            C439.112,250.997,439.684,252.669,439,253.085z"/>
        <path fill-rule="evenodd" clip-rule="evenodd" fill="#EB7FA7" d="M110.2,250.385c0.684,0.416,0.112,2.088,0.3,3
            C109.816,252.969,110.388,251.297,110.2,250.385z"/>
        <path fill-rule="evenodd" clip-rule="evenodd" fill="#FADDE8" d="M68.8,251.585c0.692,0.907,0.106,3.095,0.3,4.5
            C68.408,255.178,68.994,252.99,68.8,251.585z"/>
        <path fill-rule="evenodd" clip-rule="evenodd" fill="#EB7FA7" d="M153.4,284.885c0-8.9,0-17.8,0-26.699
            c0.588,0.412,0.162,1.838,0.6,2.399C153.101,267.985,154.299,277.484,153.4,284.885z"/>
        <path fill-rule="evenodd" clip-rule="evenodd" fill="#FADDE8" d="M69.1,259.984c0.692,0.908,0.105,3.096,0.3,4.5
            C68.708,263.578,69.294,261.391,69.1,259.984z"/>
        <path fill-rule="evenodd" clip-rule="evenodd" fill="#FADDE8" d="M69.4,268.686c0.692,0.907,0.106,3.094,0.3,4.5
            C69.008,272.277,69.594,270.091,69.4,268.686z"/>
        <path fill-rule="evenodd" clip-rule="evenodd" fill="#FADDE8" d="M69.7,277.085c0.692,0.907,0.105,3.095,0.3,4.5
            C69.308,280.678,69.895,278.49,69.7,277.085z"/>
        <path fill-rule="evenodd" clip-rule="evenodd" fill="#FADDE8" d="M70,285.484c0.692,0.908,0.106,3.096,0.3,4.5
            C69.608,289.078,70.194,286.891,70,285.484z"/>
        <path fill-rule="evenodd" clip-rule="evenodd" fill="#FADDE8" d="M70.3,293.885c0.692,0.908,0.106,3.094,0.3,4.5
            C69.908,297.477,70.494,295.291,70.3,293.885z"/>
        <path fill-rule="evenodd" clip-rule="evenodd" fill="#FADDE8" d="M70.6,302.285c0.692,0.908,0.105,3.094,0.3,4.5
            C70.208,305.877,70.794,303.691,70.6,302.285z"/>
        <path fill-rule="evenodd" clip-rule="evenodd" fill="#EF5694" d="M199.6,317.285c0.199-4.102-0.399-8.998,0.3-12.6
            C199.701,308.785,200.299,313.684,199.6,317.285z"/>
        <path fill-rule="evenodd" clip-rule="evenodd" fill="#FADDE8" d="M70.9,310.686c0.692,0.906,0.106,3.094,0.3,4.5
            C70.508,314.277,71.094,312.09,70.9,310.686z"/>
        <path fill-rule="evenodd" clip-rule="evenodd" fill="#EB7FA7" d="M115,316.984c0.695,1.305,0.104,3.896,0.3,5.701
            C114.605,321.381,115.196,318.789,115,316.984z"/>
        <path fill-rule="evenodd" clip-rule="evenodd" fill="#FADDE8" d="M71.2,319.086c0.692,0.906,0.105,3.094,0.3,4.5
            C70.808,322.678,71.395,320.49,71.2,319.086z"/>
        <path fill-rule="evenodd" clip-rule="evenodd" fill="#EB7FA7" d="M138.7,335.586c0.307-2.449-1.424-10.484-0.3-12.602
            c-0.029,0.057,0.689,0.67,0.6,0.9C138.301,327.186,138.899,331.783,138.7,335.586z"/>
        <path fill-rule="evenodd" clip-rule="evenodd" fill="#FADDE8" d="M71.5,327.484c0.692,0.908,0.106,3.096,0.3,4.5
            C71.108,331.078,71.694,328.891,71.5,327.484z"/>
        <path fill-rule="evenodd" clip-rule="evenodd" fill="#FADDE8" d="M71.8,338.586c0.69,0.709,0.107,2.691,0.3,3.898
            C71.41,341.775,71.993,339.793,71.8,338.586z"/>
        <path fill-rule="evenodd" clip-rule="evenodd" fill="#EB7FA7" d="M115,351.785c2.302,0.197,5.397-0.396,7.2,0.301
            C119.897,351.887,116.803,352.482,115,351.785z"/>
        <path fill-rule="evenodd" clip-rule="evenodd" fill="#EB7FA7" d="M301.9,377.885c-0.497-0.42-0.497-2.879,0-3.299
            C301.9,375.686,301.9,376.785,301.9,377.885z"/>
        <path fill-rule="evenodd" clip-rule="evenodd" fill="#EF5694" d="M270.1,420.785c1.2,0,2.4,0,3.601,0
            C273.183,421.283,270.617,421.283,270.1,420.785z"/>
        <path fill-rule="evenodd" clip-rule="evenodd" fill="#EB7FA7" d="M219.7,426.785c1,0,2,0,3,0
            C222.376,427.281,220.023,427.281,219.7,426.785z"/>
        <path fill-rule="evenodd" clip-rule="evenodd" fill="#FADDE8" d="M243.1,464.586c1,0,2,0,3,0c0.183,0.016,0.355,0.045,0.3,0.299
            C245.39,464.695,243.613,465.271,243.1,464.586z"/>
        <path fill-rule="evenodd" clip-rule="evenodd" fill="#FADDE8" d="M73,347.885c4.098,5.158,14.204,10.924,20.1,15
            c47.081,32.551,95.473,65.121,141.6,97.801c-49.603-33.697-99.837-69.65-150.6-103.5C79.694,354.246,75.046,351.967,73,347.885z"
            />
        <path fill-rule="evenodd" clip-rule="evenodd" fill="#EB7FA7" d="M122.8,121.385c-0.625-1.624,3.152-3.776,4.5-5.4
            c-1.423,1.877-3.376,3.224-4.8,5.1C122.755,121.03,122.783,121.202,122.8,121.385z"/>
        <path fill-rule="evenodd" clip-rule="evenodd" fill="#FADDE8" d="M439.3,135.785c0.056,0.255-0.117,0.283-0.3,0.3
            c-54.853,31.04-109.76,64.078-165,95.101c-7.878,4.424-16.287,8.358-23.7,13.199c-1.914,1.25-3.582,2.656-4.5,5.4
            c-60.305-41.295-119.866-83.334-179.7-125.1c6.39-6.28,14.683-10.31,22.5-14.7c51.095-28.694,101.736-58.384,153.3-87.3
            c3.607-2.023,9.286-5.842,12.3-6c3.914-0.205,8.45,3.361,12.899,6.3c49.489,32.681,99.328,64.94,149.101,96.9
            c3.388,2.175,7.592,4.628,11.7,7.2C432.517,129.976,437.498,131.975,439.3,135.785z M122.8,121.385
            c2.295,1.469,4.988,0.773,7.8,1.5c3.022,0.78,6.094,3.253,9.3,4.2c3.593,1.061,7.465,0.312,9.3,3
            c-5.316,0.439-8.812-1.166-12.3-2.1c-2.078-0.556-4.263-0.599-6-1.2c-3.667-1.269-6.66-4.562-11.1-3.6
            c-0.148,3.626-1.695,7.154-1.2,10.2c0.543,3.345,3.933,5.478,4.5,8.4c7.172,4.108,12.676,11.759,20.1,16.8
            c4.125,2.801,10.088,4.286,15.3,6.3c3.251,1.256,6.028,4.43,10.2,3.9c1.305,0.695,3.896,0.104,5.7,0.3
            c7.683-0.686,15.909,0.136,20.7-1.8c1.59-0.643,3.239-1.867,4.8-2.7c5.345-2.852,10.03-5.659,13.8-9.9
            c2.345-2.639,4.754-7.588,9.3-7.5c1.8,0,3.6,0,5.4,0c4.558,1.427,6.401,8.495,4.5,12.9c-1.124,2.604-4.554,3.481-6.9,5.4
            c-6.017,4.92-10.677,12.084-11.1,19.8c-0.498,0.713-0.498,3.486,0,4.2c3.893,11.807,16.304,15.096,26.7,20.4
            c0.812,0.498,3.688,0.498,4.5,0c0.5,0,1,0,1.5,0c1,0,2,0,3,0c1.011-0.19,2.787,0.386,3.301-0.3c0.5,0,1,0,1.5,0c1,0,2,0,3,0
            c1.01-0.19,2.786,0.387,3.3-0.3c4.416,0.348,6.526-1.29,9.6-2.4c2.181-0.788,4.344-1.694,6.3-2.4
            c4.459-1.608,9.307-2.434,12.9-4.2c2.978-1.463,5.779-3.869,8.7-5.7c9.033-5.664,18.049-11.689,26.7-17.1
            c2.351-4.949,5.149-9.45,7.8-14.1c4.024-3.775,7.925-7.675,11.7-11.7c8.16-3.839,16.162-7.837,24.3-11.7
            c3.501-0.199,7.799,0.399,10.8-0.3c2.523-3.077,7.713-3.487,7.2-9.6c-1.375-1.625-2.875-3.125-4.5-4.5
            c-7.549-1.093-15.698-2.628-22.8-3.6c-7.635-1.044-15.074-2.207-20.7-5.1c-5.185-2.666-8.834-8.604-12-13.5
            c-1.427-2.206-3.235-4.086-3.9-6c-1.127-3.248-0.338-6.642-1.8-10.5c-0.784-2.072-5.077-8.012-6.6-9.3
            c-2.176-1.84-6.115-3.611-9.301-5.4c-9.497-5.334-20.299-9.648-29.399-15c-5.869-3.452-9.541-8.142-16.8-9
            c-1.705-0.499-5.495-0.499-7.2,0c-4.716,1.458-8.194,1.292-11.4,2.7c-2.463,1.082-7.559,5.065-9.3,6.9
            c-4.659,4.908-6.684,12.33-13.2,14.7c-3.049,1.109-6.549,0.637-10.5,1.5c-4.601,0.2-9.999-0.399-14.1,0.3
            c-3.094,1.695-6.033,1.621-8.7,3.3c-5.768,3.632-8.748,11.806-14.7,15c-8.449,4.535-20.101,3.306-27.3,7.8
            c-6.434,4.017-11.378,10.305-16.2,15.6C125.952,117.609,122.175,119.761,122.8,121.385z"/>
        <path fill-rule="evenodd" clip-rule="evenodd" fill="#F8BED5" d="M333.7,163.385c3.774-4.025,7.675-7.925,11.7-11.7
            C341.625,155.71,337.725,159.61,333.7,163.385z"/>
        <path fill-rule="evenodd" clip-rule="evenodd" fill="#EF5694" d="M387.7,130.085c0.513,6.113-4.677,6.523-7.2,9.6
            c-3.501,0.199-7.799-0.398-10.8,0.3c-8.138,3.863-16.14,7.861-24.3,11.7c-4.025,3.775-7.926,7.675-11.7,11.7
            c-2.65,4.65-5.449,9.15-7.8,14.1c-8.651,5.411-17.667,11.437-26.7,17.1c-2.921,1.832-5.723,4.237-8.7,5.7
            c-3.594,1.766-8.441,2.592-12.9,4.2c-1.956,0.706-4.119,1.612-6.3,2.4c-3.073,1.11-5.184,2.748-9.6,2.4c-1.101,0-2.2,0-3.3,0
            c-0.912,0.188-2.584-0.384-3,0.3c-0.5,0-1,0-1.5,0c-1.101,0-2.2,0-3.301,0c-0.912,0.188-2.583-0.384-3,0.3c-0.5,0-1,0-1.5,0
            c-1.5,0-3,0-4.5,0c-10.396-5.304-22.807-8.593-26.7-20.4c0-1.4,0-2.8,0-4.2c0.423-7.716,5.083-14.88,11.1-19.8
            c2.346-1.918,5.776-2.795,6.9-5.4c1.901-4.405,0.058-11.473-4.5-12.9c-1.108-0.499-4.292-0.499-5.4,0
            c-4.546-0.088-6.955,4.861-9.3,7.5c-3.77,4.241-8.455,7.048-13.8,9.9c-1.561,0.833-3.21,2.058-4.8,2.7
            c-4.792,1.936-13.017,1.114-20.7,1.8c-1.305-0.695-3.896-0.104-5.7-0.3c-4.172,0.53-6.949-2.644-10.2-3.9
            c-5.211-2.014-11.174-3.499-15.3-6.3c-7.424-5.041-12.928-12.691-20.1-16.8c-0.567-2.922-3.957-5.055-4.5-8.4
            c-0.495-3.046,1.052-6.574,1.2-10.2c4.44-0.962,7.434,2.332,11.1,3.6c1.737,0.601,3.922,0.644,6,1.2
            c3.488,0.934,6.984,2.539,12.3,2.1c-1.835-2.688-5.708-1.939-9.3-3c-3.206-0.946-6.277-3.419-9.3-4.2
            c-2.812-0.727-5.505-0.031-7.8-1.5c-0.017-0.183-0.044-0.355-0.3-0.3c1.423-1.876,3.376-3.223,4.8-5.1
            c4.822-5.294,9.766-11.583,16.2-15.6c7.199-4.494,18.851-3.266,27.3-7.8c5.952-3.194,8.933-11.368,14.7-15
            c2.667-1.679,5.606-1.604,8.7-3.3c4.601-0.199,9.999,0.399,14.1-0.3c3.951-0.863,7.451-0.391,10.5-1.5
            c6.517-2.37,8.541-9.792,13.2-14.7c1.741-1.834,6.837-5.818,9.3-6.9c3.207-1.408,6.685-1.242,11.4-2.7c2.399,0,4.8,0,7.2,0
            c7.259,0.858,10.931,5.548,16.8,9c9.101,5.352,19.902,9.666,29.399,15c3.186,1.789,7.125,3.56,9.301,5.4
            c1.522,1.288,5.815,7.229,6.6,9.3c1.462,3.858,0.673,7.252,1.8,10.5c0.665,1.914,2.474,3.794,3.9,6
            c3.166,4.896,6.815,10.834,12,13.5c5.626,2.893,13.065,4.056,20.7,5.1c7.102,0.972,15.251,2.507,22.8,3.6
            C384.575,127.21,386.075,128.71,387.7,130.085z M255.1,62.585c0.771,0.05,1.9,1.273,2.4,0.6
            C257.024,62.84,255.895,61.617,255.1,62.585z M260.5,68.885c-0.428-2.273-1.583-3.817-3-5.1c0.439,3.46,1.089,6.711,3,8.7
            c0,0.2,0,0.4,0,0.6c0,4.9,0,9.8,0,14.7c0.054,1.364-1.069,3.117-0.3,4.2c1.295-2.305,2.612-4.587,3-7.8
            c0.498-0.812,0.498-3.688,0-4.5c0.267-2.967-0.865-4.535-2.101-6c0-0.1,0-0.2,0-0.3C260.282,72.503,261.338,69.748,260.5,68.885z
             M288.7,76.385c3.788,2.812,6.849,6.351,12,7.8c-4.661-3.939-6.551-13.25-17.101-12.3c-1.539,1.192-6.37,2.187-5.1,4.2
            c0.2,0,0.4,0,0.6,0C281.702,76.783,285.599,76.187,288.7,76.385z M219.4,79.685c-0.882,7.183,6.346,7.853,11.1,8.4
            C227.916,84.169,223.282,82.303,219.4,79.685z M231.1,88.985c1.827,1.076,3.985,3.412,7.2,2.1
            C235.539,90.943,233.648,88.341,231.1,88.985z M224.5,98.585c-6.91-0.71-10.769,1.631-11.7,6.9c-0.499,1.109-0.499,4.292,0,5.4
            c-0.066,2.466,0.543,4.256,1.2,6c8.842,0.758,13.331,5.869,15.9,12.9c-0.715-0.137-2.182-2.207-2.4-0.9
            c0.434,1.84-1.045,4.876,0.6,6.6c1.975,1.368,6.425,1.146,8.1-0.3c0.087-2.412,0.419-4.581,1.2-6.3
            c2.868-2.833,10.354-1.047,13.2-3.9c2.618-7.939-3.539-11.972-7.8-15c-0.874-1.125-1.874-2.125-3-3
            c-3.32-3.479-6.647-6.952-12-8.4C227.38,98.088,224.92,98.088,224.5,98.585z M271.9,112.985c4.833-5.267,12.917-7.282,16.8-13.5
            C278.323,99.009,275.478,107.662,271.9,112.985z M270.7,113.885c-0.12,0.78-0.896,0.905-0.9,1.8
            C270.678,115.839,271.392,114.308,270.7,113.885z M165.4,99.785c-0.066-0.234-0.251-0.349-0.6-0.3
            c0.084,1.022,2.218,2.578,3.3,3.6c1.625-0.025,2.494,0.706,4.2,0.6c3.741,7.959,9.487,15.513,18.9,16.8
            c-4.057-1.237-4.992-5.493-7.5-8.1c-1.039-1.08-2.68-1.556-3.9-2.7C175.328,105.491,172.62,100.598,165.4,99.785z M277.3,142.385
            c5.298-2.64,7.186-8.898,11.4-12.6c2.382-2.092,5.618-3.545,7.8-6c1.367-1.538,2.112-3.585,3.3-5.4
            c-4.275,1.681-5.256,5.907-8.399,8.4c-4.585,3.634-10.731,5.542-13.801,10.8c-0.445,1.854-1.46,3.14-2.699,4.2
            c-2.367,0.033-3.068,1.732-5.4,1.8c-6.4,0-12.8,0-19.2,0c-0.527,0.173-1.762-0.362-1.8,0.3c1.205,0.611,2.873,0.914,2.1,2.7
            c3.233,1.368,8.977,0.224,13.2,0.6c0.561,0.939,0.915,2.085,1.5,3c0.052-0.449-0.106-1.107,0.3-1.2
            c5.971,1.914,8.815,5.779,13.5,9.6c6.289,5.128,11.887,7.23,14.4,15c1.421-0.121,2.064,0.536,3.6,0.3
            c-1.137-3.658-3.461-6.248-5.399-8.7c-0.759-0.959-1.347-2.229-2.101-3c-2.329-2.386-5.39-2.91-8.399-4.5
            c-5.185-2.738-8.735-7.439-13.2-10.2c5.801-0.899,13.699,0.299,19.5-0.6c5.705,0.104,11.16-0.04,13.5-3.3
            c-0.081-1.019,0.232-2.432-0.3-3c-4.518-0.898-7.616,2.169-12.3,2.1c-2.601,0-5.2,0-7.801,0
            C279.59,142.495,277.813,143.072,277.3,142.385z M305.2,121.685c3.763,2.038,9.285,3.914,12.3,5.7c-2.222-2.879-4.014-6.186-9.3-6
            C307.83,120.81,303.317,120.892,305.2,121.685z M323.2,130.685c-1.939-0.761-4.167-1.233-5.4-2.7c0.57,1.13,1.062,2.337,2.4,2.7
            C320.523,131.182,322.877,131.182,323.2,130.685z M172.3,138.185c0.705-3.996,1.553-9.446,2.7-12
            c-4.398,3.901-5.566,11.034-13.2,11.7c-1.306,0.193-3.391-0.392-4.2,0.3C161.995,138.491,167.963,138.82,172.3,138.185z
             M325,131.285c1.871,0.753,3.375-0.069,4.5-0.9c-1.041-0.241-1.153,0.447-2.1,0.3c-1.109,0.191-2.989-0.389-3.601,0.3
            C324.206,131.08,324.373,131.412,325,131.285z M188.5,157.685c4.123-5.678,3.55-16.05,10.5-18.9c0.299-1.477,0.613-4.283,0-5.7
            c-5.875,1.925-9.66,5.94-10.8,12.6c-0.897,2.803,0.297,7.697-0.6,10.5c-0.25-1.45-0.837-2.562-1.5-3.6
            c0.199,3.401-0.398,7.599,0.3,10.5c0.301-1.798,1.788-2.412,1.5-4.8C188.237,158.222,188.367,157.952,188.5,157.685z M181,143.585
            c2.413,1.487,4.336,3.464,4.8,6.9c0.514,3.297,0.313-5.592,0-6.3c-2.199-2-3.796-4.603-6.3-6.3
            C179.181,140.604,180.849,141.336,181,143.585z M319.9,147.485c-2.93,0.271-3.379,3.021-5.4,4.2c-1.95,0.35-4.117,0.483-5.7,1.2
            C313.673,155.996,319.844,152.855,319.9,147.485z M244.6,172.685c-2.361-0.061-3.872,0.728-5.4,1.5
            c-3.603,4.798,2.075,6.978,2.1,11.7c-0.611-0.088-0.588-0.812-1.2-0.9c0.294,1.306,0.346,2.854,0.9,3.9
            c0.462-0.938-0.017-2.817,1.2-3c1.053-0.555,0.702-4.088,0.3-5.1c0.078-2.849-0.798-6.295,1.8-7.2c1.8,0,3.6,0,5.4,0
            c7.795-1.095,8.186,5.214,11.399,8.7c1.942-6.403-3.263-10.692-10.5-9.9C248.697,172.582,246.004,171.99,244.6,172.685z"/>
        <path fill-rule="evenodd" clip-rule="evenodd" fill="#EB7FA7" d="M383.2,125.585c1.625,1.375,3.125,2.875,4.5,4.5
            C386.075,128.71,384.575,127.21,383.2,125.585z"/>
        <path fill-rule="evenodd" clip-rule="evenodd" fill="#EB7FA7" d="M260.5,68.885c0.838,0.862-0.218,3.618,0.6,4.5
            c-0.242-0.057-0.299-0.301-0.6-0.3c0-0.2,0-0.4,0-0.6C260.5,71.285,260.5,70.085,260.5,68.885z"/>
        <path fill-rule="evenodd" clip-rule="evenodd" fill="#FADDE8" d="M260.5,72.485c-1.911-1.989-2.561-5.239-3-8.7
            c1.417,1.283,2.572,2.827,3,5.1C260.5,70.085,260.5,71.285,260.5,72.485z"/>
        <path fill-rule="evenodd" clip-rule="evenodd" fill="#FADDE8" d="M279.1,76.085c-0.199,0-0.399,0-0.6,0
            c-1.271-2.013,3.561-3.008,5.1-4.2c10.55-0.95,12.439,8.36,17.101,12.3c-5.151-1.449-8.212-4.988-12-7.8
            C286.098,75.687,282.201,76.284,279.1,76.085z"/>
        <path fill-rule="evenodd" clip-rule="evenodd" fill="#FADDE8" d="M230.5,88.085c-4.754-0.547-11.982-1.217-11.1-8.4
            C223.282,82.303,227.916,84.169,230.5,88.085z"/>
        <path fill-rule="evenodd" clip-rule="evenodd" fill="#FADDE8" d="M242.8,109.985c4.261,3.028,10.418,7.061,7.8,15
            c-2.846,2.854-10.332,1.068-13.2,3.9c-0.78,1.719-1.112,3.888-1.2,6.3c-1.675,1.445-6.125,1.667-8.1,0.3
            c-1.646-1.724-0.166-4.759-0.6-6.6c0.218-1.307,1.685,0.763,2.4,0.9c-2.569-7.031-7.058-12.142-15.9-12.9
            c-0.657-1.744-1.266-3.534-1.2-6c0-1.8,0-3.6,0-5.4c0.932-5.269,4.79-7.61,11.7-6.9c1.1,0,2.2,0,3.3,0
            c5.353,1.448,8.68,4.92,12,8.4C240.674,108.111,241.674,109.111,242.8,109.985z"/>
        <path fill-rule="evenodd" clip-rule="evenodd" fill="#F8BED5" d="M239.8,106.985c1.126,0.875,2.126,1.875,3,3
            C241.674,109.111,240.674,108.111,239.8,106.985z"/>
        <path fill-rule="evenodd" clip-rule="evenodd" fill="#FADDE8" d="M288.7,99.485c-3.883,6.218-11.967,8.233-16.8,13.5
            C275.478,107.662,278.323,99.009,288.7,99.485z"/>
        <path fill-rule="evenodd" clip-rule="evenodd" fill="#EB7FA7" d="M168.1,103.085c-1.083-1.022-3.216-2.578-3.3-3.6
            c0.349-0.049,0.534,0.066,0.6,0.3C165.234,100.76,167.52,101.859,168.1,103.085z"/>
        <path fill-rule="evenodd" clip-rule="evenodd" fill="#FADDE8" d="M165.4,99.785c7.22,0.812,9.928,5.706,14.4,9.9
            c1.221,1.145,2.861,1.62,3.9,2.7c2.508,2.607,3.443,6.862,7.5,8.1c-9.414-1.287-15.159-8.84-18.9-16.8
            c-1.706,0.105-2.575-0.625-4.2-0.6C167.52,101.859,165.234,100.76,165.4,99.785z"/>
        <path fill-rule="evenodd" clip-rule="evenodd" fill="#DE9EB9" d="M269.8,115.685c0.005-0.895,0.78-1.02,0.9-1.8
            C271.392,114.308,270.678,115.839,269.8,115.685z"/>
        <path fill-rule="evenodd" clip-rule="evenodd" fill="#EB7FA7" d="M250.6,146.585c3.713,0.888,9.491-0.291,13.2,0.6
            C259.576,146.809,253.833,147.953,250.6,146.585z"/>
        <path fill-rule="evenodd" clip-rule="evenodd" fill="#FADDE8" d="M269.5,143.585c2.332-0.068,3.033-1.767,5.4-1.8
            c1.239-1.06,2.254-2.346,2.699-4.2c3.069-5.258,9.216-7.166,13.801-10.8c3.144-2.493,4.124-6.719,8.399-8.4
            c-1.188,1.814-1.933,3.862-3.3,5.4c-2.182,2.455-5.418,3.908-7.8,6c-4.215,3.702-6.103,9.96-11.4,12.6
            c-1.688,0.988,2.237,0.481,3.3,0.6c2.503-0.198,5.798,0.397,7.801-0.3c4.684,0.069,7.782-2.998,12.3-2.1
            c0.532,0.568,0.219,1.981,0.3,3c-2.34,3.261-7.795,3.405-13.5,3.3c-6.8,0-13.6,0-20.4,0c0.221,0.28,0.546,0.454,0.9,0.6
            c4.465,2.761,8.016,7.462,13.2,10.2c3.01,1.59,6.07,2.114,8.399,4.5c0.754,0.771,1.342,2.041,2.101,3
            c1.938,2.453,4.263,5.042,5.399,8.7c-1.535,0.235-2.179-0.421-3.6-0.3c-2.514-7.77-8.111-9.872-14.4-15
            c-4.685-3.821-7.529-7.687-13.5-9.6c-0.406,0.093-0.248,0.751-0.3,1.2c-0.585-0.915-0.939-2.061-1.5-3
            c-3.709-0.891-9.487,0.288-13.2-0.6c0.773-1.786-0.895-2.088-2.1-2.7c0.038-0.663,1.272-0.127,1.8-0.3
            C256.001,144.085,263.799,144.085,269.5,143.585z"/>
        <path fill-rule="evenodd" clip-rule="evenodd" fill="#FADDE8" d="M305.2,121.685c0.416-0.684,2.088-0.112,3-0.3
            c5.286-0.186,7.078,3.121,9.3,6C314.485,125.599,308.963,123.723,305.2,121.685z"/>
        <path fill-rule="evenodd" clip-rule="evenodd" fill="#FADDE8" d="M161.8,137.885c7.634-0.667,8.802-7.799,13.2-11.7
            c-1.147,2.554-1.995,8.004-2.7,12C168.899,137.986,164.702,138.583,161.8,137.885z"/>
        <path fill-rule="evenodd" clip-rule="evenodd" fill="#FADDE8" d="M320.2,130.685c-1.338-0.363-1.83-1.57-2.4-2.7
            c1.233,1.467,3.461,1.939,5.4,2.7C322.2,130.685,321.2,130.685,320.2,130.685z"/>
        <path fill-rule="evenodd" clip-rule="evenodd" fill="#FADDE8" d="M188.2,145.685c1.14-6.66,4.925-10.675,10.8-12.6
            c0.613,1.417,0.299,4.223,0,5.7c-6.95,2.85-6.377,13.222-10.5,18.9C187.801,154.284,188.399,149.586,188.2,145.685z"/>
        <path fill-rule="evenodd" clip-rule="evenodd" fill="#FADDE8" d="M179.5,137.885c2.503,1.697,4.101,4.299,6.3,6.3
            c0.313,0.708,0.514,9.597,0,6.3c-0.464-3.436-2.387-5.413-4.8-6.9C180.849,141.336,179.181,140.604,179.5,137.885z"/>
        <path fill-rule="evenodd" clip-rule="evenodd" fill="#FADDE8" d="M308.8,152.885c1.583-0.717,3.75-0.851,5.7-1.2
            c2.021-1.179,2.471-3.929,5.4-4.2C319.844,152.855,313.673,155.996,308.8,152.885z"/>
        <path fill-rule="evenodd" clip-rule="evenodd" fill="#EE366D" d="M207.1,415.385c-5.928-2.213-11.704-6.611-17.7-10.199
            c-5.703-3.412-11.99-6.303-17.1-9.9c-2.746-1.934-5.417-4.512-8.1-6.6c-2.82-2.197-6.197-4.17-8.4-6.301
            c-1.873-1.811-3.4-4.43-5.1-6.6c-3.38-4.316-6.253-8.029-10.5-12.6c-1.386-1.492-5.462-4.666-5.7-5.701
            c-0.533-2.312,3.231-10.93,4.2-13.5c1.849-4.906,3.395-8.84,4.8-12.6c1.5-4.012,3.235-8.607,4.5-12.9
            c1.461-4.957,1.263-9.961,2.4-15c0.979-4.334,4.777-7.225,6-11.4c0.357-1.217-0.037-2.754,0.3-4.199
            c0.34-1.461,1.339-2.475,1.5-3.6c1.288-9.012-4.675-14.534-4.2-23.7c-0.438-0.562-0.012-1.987-0.6-2.399
            c0,8.899,0,17.799,0,26.699c-1.946,5.453-6.223,8.576-7.8,14.4c-0.697,1.803-0.103,4.896-0.3,7.199
            c-0.92,11.902-1.434,27.602-7.5,35.4c-1.504,1.934-3.536,3.404-6,5.701c-2.904,2.705-5.038,6.24-9.6,4.5
            c-1.803-0.697-4.898-0.104-7.2-0.301c-3.853-0.84-8.021-3.701-11.4-7.199c-4.473-4.631-6.436-9.941-9-17.102
            c-2.506-6.996-5.105-13.17-4.2-23.1c0-1,0-2,0-3c2.431-16.936,6.566-30.656,5.1-47.699c-0.566-6.58-2.588-13.646-4.2-20.101
            c-2.502-10.017-6-18.755-4.8-31.8c0.507-5.516,3.188-10.461,3.6-16.2c0.61-8.503-5.371-19.732,0.9-26.1
            c10.671,4.986,19.252,12.831,28.2,19.8c6.538,5.092,13.268,10.646,19.8,16.2c2.171,1.846,4.914,3.479,6.6,5.4
            c1.306,1.487,2.56,4.062,3.9,6c1.334,1.93,2.905,3.854,3.9,5.7c3.204,5.943,4.564,12.583,11.7,15c1.705,0.5,5.495,0.5,7.2,0
            c7.884-5.491,15.595-0.353,21.9,3.601c2.086,1.308,4.829,2.6,6.3,3.899c2.642,2.336,4.879,6.491,6.9,9.601
            c3.595,5.527,5.577,11.32,12,13.5c0.438,2.499,2.305,4.01,2.7,6c1.968,9.903-2.763,19.41-1.8,30.6c0.346,4.02,1.265,8.311,2.4,12
            c1.006,3.27,3.317,6.385,4.2,10.199c1.118,4.832,1.497,11.326,1.8,16.801c0.493,8.904-0.051,17.48-1.8,24.6
            c-0.537,2.184-2.049,4.361-2.4,6.6c-1.538,9.826,1.206,19.311,1.8,27.602c0.607,8.467-0.043,17.016,1.8,25.199
            c-1.57,3.23-1.498,8.102-5.4,9c-1,0-2,0-3,0c-1.452-0.949-2.868-1.932-4.2-3C212.825,420.859,210.025,418.061,207.1,415.385z
             M105.1,212.285c-0.449,0.051-1.107-0.107-1.2,0.3c2.554,3.917,10.573,4.546,13.5,1.2c4.016-4.591,2.913-14.263,2.1-20.7
            c-6.103-1.667-4.354,10.561-6.3,14.4c0.7-0.517,4.953-1.264,5.1,1.2c-1.501,2.398-4.271,3.528-8.4,3.3
            C108.395,212.18,106.107,211.592,105.1,212.285z M102.1,211.985c0.353-0.047,0.852,0.052,0.9-0.3
            c-0.871-0.229-0.778-1.422-2.1-1.2c0.051-0.75-0.461-0.939-0.9-1.2c-0.415-0.502-1.385-1.992-1.8-1.5
            c0.722,0.578,0.996,1.604,1.8,2.1C100.574,210.711,101.274,211.412,102.1,211.985z M92.8,196.985c1.613,2.687,1.859,6.741,4.2,8.7
            C95.639,202.746,95.25,198.835,92.8,196.985z M129.7,236.585c1.214-7.542,4.422-14.159,3.6-22.8c-1.999,1.201-3.376,3.024-3.9,5.7
            c-0.699,5.201-0.1,11.7-0.3,17.4c0.085,1.285-1.557,3.707,0,4.5c-0.232-1.832,0.393-2.807,0.3-4.5
            C129.583,236.868,129.755,236.84,129.7,236.585z M101.2,231.785c-0.523-0.022-0.933,0.066-1.2,0.3
            c0.161,1.239,0.439,2.36,0.6,3.601c3.981,3.019,6.443,7.557,9.6,11.399C109.112,240.072,105.727,235.357,101.2,231.785z
             M112.3,253.385c-0.703-1.996-0.892-4.508-2.1-6c0,1,0,2,0,3c0.188,0.912-0.384,2.584,0.3,3c-0.171,2.217,0.439,3.75,1.8,5.1
            c0-0.299,0-0.6,0-0.899C112.798,256.871,112.798,254.099,112.3,253.385z M169,257.585c1.707-2.866,3.361-8.048,1.8-12.3
            c-0.594,1.405-1.652,2.348-1.8,4.199c-0.698,2.303-0.102,5.898-0.3,8.701c-0.839,3.48-0.203,3.625,0.3,0
            C169,257.984,169,257.785,169,257.585z M152.5,252.186c-0.142-2.258-0.824-3.977-1.8-5.4
            C151.213,248.672,151.661,250.625,152.5,252.186z M177.1,297.484c-0.072,0.428-0.494,0.506-0.6,0.9c1.054-0.998,2.488-2.508,3-3.9
            c1.673-4.551,1.431-10.418,3.3-15c0.612-1.5,1.92-4,3-5.1c2.606-2.651,7.498-3.251,10.5-5.699c2.474-2.018,4.276-4.373,5.1-7.801
            c-6.746,4.954-15.277,8.123-21,14.1c-1.417,4.684-2.555,9.645-3.3,15C176.601,291.789,176.601,295.68,177.1,297.484z M172,301.084
            c2.293,0.295,3.008-0.99,3.9-2.1C174.455,299.539,172.946,300.031,172,301.084z M124.3,275.285c-0.114-2.003-1.23-6.414-0.9-2.4
            c0.076,0.917,0.625,2.111,0.6,3c0.708,0.492,0.337,2.062,0.9,2.7c2.094,16.606,10.092,27.308,13.2,42.899
            c-0.016,0.518,0.231,0.77,0.6,0.9c-0.199-3.102,0.398-6.998-0.3-9.6c-0.436-15.564-10.61-21.391-13.2-34.801
            C124.623,277.361,124.853,275.933,124.3,275.285z M115.3,322.686c0.153,0.746-0.01,1.809,0.9,1.799
            c1.138-14.938-2.222-25.377-11.4-30c0.958,9.943,10.726,11.074,10.2,22.5C115.196,318.789,114.605,321.381,115.3,322.686z
             M199.9,304.686c-0.699,3.602-0.101,8.498-0.3,12.6c0.482,5.494-4.893,6.689-3.9,11.699c7.352,0.275,5.499-11.436,6-18.898
            C200.447,309.35,200.212,303.246,199.9,304.686z M139,323.885c0.089-0.23-0.629-0.844-0.6-0.9
            c-1.124,2.117,0.607,10.152,0.3,12.602c0.025,0.975,0.154,1.844,0.6,2.398C139.145,332.48,141.158,328.262,139,323.885z
             M173.8,331.984c-1.147,0.254-2.408,0.393-3.9,0.301c0-0.801,0-1.6,0-2.4c-2.156,1.645-5.421,2.18-7.8,3.6
            c4.502-0.303,6.319,2.082,9.9,2.701c0.42,0.496,2.88,0.496,3.3,0c4.761-0.039,8-1.6,10.5-3.9c0.078,0.035,0.228-0.045,0.3,0
            C184.066,331.027,176.863,331.748,173.8,331.984z M181.9,359.586c-2.472-2.83-7.631-4.568-10.8-5.701
            c6.906,5.994,14.36,11.441,17.7,21c-0.044,0.744-0.056,1.457,0.6,1.5c-0.19-1.01,0.387-2.787-0.3-3.299
            c-0.343-5.26-4.438-8.361-5.7-11.701c10.598,0.113,17.823,7.684,27.9,5.4c-0.238-2.963-1.997-4.402-3.3-6.301c-0.1,0-0.2,0-0.3,0
            c-7-0.699-15.3-0.1-22.8-0.299C183.65,360.234,182.396,360.289,181.9,359.586z M148.9,357.484c0.569,1.23,1.307,2.293,2.1,3.301
            C150.972,359.014,149.938,358.246,148.9,357.484z M151,360.785c1.379,3.721,3.543,6.656,6.3,9
            C155.608,366.377,152.948,363.938,151,360.785z M161.5,373.686c-0.577-0.725-1.409-1.191-2.1-1.801
            c0.292,1.209,1.311,1.689,2.1,2.4c0.643,0.658,0.934,1.666,1.8,2.1C162.906,375.279,162.303,374.383,161.5,373.686z
             M197.5,384.785c-1.007-0.693-3.295-0.105-4.8-0.301c-0.537,0.752,3.14-0.15,3.6,0.602c2.292,2.809,4.796,7.002,7.2,8.699
            C202.065,390.221,200.449,386.836,197.5,384.785z M205.3,400.385c-0.041-1.357-0.459-2.34-0.9-3.299
            c-0.372,2.271,0.519,3.281,0.6,5.1c0,0.199,0,0.4,0,0.6C206.028,403.09,205.714,400.531,205.3,400.385z"/>
        <path fill-rule="evenodd" clip-rule="evenodd" fill="#E94679" d="M207.1,415.385c2.925,2.676,5.725,5.475,8.4,8.4
            C212.575,421.109,209.775,418.311,207.1,415.385z"/>
        <path fill-rule="evenodd" clip-rule="evenodd" fill="#DE9EB9" d="M242.5,180.785c0.402,1.012,0.753,4.545-0.3,5.1
            C242.831,184.716,242.35,182.435,242.5,180.785z"/>
        <path fill-rule="evenodd" clip-rule="evenodd" fill="#DE9EB9" d="M439.3,135.785c3.712,4.529,2.143,12.775,2.4,20.4
            c-0.687,0.514-0.11,2.29-0.3,3.3c0.154,8.055-0.531,15.27-0.301,23.4c-0.688,0.611-0.108,2.491-0.3,3.6
            c-0.09,14.01-0.913,27.287-0.899,41.4c-0.685,0.416-0.112,2.087-0.301,3c0,2.7,0,5.4,0,8.1c-0.684,0.416-0.111,2.089-0.3,3
            c0,2.701,0,5.4,0,8.101c-0.684,0.416-0.111,2.089-0.3,3c-0.595,24.745-1.212,51.409-2.1,77.101
            c-0.277,8.018,1.388,19.27-1.2,25.199c-1.031,2.361-7.323,5.768-10.8,7.801c-54.949,32.131-108.727,64.822-163.5,96.9
            c-5.34,3.125-7.477,5.604-15,4.799c0.055-0.254-0.117-0.283-0.3-0.299c-5.445-5.512-4.141-15.039-3.9-23.701
            c1.269-45.619,2.1-92.236,2.1-138c0-18.418,0.001-36.545,1.5-53.1c0.918-2.744,2.586-4.15,4.5-5.4
            c7.413-4.841,15.822-8.775,23.7-13.199c55.24-31.022,110.147-64.061,165-95.101C439.183,136.068,439.355,136.04,439.3,135.785z
             M417.1,308.885c-0.791-16.986,4.451-32.57,3-49.199c-0.768-8.803-4.036-17.432-4.199-26.101c-0.08-4.234,0.16-8.802,0.6-12.9
            c1.343-12.51,6.898-26.157,4.2-38.1c-4.429-1.379-9.53-3.251-14.4-2.7c-6.46,0.731-12.068,7-16.2,10.2
            c-0.988,0.766-2.704,1.542-2.399,2.7c8.611-1.095,13.924,2.653,13.2,9.9c-3.552-0.165-5.622-1.599-8.7-3.3
            c-1.85-1.022-5.724-4.351-7.8-4.2c-1.169,0.085-5.014,3.671-6.301,4.8c-2.293,2.012-3.993,3.908-5.699,5.4
            c-12.314,10.771-27.417,19.306-40.801,26.7c4.729,1.271,7.262,6.339,10.5,8.101c-5.288-1.712-10.414-3.586-14.1-6.9
            c-12.23,5.57-22.81,12.791-38.1,15.3c-6.592,4.083-9.188,9.823-12.301,18c-1.6,4.202-4.138,8.823-5.1,12.899
            c-1.441,6.113-0.343,12.719-2.7,18.6c5.297,0.49,7.647,3.107,11.101,5.4c5.767,3.83,13.01,8.814,21,9.602
            c3.082,0.303,5.191,1.393,7.5,1.199c2.907-0.244,7.4-4.871,9.6-7.5c5.934-7.092,10.055-12.846,15.3-19.5
            c4.401-5.582,6.77-11.717,13.5-14.1c-0.95,8.248-4.943,13.457-8.7,18.898c-8.62,5.025-14.822,14.326-21.899,20.701
            c-0.97,0.873-3.037,1.977-2.4,2.699c7.47-0.068,14.88-0.078,21,1.201c-3.867,3.031-10.424,3.375-17.7,3
            c-0.513-0.688-2.289-0.111-3.3-0.301c-2.775-0.35-4.428-0.418-5.7,1.201c-3.991-3.711-11.228-5.771-15.899-7.801
            c3.43,5.77,11.042,7.357,12.3,15.301c-1.177-0.725-1.7-2.102-2.7-3c0-0.102,0-0.201,0-0.301c-2.375-2.625-4.875-5.125-7.5-7.5
            c-0.649-1.25-1.309-2.49-2.1-3.6c-0.975-1.227-2.074-2.326-3.3-3.301c-3.305-1.795-5.885-4.316-10.801-4.5
            c-3.002-0.5-8.098-0.5-11.1,0c-3.228,20.174-4.93,44.393-3.3,67.5c0.518,0.182-0.023,1.424,0.6,1.5
            c2.953,12.848,3.457,28.143,3,44.4c0.79,0.311,1.011,1.189,1.8,1.5c0.518,0.498,3.083,0.498,3.601,0
            c5.135-1.449,9.48-3.74,13.5-6.301c2.005-1.275,4.424-2.531,5.7-3.6c1.811-1.518,5.237-4.895,3.6-7.799c0,0.299,0,0.6,0,0.898
            c-0.696-1.703-0.103-4.697-0.3-6.898c1.184-9.018,1.942-18.459,5.7-24.9c0,0.799,0,1.6,0,2.4c-0.497,0.42-0.497,2.879,0,3.299
            c0.125,10.227-5.044,15.156-3.9,26.4c8.876-8.025,18.534-17.865,35.7-18.6c2.502-0.199,5.797,0.396,7.8-0.301
            c3.267-0.232,5.891-1.109,9-1.5c2.173-6.727,5.838-11.963,8.1-18.6c-0.563,5.736-2.021,10.58-3.899,15
            c0.859,0.203,2.211-0.982,3.3-1.801c8.129-6.102,19.355-9.5,29.1-14.398c8.393-4.221,15.297-10.283,23.4-13.801
            c5.02-7.432,8.133-16.797,7.2-29.4c-0.191-1.107,0.389-2.988-0.3-3.6c0-1.6,0-3.199,0-4.801
            C417.209,311.377,417.788,309.496,417.1,308.885z"/>
        <path fill-rule="evenodd" clip-rule="evenodd" fill="#EE366D" d="M289.9,310.385c1.226,0.975,2.325,2.074,3.3,3.301
            C291.975,312.711,290.874,311.611,289.9,310.385z"/>
        <path fill-rule="evenodd" clip-rule="evenodd" fill="#DE9EB9" d="M417.1,326.586c-5.237-5.363-11.854-11.945-17.1-18.301
            C406.572,313.514,412.049,319.836,417.1,326.586z"/>
        <path fill-rule="evenodd" clip-rule="evenodd" fill="#E22661" d="M318.1,319.686c7.276,0.375,13.833,0.031,17.7-3
            c-6.12-1.279-13.53-1.27-21-1.201c-0.637-0.723,1.431-1.826,2.4-2.699c7.077-6.375,13.279-15.676,21.899-20.701
            c3.757-5.441,7.75-10.65,8.7-18.898c-6.73,2.383-9.099,8.518-13.5,14.1c-5.245,6.654-9.366,12.408-15.3,19.5
            c-2.199,2.629-6.692,7.256-9.6,7.5c-2.309,0.193-4.418-0.896-7.5-1.199c-7.99-0.787-15.233-5.771-21-9.602
            c-3.453-2.293-5.804-4.91-11.101-5.4c2.357-5.881,1.259-12.486,2.7-18.6c0.962-4.076,3.5-8.697,5.1-12.899
            c3.113-8.177,5.709-13.917,12.301-18c15.29-2.509,25.869-9.729,38.1-15.3c3.686,3.314,8.812,5.188,14.1,6.9
            c-3.238-1.762-5.771-6.829-10.5-8.101c13.384-7.394,28.486-15.929,40.801-26.7c1.706-1.493,3.406-3.389,5.699-5.4
            c1.287-1.128,5.132-4.715,6.301-4.8c2.076-0.151,5.95,3.178,7.8,4.2c3.078,1.701,5.148,3.135,8.7,3.3
            c0.724-7.247-4.589-10.995-13.2-9.9c-0.305-1.159,1.411-1.934,2.399-2.7c4.132-3.2,9.74-9.468,16.2-10.2
            c4.87-0.552,9.972,1.32,14.4,2.7c2.698,11.943-2.857,25.59-4.2,38.1c-0.439,4.098-0.68,8.666-0.6,12.9
            c0.163,8.669,3.432,17.298,4.199,26.101c1.451,16.629-3.791,32.213-3,49.199c0.191,1.109-0.388,2.988,0.301,3.6
            c0,1.602,0,3.201,0,4.801c0.191,1.109-0.389,2.988,0.3,3.6c0.933,12.604-2.181,21.969-7.2,29.4
            c-8.104,3.518-15.008,9.58-23.4,13.801c-9.744,4.898-20.971,8.297-29.1,14.398c-1.089,0.818-2.44,2.004-3.3,1.801
            c1.879-4.42,3.336-9.264,3.899-15c-2.262,6.637-5.927,11.873-8.1,18.6c-3.109,0.391-5.733,1.268-9,1.5
            c-2.502,0.199-5.797-0.396-7.8,0.301c-17.166,0.734-26.824,10.574-35.7,18.6c-1.144-11.244,4.025-16.174,3.9-26.4
            c0-1.1,0-2.199,0-3.299c0-0.801,0-1.602,0-2.4c-3.758,6.441-4.517,15.883-5.7,24.9c-0.698,2.301-0.102,5.898-0.3,8.699
            c0.674-0.127,0.008-1.592,0.6-1.801c0-0.299,0-0.6,0-0.898c1.638,2.904-1.789,6.281-3.6,7.799c-1.276,1.068-3.695,2.324-5.7,3.6
            c-4.02,2.561-8.365,4.852-13.5,6.301c-1.2,0-2.4,0-3.601,0c-0.789-0.311-1.01-1.189-1.8-1.5c0.457-16.258-0.047-31.553-3-44.4
            c-0.127-0.627,0.206-0.795,0.3-1.199c2.786-7.814,7.059-14.143,8.7-23.1c-3.038,5.861-7.17,10.629-9,17.699
            c-0.891,1.01,0.291,4.09-0.6,5.1c-1.63-23.107,0.072-47.326,3.3-67.5c3.7,0,7.4,0,11.1,0c4.916,0.184,7.496,2.705,10.801,4.5
            c0.974,1.227,2.074,2.326,3.3,3.301c0.791,1.109,1.45,2.35,2.1,3.6c0,0.1,0,0.199,0,0.301c2.375,2.625,4.875,5.125,7.5,7.5
            c1,0.898,1.523,2.275,2.7,3c-1.258-7.943-8.87-9.531-12.3-15.301c4.672,2.029,11.908,4.09,15.899,7.801
            c1.272-1.619,2.925-1.551,5.7-1.201C315.313,320.072,317.09,319.494,318.1,319.686z M400,308.285
            c5.245,6.355,11.862,12.938,17.1,18.301C412.049,319.836,406.572,313.514,400,308.285z M307.3,330.785
            c1.163,1.338,2.094,2.906,3.601,3.9C310.047,333.234,308.443,330.947,307.3,330.785z M333.4,352.385
            c-5.883-3.219-10.658-8.785-15.301-13.199c-2.134-0.766-3.57-2.23-5.399-3.301c-0.999,0.574,0.409,0.977,0.6,1.201
            c3.511,4.133,6.618,7.232,10.8,10.5c6.775,5.289,12.265,12.432,20.4,15.898C343.477,357.422,337.815,354.801,333.4,352.385z
             M337,315.785c-1.856,0.828,2.88,0.852,3.3,0.301c5.081,0.08,8.922-1.078,12.3-2.701C346.509,313.293,340.964,313.748,337,315.785
            z M356.8,234.186c-0.182,0.918-0.637,1.562-0.899,2.399c1.567-0.532,2.968-1.231,4.199-2.101
            C359.048,234.338,358.147,234.037,356.8,234.186z M360.7,237.186c-0.5,2.603-0.5,7.297,0,9.899c1.195,4.36,11.673,6.893,17.1,7.5
            c5.676,0.636,7.606-0.88,11.101-3.601c4.121-3.209,8.287-6.188,9.6-10.5c-5.461,6.04-10.545,12.455-23.1,11.4
            c-5.672-3.328-8.598-9.402-10.5-16.5c-1.345-0.355-2.334-1.066-4.2-0.9C360.7,235.385,360.7,236.285,360.7,237.186z
             M377.2,276.785c4.143-1.768,8.214-4.135,12.899-4.5c5.424-0.422,12.889,0.445,13.801-3.301c-0.666-1.233,0.184-3.983-1.5-4.199
            c-7.186,2.161-14.53,7.457-22.5,9.3c-4.271,0.987-8.503,0.169-12.301,3c0.794,1.647-0.072,4.293-0.3,4.8
            C369.796,278.646,372.824,278.652,377.2,276.785z M313.6,269.885c-1.852,8.549-10.604,11.796-10.5,21.301
            c2.677-5.725,4.697-12.104,9.9-15.301c3.48-2.527,11.242-3.607,9.6-9.3c-4.604-0.634-8.545,1.399-12,0
            c0.922,0.078,1.35,0.651,2.101,0.899c0.05,0.35,0.475,0.326,0.899,0.301C313.6,268.484,313.6,269.186,313.6,269.885z
             M370.9,305.586c4.31,0.49,10.56,0.373,14.1-0.9C380.307,303.842,374.699,304.547,370.9,305.586z M370.3,345.186
            c5.314-1.686,8.099-5.902,12.3-8.701c0.404-3.217,2.716-6.053,2.7-8.699c-3.784-0.57-3.89,3.574-6,5.4
            c-2.113,1.828-5.489,2.096-7.8,3.9c-3.173,2.477-4.214,5.717-7.2,8.1c-0.6,0-1.2,0-1.8,0c-2.29-0.09-4.623-0.223-5.1,1.5
            c2.437,0.234,3.991,0.131,6-0.6C364.604,344.689,368.654,346.139,370.3,345.186z M289.3,359.285
            c-0.319-0.014-0.762,0.141-0.3,0.301c2.248,4.506,7.301,5.033,12,7.199c3.039,1.4,5.564,3.996,9,3.6
            C305.596,364.189,296.926,362.26,289.3,359.285z"/>
        <path fill-rule="evenodd" clip-rule="evenodd" fill="#EE366D" d="M295.3,317.586c2.676,2.223,4.824,4.975,7.5,7.199
            c0,0.1,0,0.199,0,0.301C300.175,322.711,297.675,320.211,295.3,317.586z"/>
        <path fill-rule="evenodd" clip-rule="evenodd" fill="#DE9EB9" d="M344.5,363.484c-8.136-3.467-13.625-10.609-20.4-15.898
            c-4.182-3.268-7.289-6.367-10.8-10.5c-0.19-0.225-1.599-0.627-0.6-1.201c1.829,1.07,3.266,2.535,5.399,3.301
            c4.643,4.414,9.418,9.98,15.301,13.199C337.815,354.801,343.477,357.422,344.5,363.484z"/>
        <path fill-rule="evenodd" clip-rule="evenodd" fill="#EB7FA7" d="M310.9,334.686c-1.507-0.994-2.438-2.562-3.601-3.9
            C308.443,330.947,310.047,333.234,310.9,334.686z"/>
        <path fill-rule="evenodd" clip-rule="evenodd" fill="#F8BED5" d="M100.9,210.485c1.322-0.222,1.229,0.971,2.1,1.2
            c-0.048,0.352-0.547,0.253-0.9,0.3C101.897,211.288,101.103,211.182,100.9,210.485z"/>
        <path fill-rule="evenodd" clip-rule="evenodd" fill="#EF5694" d="M100,209.885c-0.804-0.496-1.078-1.522-1.8-2.1
            c0.415-0.492,1.385,0.998,1.8,1.5C99.97,209.622,100.436,209.752,100,209.885z"/>
        <path fill-rule="evenodd" clip-rule="evenodd" fill="#E94679" d="M100,209.885c0.436-0.133-0.03-0.264,0-0.6
            c0.439,0.261,0.951,0.449,0.9,1.2c0.203,0.697,0.997,0.803,1.2,1.5C101.274,211.412,100.574,210.711,100,209.885z"/>
        <path fill-rule="evenodd" clip-rule="evenodd" fill="#F8BED5" d="M109.9,211.985c4.128,0.229,6.898-0.901,8.4-3.3
            c-0.146-2.464-4.399-1.717-5.1-1.2c1.945-3.839,0.197-16.067,6.3-14.4c0.812,6.438,1.916,16.109-2.1,20.7
            c-2.927,3.346-10.946,2.717-13.5-1.2c0.093-0.407,0.751-0.249,1.2-0.3C106.605,212.09,108.893,212.678,109.9,211.985z"/>
        <path fill-rule="evenodd" clip-rule="evenodd" fill="#F8BED5" d="M97,205.685c-2.341-1.959-2.587-6.013-4.2-8.7
            C95.25,198.835,95.639,202.746,97,205.685z"/>
        <path fill-rule="evenodd" clip-rule="evenodd" fill="#DE9EB9" d="M360.7,237.186c0-0.9,0-1.801,0-2.701
            c1.866-0.166,2.855,0.545,4.2,0.9c1.902,7.098,4.828,13.172,10.5,16.5c12.555,1.055,17.639-5.36,23.1-11.4
            c-1.312,4.312-5.479,7.291-9.6,10.5c-3.494,2.721-5.425,4.236-11.101,3.601c-5.427-0.607-15.904-3.14-17.1-7.5
            C360.7,243.785,360.7,240.484,360.7,237.186z"/>
        <path fill-rule="evenodd" clip-rule="evenodd" fill="#F8BED5" d="M129.4,236.885c0.093,1.693-0.532,2.668-0.3,4.5
            c-1.557-0.793,0.085-3.215,0-4.5C129.2,236.885,129.3,236.885,129.4,236.885z"/>
        <path fill-rule="evenodd" clip-rule="evenodd" fill="#E94679" d="M169,258.186c-0.503,3.625-1.139,3.48-0.3,0
            C168.8,258.186,168.9,258.186,169,258.186z"/>
        <path fill-rule="evenodd" clip-rule="evenodd" fill="#F8BED5" d="M177.1,289.984c0.745-5.355,1.882-10.316,3.3-15
            c5.723-5.977,14.254-9.146,21-14.1c-0.824,3.428-2.626,5.783-5.1,7.801c-3.002,2.448-7.894,3.048-10.5,5.699
            c-1.08,1.1-2.388,3.6-3,5.1c-1.869,4.582-1.627,10.449-3.3,15c-0.512,1.393-1.946,2.902-3,3.9c0.106-0.395,0.528-0.473,0.6-0.9
            C177.1,294.984,177.1,292.484,177.1,289.984z"/>
        <path fill-rule="evenodd" clip-rule="evenodd" fill="#EF5694" d="M312.7,267.484c0.399,0,0.8,0,1.2,0
            c-0.183,0.719,0.376,2.178-0.301,2.4c0-0.699,0-1.4,0-2.1C313.175,267.811,312.75,267.834,312.7,267.484z"/>
        <path fill-rule="evenodd" clip-rule="evenodd" fill="#F8BED5" d="M124,275.885c0.025-0.889-0.524-2.083-0.6-3
            c-0.33-4.014,0.786,0.397,0.9,2.4C124.349,275.634,124.234,275.818,124,275.885z"/>
        <path fill-rule="evenodd" clip-rule="evenodd" fill="#F8BED5" d="M115,316.984c0.526-11.426-9.243-12.557-10.2-22.5
            c9.178,4.623,12.538,15.062,11.4,30c-0.91,0.01-0.748-1.053-0.9-1.799C115.104,320.881,115.695,318.289,115,316.984z"/>
        <path fill-rule="evenodd" clip-rule="evenodd" fill="#F8BED5" d="M175.9,298.984c-0.892,1.109-1.606,2.395-3.9,2.1
            C172.946,300.031,174.455,299.539,175.9,298.984z"/>
        <path fill-rule="evenodd" clip-rule="evenodd" fill="#EB7FA7" d="M302.8,324.785c-2.676-2.225-4.824-4.977-7.5-7.199
            c0-0.102,0-0.201,0-0.301C297.925,319.66,300.425,322.16,302.8,324.785z"/>
        <path fill-rule="evenodd" clip-rule="evenodd" fill="#DE9EB9" d="M364.3,345.186c2.986-2.383,4.027-5.623,7.2-8.1
            c2.311-1.805,5.687-2.072,7.8-3.9c2.11-1.826,2.216-5.971,6-5.4c0.016,2.646-2.296,5.482-2.7,8.699
            c-4.201,2.799-6.985,7.016-12.3,8.701C368.3,345.186,366.3,345.186,364.3,345.186z"/>
        <path fill-rule="evenodd" clip-rule="evenodd" fill="#EF5694" d="M363.4,346.086c-0.056-0.256,0.116-0.283,0.3-0.301
            c0.215-0.814-1.415,0.215-1.2-0.6c0.6,0,1.2,0,1.8,0c2,0,4,0,6,0C368.654,346.139,364.604,344.689,363.4,346.086z"/>
        <path fill-rule="evenodd" clip-rule="evenodd" fill="#EB7FA7" d="M181.9,359.586c0.496,0.703,1.75,0.648,3,0.6
            c0,0.1,0,0.199,0,0.299c-1.25,0.051-2.504,0.104-3-0.6C181.9,359.785,181.9,359.686,181.9,359.586z"/>
        <path fill-rule="evenodd" clip-rule="evenodd" fill="#DE9EB9" d="M161.5,374.285c-0.789-0.711-1.809-1.191-2.1-2.4
            c0.691,0.609,1.523,1.076,2.1,1.801C161.064,373.818,161.53,373.949,161.5,374.285z"/>
        <path fill-rule="evenodd" clip-rule="evenodd" fill="#DE9EB9" d="M151,360.785c-0.793-1.008-1.531-2.07-2.1-3.301
            C149.938,358.246,150.972,359.014,151,360.785z"/>
        <path fill-rule="evenodd" clip-rule="evenodd" fill="#F8BED5" d="M157.3,369.785c-2.757-2.344-4.921-5.279-6.3-9
            C152.948,363.938,155.608,366.377,157.3,369.785z"/>
        <path fill-rule="evenodd" clip-rule="evenodd" fill="#F8BED5" d="M161.5,374.285c0.03-0.336-0.436-0.467,0-0.6
            c0.803,0.697,1.406,1.594,1.8,2.699C162.434,375.951,162.143,374.943,161.5,374.285z"/>
        <path fill-rule="evenodd" clip-rule="evenodd" fill="#EF5694" d="M189.1,373.086c0.687,0.512,0.11,2.289,0.3,3.299
            c-0.656-0.043-0.644-0.756-0.6-1.5C189.462,374.848,188.927,373.613,189.1,373.086z"/>
        <path fill-rule="evenodd" clip-rule="evenodd" fill="#E94679" d="M196.3,385.086c-0.459-0.752-4.136,0.15-3.6-0.602
            c1.505,0.195,3.793-0.393,4.8,0.301C197.025,384.811,196.356,384.641,196.3,385.086z"/>
        <path fill-rule="evenodd" clip-rule="evenodd" fill="#F8BED5" d="M205,402.186c-0.082-1.818-0.972-2.828-0.6-5.1
            c0.44,0.959,0.859,1.941,0.9,3.299c0,0.6,0,1.201,0,1.801C205.2,402.186,205.1,402.186,205,402.186z"/>
        <path fill-rule="evenodd" clip-rule="evenodd" fill="#F8BED5" d="M257.5,63.185c-0.5,0.673-1.63-0.55-2.4-0.6
            C255.895,61.617,257.024,62.84,257.5,63.185z"/>
        <path fill-rule="evenodd" clip-rule="evenodd" fill="#F8BED5" d="M194.2,74.285c4.101-0.699,9.499-0.101,14.1-0.3
            C204.199,74.684,198.801,74.086,194.2,74.285z"/>
        <path fill-rule="evenodd" clip-rule="evenodd" fill="#FADDE8" d="M261.1,73.685c1.235,1.465,2.367,3.033,2.101,6c0,1.5,0,3,0,4.5
            c-0.388,3.213-1.705,5.495-3,7.8c-0.77-1.083,0.354-2.836,0.3-4.2C261.398,83.784,260.201,77.687,261.1,73.685z"/>
        <path fill-rule="evenodd" clip-rule="evenodd" fill="#EB7FA7" d="M263.2,79.685c0.498,0.812,0.498,3.688,0,4.5
            C263.2,82.685,263.2,81.185,263.2,79.685z"/>
        <path fill-rule="evenodd" clip-rule="evenodd" fill="#FADDE8" d="M238.3,91.085c-3.215,1.312-5.373-1.024-7.2-2.1
            C233.648,88.341,235.539,90.943,238.3,91.085z"/>
        <path fill-rule="evenodd" clip-rule="evenodd" fill="#DE9EB9" d="M212.8,105.485c0,1.8,0,3.6,0,5.4
            C212.301,109.776,212.301,106.594,212.8,105.485z"/>
        <path fill-rule="evenodd" clip-rule="evenodd" fill="#EB7FA7" d="M305.2,121.685c-1.883-0.793,2.63-0.875,3-0.3
            C307.288,121.573,305.616,121.001,305.2,121.685z"/>
        <path fill-rule="evenodd" clip-rule="evenodd" fill="#F8BED5" d="M325,131.285c-0.627,0.127-0.794-0.206-1.2-0.3
            c0.611-0.688,2.491-0.108,3.601-0.3C327.267,131.552,325.134,130.418,325,131.285z"/>
        <path fill-rule="evenodd" clip-rule="evenodd" fill="#FADDE8" d="M327.4,130.685c0.946,0.147,1.059-0.541,2.1-0.3
            c-1.125,0.831-2.629,1.653-4.5,0.9C325.134,130.418,327.267,131.552,327.4,130.685z"/>
        <path fill-rule="evenodd" clip-rule="evenodd" fill="#DE9EB9" d="M172.3,138.185c-4.336,0.635-10.305,0.306-14.7,0
            c0.809-0.691,2.894-0.106,4.2-0.3C164.702,138.583,168.899,137.986,172.3,138.185z"/>
        <path fill-rule="evenodd" clip-rule="evenodd" fill="#DE9EB9" d="M280.6,142.685c2.601,0,5.2,0,7.801,0
            c-2.003,0.697-5.298,0.102-7.801,0.3C280.6,142.885,280.6,142.785,280.6,142.685z"/>
        <path fill-rule="evenodd" clip-rule="evenodd" fill="#EB7FA7" d="M223,147.185c1.108-0.499,4.292-0.499,5.4,0
            C226.6,147.185,224.8,147.185,223,147.185z"/>
        <path fill-rule="evenodd" clip-rule="evenodd" fill="#FADDE8" d="M187.9,158.285c0.288,2.388-1.199,3.001-1.5,4.8
            c-0.698-2.901-0.101-7.099-0.3-10.5c0.663,1.038,1.25,2.15,1.5,3.6C187.453,157.132,188.141,157.245,187.9,158.285z"/>
        <path fill-rule="evenodd" clip-rule="evenodd" fill="#F8BED5" d="M64.9,128.585c0.161-1.539,0.304-3.096,1.2-3.9
            c59.834,41.766,119.395,83.805,179.7,125.1c-1.499,16.555-1.5,34.682-1.5,53.1c0,45.764-0.831,92.381-2.1,138
            c-0.241,8.662-1.545,18.189,3.9,23.701c-1,0-2,0-3,0c-3.087-1.014-5.575-2.625-8.4-3.9c-46.127-32.68-94.52-65.25-141.6-97.801
            c-5.896-4.076-16.002-9.842-20.1-15c-0.295-1.805-0.968-3.232-0.9-5.4c-0.193-1.207,0.39-3.189-0.3-3.898c0-2.201,0-4.4,0-6.602
            c-0.194-1.404,0.393-3.592-0.3-4.5c0-1.299,0-2.6,0-3.898c-0.194-1.406,0.393-3.594-0.3-4.5c0-1.301,0-2.602,0-3.9
            c-0.194-1.406,0.392-3.594-0.3-4.5c0-1.301,0-2.6,0-3.9c-0.194-1.406,0.393-3.592-0.3-4.5c0-1.301,0-2.6,0-3.9
            c-0.194-1.406,0.392-3.592-0.3-4.5c0-1.301,0-2.6,0-3.9c-0.194-1.404,0.393-3.592-0.3-4.5c0-1.299,0-2.6,0-3.899
            c-0.194-1.405,0.393-3.593-0.3-4.5c0-1.3,0-2.601,0-3.899c-0.194-1.406,0.392-3.593-0.3-4.5c0-1.4,0-2.801,0-4.201
            c-0.194-1.404,0.393-3.592-0.3-4.5c0-1.299,0-2.6,0-3.899c-0.194-1.405,0.392-3.593-0.3-4.5c0-1.3,0-2.601,0-3.899
            c-0.194-1.406,0.393-3.593-0.3-4.5c0-1.301,0-2.601,0-3.9c-0.194-1.406,0.393-3.592-0.3-4.5c0-1.301,0-2.6,0-3.9
            c-0.194-1.405,0.392-3.592-0.3-4.5c0-1.3,0-2.6,0-3.9c-0.194-1.405,0.393-3.592-0.3-4.5c0-1.3,0-2.6,0-3.9
            c-0.194-1.406,0.392-3.592-0.3-4.5c0-1.3,0-2.6,0-3.9c-0.194-1.406,0.393-3.592-0.3-4.5c0-1.3,0-2.6,0-3.9
            c-0.194-1.406,0.393-3.592-0.3-4.5c0-1.3,0-2.6,0-3.9c-0.194-1.406,0.392-3.592-0.3-4.5c0-1.3,0-2.6,0-3.9
            c-0.195-1.505,0.393-3.793-0.3-4.8c0-1.3,0-2.6,0-3.9c-0.194-1.406,0.392-3.592-0.3-4.5c0-1.3,0-2.6,0-3.9
            c-0.194-1.406,0.393-3.592-0.3-4.5c0-1.3,0-2.6,0-3.9c-0.194-1.406,0.393-3.592-0.3-4.5c0.178-4.378-0.222-8.178-0.3-12.3
            c-0.193-1.307,0.392-3.391-0.3-4.2c0-0.2,0-0.4,0-0.6C65.293,132.378,64.705,130.09,64.9,128.585z M165.1,227.585
            c-7.136-2.417-8.496-9.057-11.7-15c-0.995-1.846-2.565-3.77-3.9-5.7c-1.34-1.938-2.594-4.513-3.9-6
            c-1.687-1.921-4.429-3.554-6.6-5.4c-6.532-5.554-13.262-11.108-19.8-16.2c-8.948-6.969-17.529-14.814-28.2-19.8
            c-6.271,6.368-0.29,17.597-0.9,26.1c-0.412,5.739-3.093,10.685-3.6,16.2c-1.2,13.044,2.298,21.783,4.8,31.8
            c1.612,6.454,3.634,13.521,4.2,20.101c1.466,17.043-2.669,30.764-5.1,47.699c-0.497,0.324-0.497,2.676,0,3
            c-0.905,9.93,1.694,16.104,4.2,23.1c2.564,7.16,4.527,12.471,9,17.102c3.379,3.498,7.547,6.359,11.4,7.199
            c1.803,0.697,4.897,0.102,7.2,0.301c4.562,1.74,6.696-1.795,9.6-4.5c2.464-2.297,4.496-3.768,6-5.701
            c6.066-7.799,6.58-23.498,7.5-35.4c0.697-1.803,0.103-4.896,0.3-7.199c1.577-5.824,5.854-8.947,7.8-14.4
            c0.899-7.4-0.299-16.899,0.6-24.3c-0.475,9.166,5.488,14.688,4.2,23.7c-0.161,1.125-1.16,2.139-1.5,3.6
            c-0.337,1.445,0.057,2.982-0.3,4.199c-1.223,4.176-5.021,7.066-6,11.4c-1.137,5.039-0.939,10.043-2.4,15
            c-1.265,4.293-3,8.889-4.5,12.9c-1.405,3.76-2.951,7.693-4.8,12.6c-0.969,2.57-4.733,11.188-4.2,13.5
            c0.238,1.035,4.314,4.209,5.7,5.701c4.247,4.57,7.12,8.283,10.5,12.6c1.7,2.17,3.227,4.789,5.1,6.6
            c2.203,2.131,5.581,4.104,8.4,6.301c2.682,2.088,5.354,4.666,8.1,6.6c5.11,3.598,11.397,6.488,17.1,9.9
            c5.997,3.588,11.772,7.986,17.7,10.199c2.675,2.926,5.475,5.725,8.4,8.4c1.333,1.068,2.749,2.051,4.2,3
            c0.323,0.496,2.676,0.496,3,0c3.902-0.898,3.83-5.77,5.4-9c-1.843-8.184-1.193-16.732-1.8-25.199
            c-0.594-8.291-3.338-17.775-1.8-27.602c0.351-2.238,1.863-4.416,2.4-6.6c1.749-7.119,2.293-15.695,1.8-24.6
            c-0.303-5.475-0.683-11.969-1.8-16.801c-0.882-3.814-3.194-6.93-4.2-10.199c-1.135-3.689-2.054-7.98-2.4-12
            c-0.962-11.189,3.769-20.696,1.8-30.6c-0.396-1.99-2.262-3.501-2.7-6c-6.423-2.18-8.405-7.973-12-13.5
            c-2.021-3.109-4.258-7.265-6.9-9.601c-1.471-1.3-4.213-2.592-6.3-3.899c-6.306-3.954-14.017-9.092-21.9-3.601
            C169.9,227.585,167.5,227.585,165.1,227.585z"/>
        <path fill-rule="evenodd" clip-rule="evenodd" fill="#DE9EB9" d="M168.7,168.785c1.804,0.196,4.395-0.395,5.7,0.3
            C172.596,168.889,170.005,169.48,168.7,168.785z"/>
        <path fill-rule="evenodd" clip-rule="evenodd" fill="#FADDE8" d="M250.6,172.385c7.237-0.792,12.442,3.497,10.5,9.9
            c-3.214-3.486-3.604-9.795-11.399-8.7c-1.109-0.499-4.292-0.499-5.4,0c-2.598,0.905-1.722,4.351-1.8,7.2
            c-0.15,1.65,0.331,3.931-0.3,5.1c-1.217,0.183-0.738,2.062-1.2,3c-0.554-1.046-0.605-2.595-0.9-3.9
            c0.612,0.088,0.588,0.812,1.2,0.9c-0.024-4.722-5.702-6.902-2.1-11.7c1.528-0.772,3.039-1.561,5.4-1.5
            C246.503,172.488,249.195,173.081,250.6,172.385z"/>
        <path fill-rule="evenodd" clip-rule="evenodd" fill="#F8BED5" d="M258.4,209.285c1.1,0,2.199,0,3.3,0
            c-0.514,0.687-2.29,0.11-3.3,0.3C258.4,209.485,258.4,209.385,258.4,209.285z"/>
        <path fill-rule="evenodd" clip-rule="evenodd" fill="#F8BED5" d="M250.6,209.585c1.101,0,2.2,0,3.301,0
            c-0.514,0.687-2.29,0.11-3.301,0.3C250.6,209.785,250.6,209.685,250.6,209.585z"/>
        <path fill-rule="evenodd" clip-rule="evenodd" fill="#DE9EB9" d="M241.6,209.885c1.5,0,3,0,4.5,0
            C245.288,210.383,242.412,210.383,241.6,209.885z"/>
        <path fill-rule="evenodd" clip-rule="evenodd" fill="#E94679" d="M105.1,212.285c1.007-0.693,3.295-0.105,4.8-0.3
            C108.893,212.678,106.605,212.09,105.1,212.285z"/>
        <path fill-rule="evenodd" clip-rule="evenodd" fill="#F8BED5" d="M129.4,219.485c0.524-2.676,1.901-4.499,3.9-5.7
            c0.823,8.641-2.386,15.258-3.6,22.8C129,231.484,129.6,225.085,129.4,219.485z"/>
        <path fill-rule="evenodd" clip-rule="evenodd" fill="#F8BED5" d="M110.2,247.085c-3.157-3.843-5.619-8.381-9.6-11.399
            c-0.161-1.24-0.439-2.361-0.6-3.601c0.267-0.233,0.677-0.322,1.2-0.3C105.727,235.357,109.112,240.072,110.2,247.085z"/>
        <path fill-rule="evenodd" clip-rule="evenodd" fill="#E94679" d="M129.1,236.885c0.2-5.7-0.399-12.199,0.3-17.4
            c0.2,5.601-0.399,12,0.3,17.1c0.055,0.255-0.117,0.283-0.3,0.3C129.3,236.885,129.2,236.885,129.1,236.885z"/>
        <path fill-rule="evenodd" clip-rule="evenodd" fill="#F8BED5" d="M169,249.484c0.147-1.852,1.206-2.794,1.8-4.199
            c1.562,4.252-0.093,9.434-1.8,12.3C169,254.885,169,252.186,169,249.484z"/>
        <path fill-rule="evenodd" clip-rule="evenodd" fill="#EB7FA7" d="M150.7,246.785c0.976,1.424,1.658,3.143,1.8,5.4
            C151.661,250.625,151.213,248.672,150.7,246.785z"/>
        <path fill-rule="evenodd" clip-rule="evenodd" fill="#F8BED5" d="M110.2,250.385c0-1,0-2,0-3c1.208,1.492,1.396,4.004,2.1,6
            c0,1.4,0,2.801,0,4.2c0,0.3,0,0.601,0,0.899c-1.36-1.35-1.971-2.883-1.8-5.1C110.312,252.473,110.884,250.801,110.2,250.385z"/>
        <path fill-rule="evenodd" clip-rule="evenodd" fill="#EF5694" d="M112.3,253.385c0.498,0.714,0.498,3.486,0,4.2
            C112.3,256.186,112.3,254.785,112.3,253.385z"/>
        <path fill-rule="evenodd" clip-rule="evenodd" fill="#EB7FA7" d="M124.9,278.585c-0.562-0.638-0.191-2.208-0.9-2.7
            c0.234-0.066,0.349-0.251,0.3-0.6c0.553,0.647,0.323,2.076,0.9,2.699C124.908,277.993,124.967,278.353,124.9,278.585z"/>
        <path fill-rule="evenodd" clip-rule="evenodd" fill="#F8BED5" d="M124.9,278.585c0.067-0.232,0.008-0.592,0.3-0.601
            c2.59,13.41,12.764,19.236,13.2,34.801c-0.198,2.801,0.398,6.398-0.3,8.699C134.992,305.893,126.994,295.191,124.9,278.585z"/>
        <path fill-rule="evenodd" clip-rule="evenodd" fill="#EF5694" d="M90.4,301.385c0,1,0,2,0,3
            C89.903,304.061,89.903,301.709,90.4,301.385z"/>
        <path fill-rule="evenodd" clip-rule="evenodd" fill="#EE366D" d="M268,305.885c3.002-0.5,8.098-0.5,11.1,0
            C275.4,305.885,271.7,305.885,268,305.885z"/>
        <path fill-rule="evenodd" clip-rule="evenodd" fill="#EF5694" d="M417.1,308.885c0.688,0.611,0.109,2.492,0.301,3.6
            C416.712,311.873,417.291,309.994,417.1,308.885z"/>
        <path fill-rule="evenodd" clip-rule="evenodd" fill="#EF5694" d="M337,315.785c0.514,0.686,2.29,0.109,3.3,0.301
            C339.88,316.637,335.144,316.613,337,315.785z"/>
        <path fill-rule="evenodd" clip-rule="evenodd" fill="#EF5694" d="M417.4,317.285c0.688,0.611,0.108,2.492,0.3,3.6
            C417.012,320.273,417.592,318.395,417.4,317.285z"/>
        <path fill-rule="evenodd" clip-rule="evenodd" fill="#F8BED5" d="M139,323.885c2.158,4.377,0.145,8.596,0.3,14.1
            c-0.445-0.555-0.574-1.424-0.6-2.398C138.899,331.783,138.301,327.186,139,323.885z"/>
        <path fill-rule="evenodd" clip-rule="evenodd" fill="#E94679" d="M185.8,332.285c-3.401-0.699-8.099-0.102-12-0.301
            c3.063-0.236,10.267-0.957,12.3,0.301C186.028,332.24,185.878,332.32,185.8,332.285z"/>
        <path fill-rule="evenodd" clip-rule="evenodd" fill="#F8BED5" d="M172,336.186c-3.581-0.619-5.397-3.004-9.9-2.701
            c2.378-1.42,5.644-1.955,7.8-3.6c0,0.801,0,1.6,0,2.4c1.492,0.092,2.752-0.047,3.9-0.301c3.901,0.199,8.599-0.398,12,0.301
            c-2.5,2.301-5.739,3.861-10.5,3.9C174.2,336.186,173.1,336.186,172,336.186z"/>
        <path fill-rule="evenodd" clip-rule="evenodd" fill="#E94679" d="M172,336.186c1.1,0,2.2,0,3.3,0
            C174.88,336.682,172.42,336.682,172,336.186z"/>
        <path fill-rule="evenodd" clip-rule="evenodd" fill="#DE9EB9" d="M363.4,346.086c-2.009,0.73-3.563,0.834-6,0.6
            c0.477-1.723,2.81-1.59,5.1-1.5c-0.215,0.814,1.415-0.215,1.2,0.6C363.517,345.803,363.345,345.83,363.4,346.086z"/>
        <path fill-rule="evenodd" clip-rule="evenodd" fill="#DE9EB9" d="M265.3,368.285c1.83-7.07,5.962-11.838,9-17.699
            c-1.642,8.957-5.914,15.285-8.7,23.1C264.905,372.48,265.496,369.988,265.3,368.285z"/>
        <path fill-rule="evenodd" clip-rule="evenodd" fill="#F8BED5" d="M188.8,374.885c-3.34-9.559-10.794-15.006-17.7-21
            c3.168,1.133,8.328,2.871,10.8,5.701c0,0.1,0,0.199,0,0.299c0.496,0.703,1.75,0.65,3,0.6c7.6,0,15.2,0,22.8,0c0.1,0,0.2,0,0.3,0
            c1.303,1.898,3.062,3.338,3.3,6.301c-10.077,2.283-17.302-5.287-27.9-5.4c1.262,3.34,5.357,6.441,5.7,11.701
            C188.927,373.613,189.462,374.848,188.8,374.885z"/>
        <path fill-rule="evenodd" clip-rule="evenodd" fill="#EF5694" d="M184.9,360.186c7.5,0.199,15.8-0.4,22.8,0.299
            c-7.6,0-15.2,0-22.8,0C184.9,360.385,184.9,360.285,184.9,360.186z"/>
        <path fill-rule="evenodd" clip-rule="evenodd" fill="#EB7FA7" d="M265.3,368.285c0.196,1.703-0.395,4.195,0.3,5.4
            c-0.094,0.404-0.427,0.572-0.3,1.199c-0.623-0.076-0.082-1.318-0.6-1.5C265.591,372.375,264.409,369.295,265.3,368.285z"/>
        <path fill-rule="evenodd" clip-rule="evenodd" fill="#F8BED5" d="M197.5,384.785c2.949,2.051,4.565,5.436,6,9
            c-2.404-1.697-4.908-5.891-7.2-8.699C196.356,384.641,197.025,384.811,197.5,384.785z"/>
        <path fill-rule="evenodd" clip-rule="evenodd" fill="#EF5694" d="M205.3,400.385c0.415,0.146,0.729,2.705-0.3,2.4
            c0-0.199,0-0.4,0-0.6c0.1,0,0.2,0,0.3,0C205.3,401.586,205.3,400.984,205.3,400.385z"/>
        <path fill-rule="evenodd" clip-rule="evenodd" fill="#EB7FA7" d="M296.5,403.984c-0.592,0.209,0.074,1.674-0.6,1.801
            c0.198-2.801-0.398-6.398,0.3-8.699C296.397,399.287,295.804,402.281,296.5,403.984z"/>
        <path fill-rule="evenodd" clip-rule="evenodd" fill="#F8BED5" d="M279.1,76.085c3.102,0.199,6.998-0.398,9.601,0.3
            C285.599,76.187,281.702,76.783,279.1,76.085z"/>
        <path fill-rule="evenodd" clip-rule="evenodd" fill="#DE9EB9" d="M250.3,143.585c6.4,0,12.8,0,19.2,0
            C263.799,144.085,256.001,144.085,250.3,143.585z"/>
        <path fill-rule="evenodd" clip-rule="evenodd" fill="#F8BED5" d="M188.2,145.685c0.199,3.901-0.399,8.599,0.3,12
            c-0.133,0.267-0.263,0.537-0.6,0.6c0.241-1.041-0.447-1.153-0.3-2.1C188.498,153.382,187.303,148.488,188.2,145.685z"/>
        <path fill-rule="evenodd" clip-rule="evenodd" fill="#F8BED5" d="M244.6,172.685c1.404-0.695,4.097-0.104,6-0.3
            C249.195,173.081,246.503,172.488,244.6,172.685z"/>
        <path fill-rule="evenodd" clip-rule="evenodd" fill="#F8BED5" d="M199.9,304.686c0.312-1.439,0.547,4.664,1.8,5.4
            c-0.501,7.463,1.352,19.174-6,18.898c-0.993-5.01,4.382-6.205,3.9-11.699C200.299,313.684,199.701,308.785,199.9,304.686z"/>
        <path fill-rule="evenodd" clip-rule="evenodd" fill="#EF5694" d="M177.1,289.984c0,2.5,0,5,0,7.5
            C176.601,295.68,176.601,291.789,177.1,289.984z"/>
        <path fill-rule="evenodd" clip-rule="evenodd" fill="#EF5694" d="M138.4,312.785c0.698,2.602,0.102,6.498,0.3,9.6
            c-0.369-0.131-0.616-0.383-0.6-0.9C138.798,319.184,138.202,315.586,138.4,312.785z"/>
        <path fill-rule="evenodd" clip-rule="evenodd" fill="#EF5694" d="M314.8,319.385c1.011,0.189,2.787-0.387,3.3,0.301
            C317.09,319.494,315.313,320.072,314.8,319.385z"/>
        <path fill-rule="evenodd" clip-rule="evenodd" fill="#EF5694" d="M333.7,385.686c2.003-0.697,5.298-0.102,7.8-0.301
            C339.497,386.082,336.202,385.486,333.7,385.686z"/>
        <path fill-rule="evenodd" clip-rule="evenodd" fill="#EB7FA7" d="M268,147.485c-0.354-0.146-0.68-0.32-0.9-0.6
            c6.801,0,13.601,0,20.4,0C281.699,147.784,273.801,146.586,268,147.485z"/>
        <path fill-rule="evenodd" clip-rule="evenodd" fill="#DE9EB9" d="M360.1,234.484c-1.231,0.869-2.632,1.568-4.199,2.101
            c0.263-0.837,0.718-1.481,0.899-2.399C358.147,234.037,359.048,234.338,360.1,234.484z"/>
        <path fill-rule="evenodd" clip-rule="evenodd" fill="#DE9EB9" d="M169,249.484c0,2.701,0,5.4,0,8.101c0,0.2,0,0.399,0,0.601
            c-0.1,0-0.2,0-0.3,0C168.898,255.383,168.302,251.787,169,249.484z"/>
        <path fill-rule="evenodd" clip-rule="evenodd" fill="#DE9EB9" d="M367.3,281.885c0.228-0.507,1.094-3.152,0.3-4.8
            c3.798-2.831,8.029-2.013,12.301-3c7.97-1.843,15.314-7.139,22.5-9.3c1.684,0.216,0.834,2.966,1.5,4.199
            c-0.912,3.746-8.377,2.879-13.801,3.301c-4.686,0.365-8.757,2.732-12.899,4.5C372.824,278.652,369.796,278.646,367.3,281.885z"/>
        <path fill-rule="evenodd" clip-rule="evenodd" fill="#DE9EB9" d="M312.7,267.484c-0.751-0.248-1.179-0.821-2.101-0.899
            c3.455,1.399,7.396-0.634,12,0c1.643,5.692-6.119,6.772-9.6,9.3c-5.203,3.197-7.224,9.576-9.9,15.301
            c-0.104-9.505,8.648-12.752,10.5-21.301c0.677-0.223,0.118-1.682,0.301-2.4C313.5,267.484,313.1,267.484,312.7,267.484z"/>
        <path fill-rule="evenodd" clip-rule="evenodd" fill="#DE9EB9" d="M145.6,299.285c-0.198,2.303,0.397,5.396-0.3,7.199
            C145.498,304.182,144.903,301.088,145.6,299.285z"/>
        <path fill-rule="evenodd" clip-rule="evenodd" fill="#DE9EB9" d="M385,304.686c-3.54,1.273-9.79,1.391-14.1,0.9
            C374.699,304.547,380.307,303.842,385,304.686z"/>
        <path fill-rule="evenodd" clip-rule="evenodd" fill="#DE9EB9" d="M337,315.785c3.964-2.037,9.509-2.492,15.6-2.4
            c-3.378,1.623-7.219,2.781-12.3,2.701C339.29,315.895,337.514,316.471,337,315.785z"/>
        <path fill-rule="evenodd" clip-rule="evenodd" fill="#DE9EB9" d="M310,370.385c-3.436,0.396-5.961-2.199-9-3.6
            c-4.699-2.166-9.752-2.693-12-7.199c-0.462-0.16-0.02-0.314,0.3-0.301C296.926,362.26,305.596,364.189,310,370.385z"/>
    </g>
</g>
</svg>
